<svg width="310" height="291" viewBox="0 0 310 291" fill="none" xmlns="http://www.w3.org/2000/svg">
<path d="M309.345 18.9734H271.408C271.408 8.49219 279.913 0.0107422 290.371 0.0107422C300.852 0.0107422 309.345 8.50395 309.345 18.9734Z" fill="url(#paint0_linear_2_853)"/>
<path d="M38.5758 18.9746H0.638672C0.638672 8.49341 9.14364 0.0119629 19.6013 0.0119629C30.0708 0.0119629 38.5758 8.50517 38.5758 18.9746Z" fill="url(#paint1_linear_2_853)"/>
<g opacity="0.14">
<path opacity="0.4" d="M303.017 0.0117615H284.054V0H51.2205H32.2578C42.7155 0 51.2205 8.82258 51.2205 19.7155V290.969L168.22 239.857L284.066 290.969V19.692C284.078 8.82258 292.571 0.0117615 303.017 0.0117615Z" fill="black"/>
<path opacity="0.4" d="M35.4922 1.58887H53.9961H281.278H299.781C298.923 1.65945 298.076 1.78885 297.252 1.97706C288.947 3.24751 282.548 12.7288 282.536 21.7279V288.582L168.219 238.14L52.7374 288.593V21.7749C52.7374 12.7877 46.3851 3.30633 38.1037 2.00059C37.2567 1.80061 36.3862 1.65945 35.4922 1.58887Z" fill="black"/>
<path opacity="0.4" d="M38.7285 3.17578H56.7736H278.479H296.524C295.748 3.30518 294.983 3.50516 294.242 3.75219C286.761 4.89324 281.008 15.6803 280.997 23.7736V286.192L168.209 236.421L54.2445 286.204V23.8324C54.2445 15.7509 48.5275 4.96382 41.0812 3.78748C40.3283 3.51692 39.5402 3.31694 38.7285 3.17578Z" fill="black"/>
<path opacity="0.21" d="M41.9746 4.75293H59.561H275.702H293.301C292.607 4.95291 291.924 5.2117 291.265 5.51755C284.619 6.52921 279.502 18.622 279.49 25.8213V283.805L168.22 234.716L55.7731 283.841V25.8801C55.7731 18.6926 50.6913 6.59979 44.0685 5.55284C43.398 5.23523 42.6922 4.96467 41.9746 4.75293Z" fill="black"/>
<path opacity="0.4" d="M45.209 6.33984H62.3366H272.914H290.053C289.442 6.6104 288.842 6.92802 288.265 7.29268C282.454 8.17494 277.972 21.5735 277.96 27.8787V281.428L168.219 233.01L57.29 281.463V27.9258C57.29 21.6441 52.8435 8.23376 47.0441 7.31621C46.4677 6.95154 45.8442 6.62217 45.209 6.33984Z" fill="black"/>
<path opacity="0.4" d="M48.4434 7.91602H65.1239H270.137H286.818C286.288 8.25716 285.771 8.63358 285.277 9.0453C280.289 9.80993 276.454 24.5142 276.442 29.9136V279.028L168.219 231.28L58.807 279.075V29.9725C58.807 24.5848 54.9956 9.88051 50.0314 9.09236C49.5374 8.65711 48.9962 8.26892 48.4434 7.91602Z" fill="black"/>
<path opacity="0.4" d="M51.6914 9.50488H67.9132H267.362H283.584C283.137 9.90484 282.702 10.3519 282.29 10.8224C278.138 11.4576 274.938 27.4677 274.926 31.9613V276.641L168.232 229.564L60.3493 276.7V32.0319C60.3493 27.5382 57.1732 11.5282 53.0324 10.8694C52.609 10.3754 52.1619 9.9166 51.6914 9.50488Z" fill="black"/>
<path opacity="0.4" d="M54.9258 11.0811H70.6888H264.574H280.349C279.984 11.5516 279.631 12.0574 279.302 12.5868C275.984 13.0926 273.42 30.4084 273.408 34.008V274.253L168.243 227.846L61.878 274.312V34.0786C61.878 30.4907 59.3371 13.1632 56.0198 12.6456C55.6786 12.0927 55.314 11.5751 54.9258 11.0811Z" fill="black"/>
<path opacity="0.4" d="M58.1738 12.6699H73.4781H261.799H277.115C276.821 13.211 276.562 13.7757 276.303 14.3521C273.809 14.7285 271.892 33.35 271.892 36.0556V271.866L168.244 226.129L63.3968 271.936V36.1262C63.3968 33.4324 61.4911 14.7991 59.009 14.4109C58.7502 13.811 58.4679 13.2228 58.1738 12.6699Z" fill="black"/>
<path opacity="0.4" d="M61.4062 14.2451H76.2517H259.009H273.866C273.654 14.8568 273.466 15.4803 273.301 16.1155C271.642 16.3743 270.36 36.3016 270.36 38.1014V269.477L168.242 224.423L64.9118 269.559V38.172C64.9118 36.3722 63.6413 16.4449 61.9827 16.1861C61.818 15.5273 61.618 14.8803 61.4062 14.2451Z" fill="black"/>
<path opacity="0.4" d="M64.6426 15.833H79.0293H256.222H270.632C270.503 16.5035 270.397 17.1858 270.315 17.8916C269.479 18.021 268.844 39.254 268.844 40.148V267.088L168.243 222.705L66.4306 267.182V40.2304C66.4306 39.3364 65.7954 18.0916 64.972 17.9622C64.8778 17.2329 64.772 16.5271 64.6426 15.833Z" fill="black"/>
<path opacity="0.4" d="M67.9495 19.7266C67.9495 18.9502 67.926 18.1738 67.8789 17.4092H267.387C267.34 18.1503 267.316 18.8914 267.316 19.6442V264.689L168.245 220.976L67.9495 264.794V19.7266Z" fill="black"/>
</g>
<path d="M289.771 0.0109558H270.808H37.9627H19C29.4577 0.0109558 37.9627 8.4924 37.9627 18.9736V279.828L154.962 230.68L270.808 279.828V18.9383C270.832 8.48063 279.325 0.0109558 289.771 0.0109558Z" fill="url(#paint2_linear_2_853)"/>
<path d="M96.0879 160.039L98.7145 153.254H99.7807L102.388 160.039H101.273L99.7225 155.949C99.7032 155.903 99.6644 155.794 99.6062 155.619C99.5545 155.445 99.4932 155.251 99.4221 155.038C99.351 154.824 99.2864 154.63 99.2282 154.456C99.1701 154.275 99.1313 154.159 99.1119 154.107L99.3348 154.097C99.2961 154.207 99.2476 154.346 99.1895 154.514C99.1378 154.682 99.0796 154.86 99.015 155.047C98.9568 155.235 98.8987 155.412 98.8405 155.58C98.7824 155.742 98.7339 155.878 98.6952 155.987L97.1541 160.039H96.0879ZM97.251 158.352L97.6387 157.344H100.721L101.167 158.352H97.251ZM103.815 160.039V154.95H104.813V155.997L104.638 156.113C104.703 155.887 104.829 155.68 105.016 155.493C105.204 155.299 105.427 155.144 105.685 155.028C105.944 154.905 106.209 154.844 106.48 154.844C106.868 154.844 107.191 154.921 107.449 155.076C107.708 155.225 107.902 155.454 108.031 155.764C108.16 156.075 108.225 156.466 108.225 156.937V160.039H107.226V157.005C107.226 156.714 107.188 156.475 107.11 156.288C107.032 156.094 106.913 155.955 106.751 155.871C106.59 155.781 106.39 155.742 106.15 155.755C105.957 155.755 105.779 155.787 105.617 155.852C105.456 155.91 105.314 155.994 105.191 156.104C105.075 156.214 104.981 156.343 104.91 156.491C104.845 156.634 104.813 156.789 104.813 156.957V160.039H104.319C104.235 160.039 104.151 160.039 104.067 160.039C103.983 160.039 103.899 160.039 103.815 160.039ZM112.341 162.268C111.979 162.268 111.617 162.21 111.256 162.094C110.9 161.984 110.613 161.838 110.393 161.657L110.761 160.882C110.891 160.979 111.042 161.063 111.217 161.134C111.391 161.212 111.575 161.27 111.769 161.308C111.963 161.354 112.154 161.376 112.341 161.376C112.697 161.376 112.994 161.318 113.233 161.202C113.472 161.086 113.653 160.914 113.776 160.688C113.898 160.462 113.96 160.181 113.96 159.845V158.866L114.066 158.934C114.034 159.134 113.927 159.328 113.747 159.515C113.572 159.696 113.352 159.845 113.087 159.961C112.823 160.078 112.551 160.136 112.273 160.136C111.789 160.136 111.356 160.023 110.975 159.796C110.6 159.564 110.303 159.25 110.083 158.856C109.863 158.456 109.753 158 109.753 157.49C109.753 156.979 109.86 156.527 110.073 156.133C110.293 155.732 110.59 155.419 110.965 155.193C111.346 154.96 111.773 154.844 112.244 154.844C112.438 154.844 112.625 154.87 112.806 154.921C112.987 154.966 113.155 155.034 113.31 155.125C113.465 155.209 113.604 155.302 113.727 155.406C113.85 155.509 113.95 155.619 114.028 155.735C114.105 155.852 114.154 155.962 114.173 156.065L113.96 156.142V154.95H114.958V159.729C114.958 160.136 114.897 160.494 114.774 160.804C114.658 161.121 114.486 161.386 114.26 161.599C114.034 161.819 113.759 161.984 113.436 162.094C113.113 162.21 112.748 162.268 112.341 162.268ZM112.38 159.215C112.697 159.215 112.978 159.141 113.223 158.992C113.469 158.843 113.659 158.64 113.795 158.381C113.931 158.123 113.999 157.826 113.999 157.49C113.999 157.154 113.927 156.856 113.785 156.598C113.65 156.333 113.459 156.126 113.213 155.978C112.974 155.829 112.697 155.755 112.38 155.755C112.07 155.755 111.792 155.832 111.546 155.987C111.307 156.136 111.117 156.343 110.975 156.608C110.839 156.866 110.771 157.16 110.771 157.49C110.771 157.819 110.839 158.116 110.975 158.381C111.117 158.64 111.307 158.843 111.546 158.992C111.792 159.141 112.07 159.215 112.38 159.215ZM119.217 160.136C118.694 160.136 118.228 160.026 117.821 159.806C117.421 159.58 117.104 159.273 116.871 158.885C116.645 158.498 116.532 158.052 116.532 157.548C116.532 157.147 116.597 156.782 116.726 156.453C116.855 156.123 117.033 155.839 117.259 155.6C117.492 155.354 117.766 155.167 118.083 155.038C118.406 154.902 118.755 154.834 119.13 154.834C119.459 154.834 119.766 154.899 120.051 155.028C120.335 155.151 120.58 155.322 120.787 155.542C121 155.761 121.162 156.023 121.272 156.327C121.388 156.624 121.443 156.95 121.437 157.306L121.427 157.732H117.269L117.046 156.937H120.564L120.419 157.102V156.869C120.399 156.656 120.328 156.466 120.206 156.298C120.083 156.13 119.928 155.997 119.74 155.9C119.553 155.803 119.349 155.755 119.13 155.755C118.781 155.755 118.487 155.823 118.248 155.958C118.009 156.088 117.828 156.281 117.705 156.54C117.582 156.792 117.521 157.105 117.521 157.48C117.521 157.835 117.595 158.146 117.744 158.41C117.892 158.669 118.102 158.869 118.374 159.011C118.645 159.154 118.959 159.225 119.314 159.225C119.566 159.225 119.799 159.183 120.012 159.099C120.231 159.015 120.467 158.863 120.719 158.643L121.223 159.351C121.068 159.506 120.878 159.641 120.651 159.758C120.432 159.874 120.196 159.968 119.944 160.039C119.698 160.103 119.456 160.136 119.217 160.136ZM123.025 160.039V152.866H124.024V160.039H123.025ZM131.858 160.136C131.49 160.136 131.147 160.087 130.831 159.99C130.52 159.893 130.236 159.748 129.978 159.554C129.726 159.354 129.5 159.108 129.299 158.818L130.016 157.994C130.333 158.446 130.637 158.759 130.928 158.934C131.218 159.108 131.564 159.196 131.965 159.196C132.21 159.196 132.433 159.157 132.633 159.079C132.834 159.002 132.992 158.895 133.108 158.759C133.225 158.624 133.283 158.469 133.283 158.294C133.283 158.178 133.263 158.068 133.225 157.965C133.186 157.861 133.124 157.768 133.04 157.684C132.963 157.6 132.86 157.522 132.73 157.451C132.608 157.38 132.462 157.318 132.294 157.267C132.126 157.209 131.932 157.16 131.713 157.121C131.364 157.05 131.06 156.957 130.802 156.84C130.543 156.724 130.327 156.579 130.152 156.404C129.978 156.23 129.848 156.033 129.764 155.813C129.68 155.587 129.638 155.335 129.638 155.057C129.638 154.786 129.697 154.534 129.813 154.301C129.936 154.068 130.1 153.868 130.307 153.7C130.52 153.526 130.769 153.393 131.054 153.303C131.338 153.206 131.645 153.157 131.974 153.157C132.323 153.157 132.643 153.202 132.934 153.293C133.225 153.383 133.483 153.519 133.709 153.7C133.935 153.874 134.123 154.091 134.271 154.349L133.535 155.076C133.406 154.863 133.26 154.685 133.099 154.543C132.937 154.395 132.759 154.285 132.566 154.214C132.372 154.136 132.165 154.097 131.945 154.097C131.693 154.097 131.474 154.136 131.286 154.214C131.099 154.291 130.95 154.401 130.84 154.543C130.737 154.679 130.685 154.84 130.685 155.028C130.685 155.164 130.711 155.29 130.763 155.406C130.814 155.516 130.892 155.616 130.995 155.706C131.105 155.79 131.251 155.868 131.432 155.939C131.612 156.004 131.829 156.062 132.081 156.113C132.436 156.191 132.753 156.291 133.031 156.414C133.309 156.53 133.544 156.669 133.738 156.831C133.932 156.992 134.078 157.173 134.174 157.373C134.278 157.574 134.33 157.79 134.33 158.023C134.33 158.456 134.229 158.83 134.029 159.147C133.829 159.464 133.544 159.709 133.176 159.884C132.808 160.052 132.368 160.136 131.858 160.136ZM138.207 160.136C137.735 160.136 137.312 160.019 136.937 159.787C136.569 159.554 136.275 159.238 136.055 158.837C135.842 158.436 135.735 157.987 135.735 157.49C135.735 156.992 135.842 156.543 136.055 156.142C136.275 155.742 136.569 155.425 136.937 155.193C137.312 154.96 137.735 154.844 138.207 154.844C138.659 154.844 139.069 154.937 139.438 155.125C139.812 155.306 140.097 155.554 140.291 155.871L139.738 156.55C139.635 156.401 139.502 156.265 139.341 156.142C139.179 156.02 139.008 155.923 138.827 155.852C138.646 155.781 138.472 155.745 138.304 155.745C137.993 155.745 137.716 155.823 137.47 155.978C137.231 156.126 137.04 156.333 136.898 156.598C136.756 156.863 136.685 157.16 136.685 157.49C136.685 157.819 136.759 158.116 136.908 158.381C137.057 158.64 137.254 158.847 137.499 159.002C137.745 159.157 138.016 159.234 138.313 159.234C138.488 159.234 138.656 159.205 138.817 159.147C138.985 159.089 139.147 159.002 139.302 158.885C139.457 158.769 139.602 158.627 139.738 158.459L140.291 159.137C140.084 159.428 139.787 159.667 139.399 159.855C139.018 160.042 138.62 160.136 138.207 160.136ZM143.675 160.136C143.255 160.136 142.87 160.019 142.521 159.787C142.179 159.554 141.904 159.238 141.697 158.837C141.491 158.436 141.387 157.984 141.387 157.48C141.387 156.97 141.491 156.517 141.697 156.123C141.911 155.722 142.195 155.409 142.55 155.183C142.912 154.957 143.316 154.844 143.762 154.844C144.027 154.844 144.269 154.882 144.489 154.96C144.709 155.038 144.899 155.147 145.061 155.29C145.229 155.425 145.364 155.584 145.468 155.764C145.578 155.945 145.645 156.139 145.671 156.346L145.448 156.268V154.95H146.456V160.039H145.448V158.827L145.681 158.759C145.642 158.934 145.561 159.105 145.439 159.273C145.322 159.435 145.171 159.58 144.983 159.709C144.802 159.838 144.599 159.942 144.373 160.019C144.153 160.097 143.92 160.136 143.675 160.136ZM143.936 159.215C144.24 159.215 144.508 159.141 144.741 158.992C144.973 158.843 145.154 158.64 145.284 158.381C145.419 158.116 145.487 157.816 145.487 157.48C145.487 157.15 145.419 156.856 145.284 156.598C145.154 156.34 144.973 156.136 144.741 155.987C144.508 155.839 144.24 155.764 143.936 155.764C143.639 155.764 143.374 155.839 143.142 155.987C142.915 156.136 142.735 156.34 142.599 156.598C142.47 156.856 142.405 157.15 142.405 157.48C142.405 157.816 142.47 158.116 142.599 158.381C142.735 158.64 142.915 158.843 143.142 158.992C143.374 159.141 143.639 159.215 143.936 159.215ZM148.354 160.039V152.866H149.353V160.039H148.354ZM153.532 160.136C153.009 160.136 152.543 160.026 152.136 159.806C151.736 159.58 151.419 159.273 151.186 158.885C150.96 158.498 150.847 158.052 150.847 157.548C150.847 157.147 150.912 156.782 151.041 156.453C151.17 156.123 151.348 155.839 151.574 155.6C151.807 155.354 152.081 155.167 152.398 155.038C152.721 154.902 153.07 154.834 153.445 154.834C153.774 154.834 154.081 154.899 154.365 155.028C154.65 155.151 154.895 155.322 155.102 155.542C155.315 155.761 155.477 156.023 155.587 156.327C155.703 156.624 155.758 156.95 155.751 157.306L155.742 157.732H151.584L151.361 156.937H154.879L154.734 157.102V156.869C154.714 156.656 154.643 156.466 154.521 156.298C154.398 156.13 154.243 155.997 154.055 155.9C153.868 155.803 153.664 155.755 153.445 155.755C153.096 155.755 152.802 155.823 152.563 155.958C152.324 156.088 152.143 156.281 152.02 156.54C151.897 156.792 151.836 157.105 151.836 157.48C151.836 157.835 151.91 158.146 152.059 158.41C152.207 158.669 152.417 158.869 152.689 159.011C152.96 159.154 153.273 159.225 153.629 159.225C153.881 159.225 154.113 159.183 154.327 159.099C154.546 159.015 154.782 158.863 155.034 158.643L155.538 159.351C155.383 159.506 155.193 159.641 154.966 159.758C154.747 159.874 154.511 159.968 154.259 160.039C154.013 160.103 153.771 160.136 153.532 160.136ZM161.162 160.039V153.254H163.925C164.293 153.254 164.626 153.348 164.923 153.535C165.227 153.716 165.469 153.965 165.65 154.282C165.831 154.598 165.921 154.95 165.921 155.338C165.921 155.726 165.831 156.078 165.65 156.394C165.469 156.711 165.227 156.966 164.923 157.16C164.626 157.348 164.293 157.441 163.925 157.441H162.209V160.039H161.162ZM162.209 156.433H163.905C164.08 156.433 164.238 156.385 164.38 156.288C164.522 156.184 164.635 156.052 164.719 155.89C164.81 155.722 164.855 155.538 164.855 155.338C164.855 155.138 164.81 154.957 164.719 154.795C164.635 154.634 164.522 154.504 164.38 154.408C164.238 154.311 164.08 154.262 163.905 154.262H162.209V156.433ZM167.538 160.039V154.95H168.546V156.55L168.449 156.162C168.52 155.916 168.639 155.693 168.807 155.493C168.982 155.293 169.179 155.134 169.399 155.018C169.625 154.902 169.857 154.844 170.096 154.844C170.206 154.844 170.31 154.853 170.407 154.873C170.51 154.892 170.591 154.915 170.649 154.941L170.387 156.026C170.31 155.994 170.222 155.968 170.126 155.949C170.035 155.923 169.945 155.91 169.854 155.91C169.68 155.91 169.512 155.945 169.35 156.016C169.195 156.081 169.056 156.175 168.933 156.298C168.817 156.414 168.723 156.553 168.652 156.714C168.581 156.869 168.546 157.041 168.546 157.228V160.039H167.538ZM174.001 160.136C173.504 160.136 173.058 160.023 172.664 159.796C172.276 159.564 171.969 159.25 171.743 158.856C171.517 158.456 171.404 158 171.404 157.49C171.404 156.979 171.517 156.527 171.743 156.133C171.969 155.732 172.276 155.419 172.664 155.193C173.058 154.96 173.504 154.844 174.001 154.844C174.492 154.844 174.932 154.96 175.319 155.193C175.713 155.419 176.024 155.732 176.25 156.133C176.476 156.527 176.589 156.979 176.589 157.49C176.589 158 176.476 158.456 176.25 158.856C176.024 159.25 175.713 159.564 175.319 159.796C174.932 160.023 174.492 160.136 174.001 160.136ZM174.001 159.225C174.305 159.225 174.576 159.15 174.815 159.002C175.054 158.847 175.242 158.64 175.377 158.381C175.513 158.116 175.578 157.819 175.571 157.49C175.578 157.154 175.513 156.856 175.377 156.598C175.242 156.333 175.054 156.126 174.815 155.978C174.576 155.829 174.305 155.755 174.001 155.755C173.697 155.755 173.423 155.832 173.177 155.987C172.938 156.136 172.751 156.343 172.615 156.608C172.479 156.866 172.415 157.16 172.421 157.49C172.415 157.819 172.479 158.116 172.615 158.381C172.751 158.64 172.938 158.847 173.177 159.002C173.423 159.15 173.697 159.225 174.001 159.225ZM178.791 160.039V153.652H179.79V160.039H178.791ZM177.735 155.92V154.95H180.972V155.92H177.735ZM184.693 160.136C184.17 160.136 183.704 160.026 183.297 159.806C182.897 159.58 182.58 159.273 182.348 158.885C182.121 158.498 182.008 158.052 182.008 157.548C182.008 157.147 182.073 156.782 182.202 156.453C182.331 156.123 182.509 155.839 182.735 155.6C182.968 155.354 183.242 155.167 183.559 155.038C183.882 154.902 184.231 154.834 184.606 154.834C184.935 154.834 185.242 154.899 185.527 155.028C185.811 155.151 186.056 155.322 186.263 155.542C186.476 155.761 186.638 156.023 186.748 156.327C186.864 156.624 186.919 156.95 186.913 157.306L186.903 157.732H182.745L182.522 156.937H186.04L185.895 157.102V156.869C185.876 156.656 185.804 156.466 185.682 156.298C185.559 156.13 185.404 155.997 185.216 155.9C185.029 155.803 184.826 155.755 184.606 155.755C184.257 155.755 183.963 155.823 183.724 155.958C183.485 156.088 183.304 156.281 183.181 156.54C183.058 156.792 182.997 157.105 182.997 157.48C182.997 157.835 183.071 158.146 183.22 158.41C183.368 158.669 183.578 158.869 183.85 159.011C184.121 159.154 184.435 159.225 184.79 159.225C185.042 159.225 185.275 159.183 185.488 159.099C185.708 159.015 185.943 158.863 186.195 158.643L186.699 159.351C186.544 159.506 186.354 159.641 186.128 159.758C185.908 159.874 185.672 159.968 185.42 160.039C185.174 160.103 184.932 160.136 184.693 160.136ZM190.644 160.136C190.172 160.136 189.749 160.019 189.374 159.787C189.006 159.554 188.712 159.238 188.492 158.837C188.279 158.436 188.172 157.987 188.172 157.49C188.172 156.992 188.279 156.543 188.492 156.142C188.712 155.742 189.006 155.425 189.374 155.193C189.749 154.96 190.172 154.844 190.644 154.844C191.096 154.844 191.506 154.937 191.875 155.125C192.249 155.306 192.534 155.554 192.727 155.871L192.175 156.55C192.072 156.401 191.939 156.265 191.778 156.142C191.616 156.02 191.445 155.923 191.264 155.852C191.083 155.781 190.909 155.745 190.741 155.745C190.43 155.745 190.153 155.823 189.907 155.978C189.668 156.126 189.477 156.333 189.335 156.598C189.193 156.863 189.122 157.16 189.122 157.49C189.122 157.819 189.196 158.116 189.345 158.381C189.493 158.64 189.691 158.847 189.936 159.002C190.182 159.157 190.453 159.234 190.75 159.234C190.925 159.234 191.093 159.205 191.254 159.147C191.422 159.089 191.584 159.002 191.739 158.885C191.894 158.769 192.039 158.627 192.175 158.459L192.727 159.137C192.521 159.428 192.223 159.667 191.836 159.855C191.455 160.042 191.057 160.136 190.644 160.136ZM194.784 160.039V153.652H195.782V160.039H194.784ZM193.727 155.92V154.95H196.964V155.92H193.727ZM198.523 160.039V154.95H199.521V160.039H198.523ZM199.008 153.826C198.794 153.826 198.63 153.771 198.513 153.661C198.397 153.551 198.339 153.396 198.339 153.196C198.339 153.009 198.397 152.857 198.513 152.74C198.636 152.624 198.801 152.566 199.008 152.566C199.221 152.566 199.386 152.621 199.502 152.731C199.618 152.841 199.676 152.996 199.676 153.196C199.676 153.383 199.615 153.535 199.492 153.652C199.376 153.768 199.214 153.826 199.008 153.826ZM203.828 160.136C203.33 160.136 202.884 160.023 202.49 159.796C202.102 159.564 201.796 159.25 201.569 158.856C201.343 158.456 201.23 158 201.23 157.49C201.23 156.979 201.343 156.527 201.569 156.133C201.796 155.732 202.102 155.419 202.49 155.193C202.884 154.96 203.33 154.844 203.828 154.844C204.319 154.844 204.758 154.96 205.146 155.193C205.54 155.419 205.85 155.732 206.076 156.133C206.302 156.527 206.416 156.979 206.416 157.49C206.416 158 206.302 158.456 206.076 158.856C205.85 159.25 205.54 159.564 205.146 159.796C204.758 160.023 204.319 160.136 203.828 160.136ZM203.828 159.225C204.131 159.225 204.403 159.15 204.642 159.002C204.881 158.847 205.068 158.64 205.204 158.381C205.34 158.116 205.404 157.819 205.398 157.49C205.404 157.154 205.34 156.856 205.204 156.598C205.068 156.333 204.881 156.126 204.642 155.978C204.403 155.829 204.131 155.755 203.828 155.755C203.524 155.755 203.249 155.832 203.004 155.987C202.765 156.136 202.577 156.343 202.442 156.608C202.306 156.866 202.241 157.16 202.248 157.49C202.241 157.819 202.306 158.116 202.442 158.381C202.577 158.64 202.765 158.847 203.004 159.002C203.249 159.15 203.524 159.225 203.828 159.225ZM207.988 160.039V154.95H208.986V155.997L208.812 156.113C208.876 155.887 209.002 155.68 209.19 155.493C209.377 155.299 209.6 155.144 209.859 155.028C210.117 154.905 210.382 154.844 210.653 154.844C211.041 154.844 211.364 154.921 211.623 155.076C211.881 155.225 212.075 155.454 212.204 155.764C212.333 156.075 212.398 156.466 212.398 156.937V160.039H211.4V157.005C211.4 156.714 211.361 156.475 211.283 156.288C211.206 156.094 211.086 155.955 210.925 155.871C210.763 155.781 210.563 155.742 210.324 155.755C210.13 155.755 209.952 155.787 209.791 155.852C209.629 155.91 209.487 155.994 209.364 156.104C209.248 156.214 209.154 156.343 209.083 156.491C209.019 156.634 208.986 156.789 208.986 156.957V160.039H208.492C208.408 160.039 208.324 160.039 208.24 160.039C208.156 160.039 208.072 160.039 207.988 160.039ZM99.9759 172.136C99.4848 172.136 99.026 172.048 98.5996 171.874C98.1731 171.693 97.7983 171.444 97.4752 171.128C97.1522 170.811 96.9002 170.443 96.7192 170.023C96.5448 169.596 96.4576 169.138 96.4576 168.646C96.4576 168.162 96.5448 167.71 96.7192 167.29C96.9002 166.87 97.1489 166.504 97.4656 166.194C97.7886 165.878 98.1634 165.632 98.5899 165.458C99.0163 165.283 99.4751 165.196 99.9662 165.196C100.309 165.196 100.641 165.244 100.964 165.341C101.294 165.438 101.591 165.574 101.856 165.748C102.121 165.923 102.338 166.123 102.506 166.349L101.827 167.057C101.633 166.87 101.433 166.714 101.226 166.592C101.026 166.469 100.819 166.375 100.606 166.311C100.393 166.246 100.179 166.214 99.9662 166.214C99.6172 166.214 99.2942 166.275 98.9969 166.398C98.7062 166.521 98.4477 166.692 98.2216 166.912C98.0019 167.131 97.8306 167.39 97.7079 167.687C97.5851 167.978 97.5237 168.298 97.5237 168.646C97.5237 168.982 97.5883 169.302 97.7176 169.606C97.8468 169.903 98.0245 170.165 98.2506 170.391C98.4832 170.617 98.7482 170.795 99.0454 170.924C99.3491 171.053 99.6689 171.118 100.005 171.118C100.257 171.118 100.496 171.082 100.722 171.011C100.948 170.934 101.149 170.827 101.323 170.692C101.498 170.556 101.633 170.401 101.73 170.226C101.827 170.045 101.876 169.855 101.876 169.654V169.461L102.021 169.596H99.9468V168.559H102.951C102.964 168.63 102.974 168.701 102.98 168.772C102.987 168.837 102.99 168.902 102.99 168.966C102.997 169.024 103 169.083 103 169.141C103 169.587 102.922 169.994 102.767 170.362C102.612 170.724 102.396 171.037 102.118 171.302C101.846 171.567 101.527 171.774 101.158 171.922C100.796 172.065 100.402 172.136 99.9759 172.136ZM104.76 172.039V166.95H105.759V172.039H104.76ZM105.245 165.826C105.032 165.826 104.867 165.771 104.751 165.661C104.634 165.551 104.576 165.396 104.576 165.196C104.576 165.009 104.634 164.857 104.751 164.74C104.873 164.624 105.038 164.566 105.245 164.566C105.458 164.566 105.623 164.621 105.739 164.731C105.855 164.841 105.914 164.996 105.914 165.196C105.914 165.383 105.852 165.535 105.729 165.652C105.613 165.768 105.452 165.826 105.245 165.826ZM109.445 172.039L107.293 166.95H108.369L109.92 170.759L109.735 170.847L111.393 166.95H112.42L110.162 172.039H109.445ZM116.051 172.136C115.528 172.136 115.062 172.026 114.655 171.806C114.255 171.58 113.938 171.273 113.705 170.885C113.479 170.498 113.366 170.052 113.366 169.548C113.366 169.147 113.431 168.782 113.56 168.453C113.689 168.123 113.867 167.839 114.093 167.6C114.326 167.354 114.6 167.167 114.917 167.038C115.24 166.902 115.589 166.834 115.964 166.834C116.293 166.834 116.6 166.899 116.884 167.028C117.169 167.151 117.414 167.322 117.621 167.542C117.834 167.761 117.996 168.023 118.106 168.327C118.222 168.624 118.277 168.95 118.27 169.306L118.261 169.732H114.103L113.88 168.937H117.398L117.253 169.102V168.869C117.233 168.656 117.162 168.466 117.04 168.298C116.917 168.13 116.762 167.997 116.574 167.9C116.387 167.803 116.183 167.755 115.964 167.755C115.615 167.755 115.321 167.823 115.082 167.958C114.843 168.088 114.662 168.281 114.539 168.54C114.416 168.792 114.355 169.105 114.355 169.48C114.355 169.835 114.429 170.146 114.578 170.41C114.726 170.669 114.936 170.869 115.208 171.011C115.479 171.154 115.792 171.225 116.148 171.225C116.4 171.225 116.632 171.183 116.846 171.099C117.065 171.015 117.301 170.863 117.553 170.643L118.057 171.351C117.902 171.506 117.712 171.641 117.485 171.758C117.266 171.874 117.03 171.968 116.778 172.039C116.532 172.103 116.29 172.136 116.051 172.136ZM121.536 172.136C121.11 172.136 120.725 172.061 120.383 171.913C120.04 171.764 119.756 171.544 119.53 171.254L120.208 170.672C120.402 170.898 120.612 171.063 120.838 171.166C121.071 171.263 121.333 171.312 121.623 171.312C121.74 171.312 121.846 171.299 121.943 171.273C122.047 171.241 122.134 171.196 122.205 171.137C122.282 171.079 122.341 171.011 122.379 170.934C122.418 170.85 122.438 170.759 122.438 170.662C122.438 170.494 122.376 170.359 122.253 170.255C122.189 170.21 122.085 170.162 121.943 170.11C121.808 170.052 121.63 169.994 121.41 169.936C121.035 169.839 120.728 169.729 120.489 169.606C120.25 169.483 120.066 169.344 119.937 169.189C119.84 169.066 119.769 168.934 119.724 168.792C119.678 168.643 119.656 168.482 119.656 168.307C119.656 168.094 119.701 167.9 119.792 167.726C119.888 167.545 120.018 167.39 120.179 167.26C120.347 167.125 120.541 167.021 120.761 166.95C120.987 166.879 121.226 166.844 121.478 166.844C121.717 166.844 121.953 166.876 122.186 166.941C122.425 167.005 122.644 167.099 122.845 167.222C123.045 167.344 123.213 167.49 123.349 167.658L122.777 168.288C122.654 168.165 122.518 168.058 122.37 167.968C122.228 167.871 122.082 167.797 121.934 167.745C121.785 167.693 121.649 167.668 121.526 167.668C121.391 167.668 121.268 167.68 121.158 167.706C121.048 167.732 120.955 167.771 120.877 167.823C120.806 167.874 120.751 167.939 120.712 168.016C120.674 168.094 120.654 168.181 120.654 168.278C120.661 168.362 120.68 168.443 120.712 168.52C120.751 168.592 120.803 168.653 120.867 168.705C120.938 168.756 121.045 168.811 121.187 168.869C121.329 168.928 121.51 168.982 121.73 169.034C122.053 169.118 122.318 169.212 122.525 169.315C122.738 169.412 122.906 169.525 123.029 169.654C123.158 169.777 123.248 169.919 123.3 170.081C123.352 170.242 123.378 170.423 123.378 170.624C123.378 170.914 123.294 171.176 123.126 171.409C122.964 171.635 122.744 171.813 122.467 171.942C122.189 172.071 121.879 172.136 121.536 172.136ZM129.017 174.268L130.044 171.893L130.054 172.688L127.514 166.95H128.677L130.267 170.692C130.299 170.756 130.338 170.856 130.383 170.992C130.428 171.121 130.467 171.25 130.5 171.38L130.248 171.438C130.299 171.302 130.348 171.166 130.393 171.031C130.445 170.895 130.493 170.759 130.538 170.624L131.866 166.95H133.049L130.955 172.039L130.092 174.268H129.017ZM136.473 172.136C135.975 172.136 135.529 172.023 135.135 171.796C134.748 171.564 134.441 171.25 134.214 170.856C133.988 170.456 133.875 170 133.875 169.49C133.875 168.979 133.988 168.527 134.214 168.133C134.441 167.732 134.748 167.419 135.135 167.193C135.529 166.96 135.975 166.844 136.473 166.844C136.964 166.844 137.403 166.96 137.791 167.193C138.185 167.419 138.495 167.732 138.721 168.133C138.948 168.527 139.061 168.979 139.061 169.49C139.061 170 138.948 170.456 138.721 170.856C138.495 171.25 138.185 171.564 137.791 171.796C137.403 172.023 136.964 172.136 136.473 172.136ZM136.473 171.225C136.776 171.225 137.048 171.15 137.287 171.002C137.526 170.847 137.713 170.64 137.849 170.381C137.985 170.116 138.049 169.819 138.043 169.49C138.049 169.154 137.985 168.856 137.849 168.598C137.713 168.333 137.526 168.126 137.287 167.978C137.048 167.829 136.776 167.755 136.473 167.755C136.169 167.755 135.894 167.832 135.649 167.987C135.41 168.136 135.222 168.343 135.087 168.608C134.951 168.866 134.886 169.16 134.893 169.49C134.886 169.819 134.951 170.116 135.087 170.381C135.222 170.64 135.41 170.847 135.649 171.002C135.894 171.15 136.169 171.225 136.473 171.225ZM142.416 172.136C142.055 172.136 141.738 172.052 141.467 171.884C141.202 171.716 140.995 171.48 140.846 171.176C140.704 170.872 140.633 170.511 140.633 170.091V166.95H141.631V169.819C141.631 170.116 141.677 170.375 141.767 170.595C141.864 170.808 142 170.973 142.174 171.089C142.355 171.205 142.572 171.263 142.824 171.263C143.011 171.263 143.182 171.234 143.337 171.176C143.492 171.112 143.625 171.024 143.735 170.914C143.851 170.805 143.941 170.672 144.006 170.517C144.071 170.362 144.103 170.194 144.103 170.013V166.95H145.101V172.039H144.103V170.973L144.277 170.856C144.2 171.095 144.067 171.312 143.88 171.506C143.699 171.7 143.483 171.855 143.231 171.971C142.979 172.081 142.707 172.136 142.416 172.136ZM151.883 172.136C151.457 172.136 151.072 172.061 150.73 171.913C150.387 171.764 150.103 171.544 149.877 171.254L150.555 170.672C150.749 170.898 150.959 171.063 151.185 171.166C151.418 171.263 151.68 171.312 151.971 171.312C152.087 171.312 152.193 171.299 152.29 171.273C152.394 171.241 152.481 171.196 152.552 171.137C152.63 171.079 152.688 171.011 152.727 170.934C152.765 170.85 152.785 170.759 152.785 170.662C152.785 170.494 152.723 170.359 152.601 170.255C152.536 170.21 152.433 170.162 152.29 170.11C152.155 170.052 151.977 169.994 151.757 169.936C151.383 169.839 151.076 169.729 150.837 169.606C150.597 169.483 150.413 169.344 150.284 169.189C150.187 169.066 150.116 168.934 150.071 168.792C150.026 168.643 150.003 168.482 150.003 168.307C150.003 168.094 150.048 167.9 150.139 167.726C150.236 167.545 150.365 167.39 150.526 167.26C150.694 167.125 150.888 167.021 151.108 166.95C151.334 166.879 151.573 166.844 151.825 166.844C152.064 166.844 152.3 166.876 152.533 166.941C152.772 167.005 152.991 167.099 153.192 167.222C153.392 167.344 153.56 167.49 153.696 167.658L153.124 168.288C153.001 168.165 152.865 168.058 152.717 167.968C152.575 167.871 152.429 167.797 152.281 167.745C152.132 167.693 151.996 167.668 151.874 167.668C151.738 167.668 151.615 167.68 151.505 167.706C151.395 167.732 151.302 167.771 151.224 167.823C151.153 167.874 151.098 167.939 151.059 168.016C151.021 168.094 151.001 168.181 151.001 168.278C151.008 168.362 151.027 168.443 151.059 168.52C151.098 168.592 151.15 168.653 151.215 168.705C151.286 168.756 151.392 168.811 151.534 168.869C151.677 168.928 151.857 168.982 152.077 169.034C152.4 169.118 152.665 169.212 152.872 169.315C153.085 169.412 153.253 169.525 153.376 169.654C153.505 169.777 153.596 169.919 153.647 170.081C153.699 170.242 153.725 170.423 153.725 170.624C153.725 170.914 153.641 171.176 153.473 171.409C153.311 171.635 153.092 171.813 152.814 171.942C152.536 172.071 152.226 172.136 151.883 172.136ZM157.684 172.136C157.161 172.136 156.696 172.026 156.289 171.806C155.888 171.58 155.571 171.273 155.339 170.885C155.113 170.498 155 170.052 155 169.548C155 169.147 155.064 168.782 155.193 168.453C155.323 168.123 155.5 167.839 155.726 167.6C155.959 167.354 156.234 167.167 156.55 167.038C156.873 166.902 157.222 166.834 157.597 166.834C157.927 166.834 158.234 166.899 158.518 167.028C158.802 167.151 159.048 167.322 159.254 167.542C159.468 167.761 159.629 168.023 159.739 168.327C159.855 168.624 159.91 168.95 159.904 169.306L159.894 169.732H155.736L155.513 168.937H159.032L158.886 169.102V168.869C158.867 168.656 158.796 168.466 158.673 168.298C158.55 168.13 158.395 167.997 158.208 167.9C158.02 167.803 157.817 167.755 157.597 167.755C157.248 167.755 156.954 167.823 156.715 167.958C156.476 168.088 156.295 168.281 156.172 168.54C156.05 168.792 155.988 169.105 155.988 169.48C155.988 169.835 156.062 170.146 156.211 170.41C156.36 170.669 156.57 170.869 156.841 171.011C157.112 171.154 157.426 171.225 157.781 171.225C158.033 171.225 158.266 171.183 158.479 171.099C158.699 171.015 158.935 170.863 159.187 170.643L159.691 171.351C159.536 171.506 159.345 171.641 159.119 171.758C158.899 171.874 158.663 171.968 158.411 172.039C158.166 172.103 157.923 172.136 157.684 172.136ZM163.635 172.136C163.163 172.136 162.74 172.019 162.365 171.787C161.997 171.554 161.703 171.238 161.483 170.837C161.27 170.436 161.163 169.987 161.163 169.49C161.163 168.992 161.27 168.543 161.483 168.142C161.703 167.742 161.997 167.425 162.365 167.193C162.74 166.96 163.163 166.844 163.635 166.844C164.087 166.844 164.497 166.937 164.866 167.125C165.24 167.306 165.525 167.554 165.719 167.871L165.166 168.55C165.063 168.401 164.93 168.265 164.769 168.142C164.607 168.02 164.436 167.923 164.255 167.852C164.074 167.781 163.9 167.745 163.732 167.745C163.422 167.745 163.144 167.823 162.898 167.978C162.659 168.126 162.468 168.333 162.326 168.598C162.184 168.863 162.113 169.16 162.113 169.49C162.113 169.819 162.187 170.116 162.336 170.381C162.485 170.64 162.682 170.847 162.927 171.002C163.173 171.157 163.444 171.234 163.741 171.234C163.916 171.234 164.084 171.205 164.245 171.147C164.413 171.089 164.575 171.002 164.73 170.885C164.885 170.769 165.03 170.627 165.166 170.459L165.719 171.137C165.512 171.428 165.215 171.667 164.827 171.855C164.446 172.042 164.048 172.136 163.635 172.136ZM168.928 172.136C168.566 172.136 168.25 172.052 167.978 171.884C167.714 171.716 167.507 171.48 167.358 171.176C167.216 170.872 167.145 170.511 167.145 170.091V166.95H168.143V169.819C168.143 170.116 168.188 170.375 168.279 170.595C168.376 170.808 168.512 170.973 168.686 171.089C168.867 171.205 169.083 171.263 169.335 171.263C169.523 171.263 169.694 171.234 169.849 171.176C170.004 171.112 170.137 171.024 170.246 170.914C170.363 170.805 170.453 170.672 170.518 170.517C170.582 170.362 170.615 170.194 170.615 170.013V166.95H171.613V172.039H170.615V170.973L170.789 170.856C170.712 171.095 170.579 171.312 170.392 171.506C170.211 171.7 169.994 171.855 169.742 171.971C169.49 172.081 169.219 172.136 168.928 172.136ZM173.498 172.039V166.95H174.506V168.55L174.409 168.162C174.48 167.916 174.6 167.693 174.768 167.493C174.942 167.293 175.139 167.134 175.359 167.018C175.585 166.902 175.818 166.844 176.057 166.844C176.167 166.844 176.27 166.853 176.367 166.873C176.47 166.892 176.551 166.915 176.609 166.941L176.347 168.026C176.27 167.994 176.183 167.968 176.086 167.949C175.995 167.923 175.905 167.91 175.814 167.91C175.64 167.91 175.472 167.945 175.31 168.016C175.155 168.081 175.016 168.175 174.894 168.298C174.777 168.414 174.684 168.553 174.613 168.714C174.541 168.869 174.506 169.041 174.506 169.228V172.039H173.498ZM178.056 172.039V166.95H179.055V172.039H178.056ZM178.541 165.826C178.328 165.826 178.163 165.771 178.047 165.661C177.93 165.551 177.872 165.396 177.872 165.196C177.872 165.009 177.93 164.857 178.047 164.74C178.169 164.624 178.334 164.566 178.541 164.566C178.754 164.566 178.919 164.621 179.035 164.731C179.152 164.841 179.21 164.996 179.21 165.196C179.21 165.383 179.148 165.535 179.026 165.652C178.909 165.768 178.748 165.826 178.541 165.826ZM181.704 172.039V165.652H182.702V172.039H181.704ZM180.647 167.92V166.95H183.885V167.92H180.647ZM186.131 174.268L187.159 171.893L187.168 172.688L184.629 166.95H185.792L187.381 170.692C187.414 170.756 187.453 170.856 187.498 170.992C187.543 171.121 187.582 171.25 187.614 171.38L187.362 171.438C187.414 171.302 187.462 171.166 187.507 171.031C187.559 170.895 187.608 170.759 187.653 170.624L188.981 166.95H190.163L188.07 172.039L187.207 174.268H186.131ZM196.554 172.136C196.134 172.136 195.749 172.019 195.4 171.787C195.058 171.554 194.783 171.238 194.576 170.837C194.37 170.436 194.266 169.984 194.266 169.48C194.266 168.97 194.37 168.517 194.576 168.123C194.79 167.722 195.074 167.409 195.429 167.183C195.791 166.957 196.195 166.844 196.641 166.844C196.906 166.844 197.148 166.882 197.368 166.96C197.587 167.038 197.778 167.147 197.94 167.29C198.108 167.425 198.243 167.584 198.347 167.764C198.456 167.945 198.524 168.139 198.55 168.346L198.327 168.268V166.95H199.335V172.039H198.327V170.827L198.56 170.759C198.521 170.934 198.44 171.105 198.318 171.273C198.201 171.435 198.049 171.58 197.862 171.709C197.681 171.838 197.478 171.942 197.251 172.019C197.032 172.097 196.799 172.136 196.554 172.136ZM196.815 171.215C197.119 171.215 197.387 171.141 197.62 170.992C197.852 170.843 198.033 170.64 198.162 170.381C198.298 170.116 198.366 169.816 198.366 169.48C198.366 169.15 198.298 168.856 198.162 168.598C198.033 168.34 197.852 168.136 197.62 167.987C197.387 167.839 197.119 167.764 196.815 167.764C196.518 167.764 196.253 167.839 196.02 167.987C195.794 168.136 195.613 168.34 195.478 168.598C195.348 168.856 195.284 169.15 195.284 169.48C195.284 169.816 195.348 170.116 195.478 170.381C195.613 170.64 195.794 170.843 196.02 170.992C196.253 171.141 196.518 171.215 196.815 171.215ZM201.214 172.039V166.95H202.212V167.997L202.038 168.113C202.102 167.887 202.228 167.68 202.416 167.493C202.603 167.299 202.826 167.144 203.084 167.028C203.343 166.905 203.608 166.844 203.879 166.844C204.267 166.844 204.59 166.921 204.848 167.076C205.107 167.225 205.301 167.454 205.43 167.764C205.559 168.075 205.624 168.466 205.624 168.937V172.039H204.625V169.005C204.625 168.714 204.587 168.475 204.509 168.288C204.432 168.094 204.312 167.955 204.151 167.871C203.989 167.781 203.789 167.742 203.55 167.755C203.356 167.755 203.178 167.787 203.017 167.852C202.855 167.91 202.713 167.994 202.59 168.104C202.474 168.214 202.38 168.343 202.309 168.491C202.244 168.634 202.212 168.789 202.212 168.957V172.039H201.718C201.634 172.039 201.55 172.039 201.466 172.039C201.382 172.039 201.298 172.039 201.214 172.039ZM209.585 172.136C209.12 172.136 208.703 172.023 208.335 171.796C207.973 171.564 207.686 171.25 207.472 170.856C207.259 170.456 207.152 170 207.152 169.49C207.152 168.979 207.256 168.527 207.463 168.133C207.676 167.732 207.963 167.419 208.325 167.193C208.687 166.96 209.097 166.844 209.556 166.844C209.808 166.844 210.05 166.886 210.283 166.97C210.522 167.047 210.735 167.157 210.923 167.299C211.11 167.435 211.256 167.587 211.359 167.755C211.469 167.916 211.524 168.081 211.524 168.249L211.233 168.268V164.866H212.231V172.039H211.233V170.827H211.427C211.427 170.982 211.375 171.137 211.272 171.292C211.168 171.441 211.029 171.58 210.855 171.709C210.687 171.838 210.49 171.942 210.264 172.019C210.044 172.097 209.818 172.136 209.585 172.136ZM209.721 171.273C210.025 171.273 210.293 171.196 210.525 171.04C210.758 170.885 210.939 170.675 211.068 170.41C211.204 170.139 211.272 169.832 211.272 169.49C211.272 169.147 211.204 168.844 211.068 168.579C210.939 168.307 210.758 168.094 210.525 167.939C210.293 167.784 210.025 167.706 209.721 167.706C209.417 167.706 209.149 167.784 208.916 167.939C208.684 168.094 208.5 168.307 208.364 168.579C208.235 168.844 208.17 169.147 208.17 169.49C208.17 169.832 208.235 170.139 208.364 170.41C208.5 170.675 208.684 170.885 208.916 171.04C209.149 171.196 209.417 171.273 209.721 171.273ZM118.815 186.171V178.95H119.823V180.113L119.668 180.026C119.707 179.832 119.816 179.648 119.997 179.474C120.178 179.293 120.398 179.147 120.656 179.038C120.921 178.921 121.193 178.863 121.471 178.863C121.929 178.863 122.336 178.976 122.692 179.202C123.047 179.428 123.328 179.739 123.535 180.133C123.742 180.527 123.845 180.979 123.845 181.49C123.845 181.994 123.742 182.446 123.535 182.847C123.335 183.241 123.057 183.554 122.702 183.787C122.346 184.013 121.946 184.126 121.5 184.126C121.202 184.126 120.915 184.068 120.637 183.952C120.359 183.829 120.123 183.674 119.93 183.486C119.736 183.299 119.616 183.105 119.571 182.905L119.823 182.769V186.171H118.815ZM121.335 183.205C121.632 183.205 121.897 183.131 122.13 182.982C122.362 182.834 122.546 182.63 122.682 182.372C122.818 182.113 122.886 181.819 122.886 181.49C122.886 181.16 122.818 180.869 122.682 180.617C122.553 180.359 122.372 180.155 122.139 180.007C121.907 179.858 121.639 179.784 121.335 179.784C121.031 179.784 120.763 179.858 120.53 180.007C120.298 180.149 120.114 180.349 119.978 180.608C119.842 180.866 119.774 181.16 119.774 181.49C119.774 181.819 119.842 182.113 119.978 182.372C120.114 182.63 120.298 182.834 120.53 182.982C120.763 183.131 121.031 183.205 121.335 183.205ZM127.789 184.136C127.265 184.136 126.8 184.026 126.393 183.806C125.992 183.58 125.676 183.273 125.443 182.885C125.217 182.498 125.104 182.052 125.104 181.548C125.104 181.147 125.169 180.782 125.298 180.453C125.427 180.123 125.605 179.839 125.831 179.6C126.063 179.354 126.338 179.167 126.655 179.038C126.978 178.902 127.327 178.834 127.701 178.834C128.031 178.834 128.338 178.899 128.622 179.028C128.907 179.151 129.152 179.322 129.359 179.542C129.572 179.761 129.734 180.023 129.843 180.327C129.96 180.624 130.015 180.95 130.008 181.306L129.999 181.732H125.841L125.618 180.937H129.136L128.991 181.102V180.869C128.971 180.656 128.9 180.466 128.777 180.298C128.655 180.13 128.499 179.997 128.312 179.9C128.125 179.803 127.921 179.755 127.701 179.755C127.353 179.755 127.059 179.823 126.819 179.958C126.58 180.088 126.399 180.281 126.277 180.54C126.154 180.792 126.093 181.105 126.093 181.48C126.093 181.835 126.167 182.146 126.315 182.41C126.464 182.669 126.674 182.869 126.945 183.011C127.217 183.154 127.53 183.225 127.886 183.225C128.138 183.225 128.37 183.183 128.583 183.099C128.803 183.015 129.039 182.863 129.291 182.643L129.795 183.351C129.64 183.506 129.449 183.641 129.223 183.758C129.003 183.874 128.768 183.968 128.516 184.039C128.27 184.103 128.028 184.136 127.789 184.136ZM133.536 184.136C133.116 184.136 132.731 184.019 132.382 183.787C132.04 183.554 131.765 183.238 131.558 182.837C131.352 182.436 131.248 181.984 131.248 181.48C131.248 180.97 131.352 180.517 131.558 180.123C131.772 179.722 132.056 179.409 132.411 179.183C132.773 178.957 133.177 178.844 133.623 178.844C133.888 178.844 134.13 178.882 134.35 178.96C134.569 179.038 134.76 179.147 134.922 179.29C135.09 179.425 135.225 179.584 135.329 179.764C135.439 179.945 135.506 180.139 135.532 180.346L135.309 180.268V178.95H136.317V184.039H135.309V182.827L135.542 182.759C135.503 182.934 135.422 183.105 135.3 183.273C135.183 183.435 135.031 183.58 134.844 183.709C134.663 183.838 134.46 183.942 134.233 184.019C134.014 184.097 133.781 184.136 133.536 184.136ZM133.797 183.215C134.101 183.215 134.369 183.141 134.602 182.992C134.834 182.843 135.015 182.64 135.145 182.381C135.28 182.116 135.348 181.816 135.348 181.48C135.348 181.15 135.28 180.856 135.145 180.598C135.015 180.34 134.834 180.136 134.602 179.987C134.369 179.839 134.101 179.764 133.797 179.764C133.5 179.764 133.235 179.839 133.003 179.987C132.776 180.136 132.595 180.34 132.46 180.598C132.331 180.856 132.266 181.15 132.266 181.48C132.266 181.816 132.331 182.116 132.46 182.381C132.595 182.64 132.776 182.843 133.003 182.992C133.235 183.141 133.5 183.215 133.797 183.215ZM140.357 184.136C139.885 184.136 139.462 184.019 139.087 183.787C138.719 183.554 138.425 183.238 138.205 182.837C137.992 182.436 137.886 181.987 137.886 181.49C137.886 180.992 137.992 180.543 138.205 180.142C138.425 179.742 138.719 179.425 139.087 179.193C139.462 178.96 139.885 178.844 140.357 178.844C140.809 178.844 141.22 178.937 141.588 179.125C141.963 179.306 142.247 179.554 142.441 179.871L141.889 180.55C141.785 180.401 141.653 180.265 141.491 180.142C141.33 180.02 141.158 179.923 140.977 179.852C140.797 179.781 140.622 179.745 140.454 179.745C140.144 179.745 139.866 179.823 139.621 179.978C139.381 180.126 139.191 180.333 139.049 180.598C138.907 180.863 138.835 181.16 138.835 181.49C138.835 181.819 138.91 182.116 139.058 182.381C139.207 182.64 139.404 182.847 139.65 183.002C139.895 183.157 140.167 183.234 140.464 183.234C140.638 183.234 140.806 183.205 140.968 183.147C141.136 183.089 141.297 183.002 141.452 182.885C141.607 182.769 141.753 182.627 141.889 182.459L142.441 183.137C142.234 183.428 141.937 183.667 141.549 183.855C141.168 184.042 140.771 184.136 140.357 184.136ZM146.242 184.136C145.719 184.136 145.253 184.026 144.846 183.806C144.446 183.58 144.129 183.273 143.896 182.885C143.67 182.498 143.557 182.052 143.557 181.548C143.557 181.147 143.622 180.782 143.751 180.453C143.88 180.123 144.058 179.839 144.284 179.6C144.517 179.354 144.791 179.167 145.108 179.038C145.431 178.902 145.78 178.834 146.155 178.834C146.484 178.834 146.791 178.899 147.075 179.028C147.36 179.151 147.605 179.322 147.812 179.542C148.025 179.761 148.187 180.023 148.297 180.327C148.413 180.624 148.468 180.95 148.461 181.306L148.452 181.732H144.294L144.071 180.937H147.589L147.444 181.102V180.869C147.424 180.656 147.353 180.466 147.231 180.298C147.108 180.13 146.953 179.997 146.765 179.9C146.578 179.803 146.374 179.755 146.155 179.755C145.806 179.755 145.512 179.823 145.273 179.958C145.034 180.088 144.853 180.281 144.73 180.54C144.607 180.792 144.546 181.105 144.546 181.48C144.546 181.835 144.62 182.146 144.769 182.41C144.917 182.669 145.127 182.869 145.399 183.011C145.67 183.154 145.983 183.225 146.339 183.225C146.591 183.225 146.823 183.183 147.037 183.099C147.256 183.015 147.492 182.863 147.744 182.643L148.248 183.351C148.093 183.506 147.903 183.641 147.676 183.758C147.457 183.874 147.221 183.968 146.969 184.039C146.723 184.103 146.481 184.136 146.242 184.136ZM155.519 184.136C155.022 184.136 154.576 184.023 154.182 183.796C153.794 183.564 153.487 183.25 153.261 182.856C153.035 182.456 152.922 182 152.922 181.49C152.922 180.979 153.035 180.527 153.261 180.133C153.487 179.732 153.794 179.419 154.182 179.193C154.576 178.96 155.022 178.844 155.519 178.844C156.011 178.844 156.45 178.96 156.838 179.193C157.232 179.419 157.542 179.732 157.768 180.133C157.994 180.527 158.107 180.979 158.107 181.49C158.107 182 157.994 182.456 157.768 182.856C157.542 183.25 157.232 183.564 156.838 183.796C156.45 184.023 156.011 184.136 155.519 184.136ZM155.519 183.225C155.823 183.225 156.095 183.15 156.334 183.002C156.573 182.847 156.76 182.64 156.896 182.381C157.031 182.116 157.096 181.819 157.09 181.49C157.096 181.154 157.031 180.856 156.896 180.598C156.76 180.333 156.573 180.126 156.334 179.978C156.095 179.829 155.823 179.755 155.519 179.755C155.216 179.755 154.941 179.832 154.696 179.987C154.457 180.136 154.269 180.343 154.133 180.608C153.998 180.866 153.933 181.16 153.94 181.49C153.933 181.819 153.998 182.116 154.133 182.381C154.269 182.64 154.457 182.847 154.696 183.002C154.941 183.15 155.216 183.225 155.519 183.225ZM160.043 184.039V178.378C160.043 178.088 160.108 177.829 160.237 177.603C160.366 177.377 160.544 177.199 160.77 177.07C160.996 176.941 161.258 176.876 161.555 176.876C161.762 176.876 161.956 176.915 162.136 176.992C162.317 177.07 162.463 177.173 162.573 177.303L162.233 178.068C162.149 177.991 162.056 177.929 161.952 177.884C161.855 177.832 161.762 177.807 161.671 177.807C161.536 177.807 161.419 177.829 161.322 177.874C161.232 177.913 161.164 177.978 161.119 178.068C161.074 178.152 161.051 178.256 161.051 178.378V184.039H160.547C160.463 184.039 160.379 184.039 160.295 184.039C160.211 184.039 160.127 184.039 160.043 184.039ZM159.229 179.958V179.038H162.253V179.958H159.229ZM166.962 184.039V178.95H167.97V180.036L167.786 180.152C167.837 179.984 167.918 179.823 168.028 179.668C168.144 179.512 168.283 179.377 168.445 179.26C168.613 179.138 168.79 179.041 168.978 178.97C169.172 178.899 169.369 178.863 169.569 178.863C169.86 178.863 170.115 178.912 170.335 179.008C170.554 179.105 170.735 179.251 170.877 179.445C171.02 179.638 171.123 179.881 171.188 180.172L171.033 180.133L171.1 179.968C171.171 179.819 171.268 179.68 171.391 179.551C171.52 179.416 171.666 179.296 171.827 179.193C171.989 179.089 172.16 179.008 172.341 178.95C172.522 178.892 172.7 178.863 172.874 178.863C173.255 178.863 173.569 178.941 173.814 179.096C174.066 179.251 174.254 179.487 174.376 179.803C174.506 180.12 174.57 180.514 174.57 180.986V184.039H173.562V181.044C173.562 180.753 173.523 180.517 173.446 180.336C173.375 180.149 173.265 180.01 173.116 179.92C172.968 179.829 172.777 179.784 172.545 179.784C172.364 179.784 172.192 179.816 172.031 179.881C171.876 179.939 171.74 180.023 171.624 180.133C171.507 180.243 171.417 180.372 171.352 180.52C171.288 180.663 171.255 180.821 171.255 180.995V184.039H170.247V181.024C170.247 180.76 170.209 180.537 170.131 180.356C170.054 180.168 169.941 180.026 169.792 179.929C169.643 179.832 169.462 179.784 169.249 179.784C169.068 179.784 168.9 179.816 168.745 179.881C168.59 179.939 168.454 180.023 168.338 180.133C168.222 180.236 168.131 180.362 168.067 180.511C168.002 180.653 167.97 180.808 167.97 180.976V184.039H166.962ZM176.556 184.039V178.95H177.554V184.039H176.556ZM177.041 177.826C176.828 177.826 176.663 177.771 176.546 177.661C176.43 177.551 176.372 177.396 176.372 177.196C176.372 177.009 176.43 176.857 176.546 176.74C176.669 176.624 176.834 176.566 177.041 176.566C177.254 176.566 177.419 176.621 177.535 176.731C177.651 176.841 177.71 176.996 177.71 177.196C177.71 177.383 177.648 177.535 177.525 177.652C177.409 177.768 177.248 177.826 177.041 177.826ZM179.574 184.039V178.95H180.572V179.997L180.397 180.113C180.462 179.887 180.588 179.68 180.775 179.493C180.963 179.299 181.186 179.144 181.444 179.028C181.703 178.905 181.968 178.844 182.239 178.844C182.627 178.844 182.95 178.921 183.208 179.076C183.467 179.225 183.661 179.454 183.79 179.764C183.919 180.075 183.984 180.466 183.984 180.937V184.039H182.985V181.005C182.985 180.714 182.947 180.475 182.869 180.288C182.791 180.094 182.672 179.955 182.51 179.871C182.349 179.781 182.149 179.742 181.909 179.755C181.716 179.755 181.538 179.787 181.376 179.852C181.215 179.91 181.073 179.994 180.95 180.104C180.834 180.214 180.74 180.343 180.669 180.491C180.604 180.634 180.572 180.789 180.572 180.957V184.039H180.078C179.994 184.039 179.91 184.039 179.826 184.039C179.742 184.039 179.658 184.039 179.574 184.039ZM187.945 184.136C187.48 184.136 187.063 184.023 186.695 183.796C186.333 183.564 186.045 183.25 185.832 182.856C185.619 182.456 185.512 182 185.512 181.49C185.512 180.979 185.616 180.527 185.822 180.133C186.036 179.732 186.323 179.419 186.685 179.193C187.047 178.96 187.457 178.844 187.916 178.844C188.168 178.844 188.41 178.886 188.643 178.97C188.882 179.047 189.095 179.157 189.283 179.299C189.47 179.435 189.615 179.587 189.719 179.755C189.829 179.916 189.884 180.081 189.884 180.249L189.593 180.268V176.866H190.591V184.039H189.593V182.827H189.787C189.787 182.982 189.735 183.137 189.632 183.292C189.528 183.441 189.389 183.58 189.215 183.709C189.047 183.838 188.85 183.942 188.624 184.019C188.404 184.097 188.178 184.136 187.945 184.136ZM188.081 183.273C188.384 183.273 188.653 183.196 188.885 183.04C189.118 182.885 189.299 182.675 189.428 182.41C189.564 182.139 189.632 181.832 189.632 181.49C189.632 181.147 189.564 180.844 189.428 180.579C189.299 180.307 189.118 180.094 188.885 179.939C188.653 179.784 188.384 179.706 188.081 179.706C187.777 179.706 187.509 179.784 187.276 179.939C187.044 180.094 186.86 180.307 186.724 180.579C186.595 180.844 186.53 181.147 186.53 181.49C186.53 181.832 186.595 182.139 186.724 182.41C186.86 182.675 187.044 182.885 187.276 183.04C187.509 183.196 187.777 183.273 188.081 183.273Z" fill="white"/>
<path d="M80.3029 140.423L83.5862 131.942H84.9188L88.1779 140.423H86.7846L84.8462 135.31C84.8219 135.254 84.7735 135.117 84.7008 134.898C84.6362 134.68 84.5594 134.438 84.4706 134.172C84.3817 133.905 84.301 133.663 84.2283 133.445C84.1556 133.218 84.1071 133.073 84.0829 133.008L84.3615 132.996C84.3131 133.134 84.2525 133.307 84.1798 133.517C84.1152 133.727 84.0425 133.949 83.9617 134.184C83.889 134.418 83.8163 134.64 83.7437 134.85C83.671 135.052 83.6104 135.222 83.5619 135.359L81.6356 140.423H80.3029ZM81.7567 138.315L82.2413 137.055H86.094L86.6513 138.315H81.7567ZM89.8401 140.423V134.063H91.0879V135.371L90.8699 135.516C90.9506 135.234 91.1081 134.975 91.3424 134.741C91.5766 134.499 91.8553 134.305 92.1783 134.159C92.5014 134.006 92.8326 133.929 93.1718 133.929C93.6564 133.929 94.0603 134.026 94.3833 134.22C94.7064 134.406 94.9487 134.693 95.1103 135.08C95.2718 135.468 95.3526 135.957 95.3526 136.546V140.423H94.1047V136.631C94.1047 136.268 94.0562 135.969 93.9593 135.734C93.8624 135.492 93.7129 135.318 93.511 135.213C93.3091 135.1 93.0587 135.052 92.7599 135.068C92.5176 135.068 92.2954 135.108 92.0935 135.189C91.8916 135.262 91.7139 135.367 91.5604 135.504C91.4151 135.642 91.2979 135.803 91.2091 135.989C91.1283 136.167 91.0879 136.36 91.0879 136.57V140.423H90.4701C90.3651 140.423 90.2601 140.423 90.1551 140.423C90.0501 140.423 89.9451 140.423 89.8401 140.423ZM100.377 143.21C99.9248 143.21 99.4725 143.137 99.0202 142.992C98.576 142.854 98.2166 142.673 97.9419 142.446L98.4023 141.477C98.5639 141.598 98.7537 141.703 98.9717 141.792C99.1898 141.889 99.42 141.962 99.6623 142.01C99.9046 142.067 100.143 142.095 100.377 142.095C100.821 142.095 101.193 142.022 101.492 141.877C101.791 141.732 102.017 141.518 102.17 141.235C102.324 140.952 102.4 140.601 102.4 140.181V138.957L102.534 139.042C102.493 139.292 102.36 139.535 102.134 139.769C101.916 139.995 101.641 140.181 101.31 140.326C100.979 140.472 100.64 140.544 100.292 140.544C99.6866 140.544 99.1454 140.403 98.6689 140.12C98.2004 139.829 97.8289 139.438 97.5542 138.945C97.2796 138.444 97.1423 137.875 97.1423 137.237C97.1423 136.599 97.2756 136.033 97.5421 135.541C97.8167 135.04 98.1883 134.648 98.6567 134.365C99.1333 134.075 99.6664 133.929 100.256 133.929C100.498 133.929 100.733 133.962 100.959 134.026C101.185 134.083 101.395 134.168 101.589 134.281C101.783 134.386 101.956 134.503 102.11 134.632C102.263 134.761 102.388 134.898 102.485 135.044C102.582 135.189 102.643 135.327 102.667 135.456L102.4 135.553V134.063H103.648V140.035C103.648 140.544 103.572 140.993 103.418 141.38C103.273 141.776 103.059 142.107 102.776 142.374C102.493 142.648 102.15 142.854 101.746 142.992C101.342 143.137 100.886 143.21 100.377 143.21ZM100.426 139.393C100.821 139.393 101.173 139.3 101.48 139.115C101.787 138.929 102.025 138.674 102.194 138.351C102.364 138.028 102.449 137.657 102.449 137.237C102.449 136.817 102.36 136.445 102.182 136.122C102.013 135.791 101.774 135.533 101.468 135.347C101.169 135.161 100.821 135.068 100.426 135.068C100.038 135.068 99.6906 135.165 99.3837 135.359C99.0848 135.545 98.8466 135.803 98.6689 136.134C98.4992 136.457 98.4144 136.825 98.4144 137.237C98.4144 137.649 98.4992 138.02 98.6689 138.351C98.8466 138.674 99.0848 138.929 99.3837 139.115C99.6906 139.3 100.038 139.393 100.426 139.393ZM108.851 140.544C108.197 140.544 107.615 140.407 107.106 140.132C106.605 139.85 106.21 139.466 105.919 138.981C105.636 138.497 105.495 137.939 105.495 137.309C105.495 136.809 105.576 136.352 105.737 135.94C105.899 135.528 106.121 135.173 106.403 134.874C106.694 134.567 107.038 134.333 107.433 134.172C107.837 134.002 108.273 133.917 108.742 133.917C109.154 133.917 109.537 133.998 109.893 134.159C110.248 134.313 110.555 134.527 110.813 134.802C111.08 135.076 111.282 135.403 111.419 135.783C111.565 136.154 111.633 136.562 111.625 137.007L111.613 137.54H106.416L106.137 136.546H110.535L110.353 136.752V136.461C110.329 136.195 110.24 135.957 110.087 135.747C109.933 135.537 109.739 135.371 109.505 135.25C109.271 135.129 109.016 135.068 108.742 135.068C108.306 135.068 107.938 135.153 107.639 135.323C107.34 135.484 107.114 135.726 106.961 136.049C106.807 136.364 106.731 136.756 106.731 137.225C106.731 137.669 106.823 138.057 107.009 138.388C107.195 138.711 107.458 138.961 107.797 139.139C108.136 139.317 108.528 139.405 108.972 139.405C109.287 139.405 109.578 139.353 109.844 139.248C110.119 139.143 110.414 138.953 110.729 138.678L111.359 139.563C111.165 139.757 110.927 139.926 110.644 140.072C110.369 140.217 110.074 140.334 109.759 140.423C109.453 140.504 109.15 140.544 108.851 140.544ZM113.49 140.423V131.458H114.738V140.423H113.49ZM124.171 140.544C123.646 140.544 123.166 140.48 122.73 140.35C122.302 140.221 121.918 140.031 121.579 139.781C121.248 139.531 120.949 139.228 120.682 138.872L121.821 137.576C122.217 138.125 122.608 138.501 122.996 138.703C123.392 138.897 123.82 138.993 124.28 138.993C124.531 138.993 124.753 138.961 124.947 138.897C125.149 138.824 125.306 138.723 125.419 138.594C125.532 138.464 125.589 138.311 125.589 138.133C125.589 138.004 125.561 137.887 125.504 137.782C125.448 137.669 125.367 137.572 125.262 137.491C125.157 137.402 125.032 137.326 124.886 137.261C124.741 137.188 124.579 137.128 124.402 137.079C124.224 137.023 124.03 136.978 123.82 136.946C123.368 136.841 122.972 136.716 122.633 136.57C122.293 136.417 122.011 136.231 121.785 136.013C121.558 135.787 121.389 135.533 121.276 135.25C121.171 134.967 121.118 134.648 121.118 134.293C121.118 133.929 121.199 133.594 121.361 133.287C121.522 132.972 121.744 132.702 122.027 132.475C122.318 132.249 122.649 132.076 123.02 131.954C123.4 131.833 123.8 131.773 124.22 131.773C124.737 131.773 125.189 131.833 125.577 131.954C125.964 132.068 126.3 132.233 126.582 132.451C126.873 132.669 127.115 132.936 127.309 133.251L126.158 134.365C125.989 134.139 125.803 133.949 125.601 133.796C125.407 133.643 125.193 133.529 124.959 133.457C124.733 133.376 124.498 133.336 124.256 133.336C123.99 133.336 123.759 133.372 123.566 133.445C123.372 133.509 123.218 133.606 123.105 133.735C123 133.865 122.948 134.022 122.948 134.208C122.948 134.353 122.984 134.483 123.057 134.596C123.129 134.709 123.234 134.81 123.372 134.898C123.509 134.979 123.675 135.052 123.868 135.117C124.062 135.181 124.276 135.238 124.511 135.286C124.955 135.375 125.355 135.492 125.71 135.638C126.065 135.783 126.368 135.961 126.619 136.171C126.877 136.373 127.075 136.615 127.212 136.898C127.35 137.172 127.418 137.483 127.418 137.83C127.418 138.404 127.281 138.893 127.006 139.296C126.732 139.7 126.352 140.011 125.868 140.229C125.383 140.439 124.818 140.544 124.171 140.544ZM132.093 140.544C131.479 140.544 130.93 140.399 130.445 140.108C129.961 139.817 129.577 139.422 129.294 138.921C129.02 138.42 128.883 137.851 128.883 137.213C128.883 136.583 129.02 136.017 129.294 135.516C129.577 135.008 129.961 134.608 130.445 134.317C130.93 134.026 131.479 133.881 132.093 133.881C132.667 133.881 133.192 133.986 133.668 134.196C134.145 134.406 134.516 134.697 134.783 135.068L133.838 136.207C133.725 136.053 133.583 135.916 133.414 135.795C133.244 135.666 133.058 135.565 132.856 135.492C132.663 135.419 132.461 135.383 132.251 135.383C131.919 135.383 131.625 135.464 131.366 135.625C131.116 135.779 130.918 135.993 130.773 136.268C130.627 136.542 130.554 136.857 130.554 137.213C130.554 137.56 130.627 137.871 130.773 138.145C130.926 138.412 131.132 138.63 131.39 138.8C131.649 138.961 131.94 139.042 132.263 139.042C132.473 139.042 132.671 139.014 132.856 138.957C133.042 138.893 133.216 138.8 133.377 138.678C133.547 138.557 133.7 138.412 133.838 138.242L134.771 139.381C134.496 139.728 134.116 140.011 133.632 140.229C133.147 140.439 132.634 140.544 132.093 140.544ZM138.756 140.544C138.223 140.544 137.743 140.399 137.315 140.108C136.887 139.817 136.547 139.422 136.297 138.921C136.047 138.42 135.921 137.847 135.921 137.2C135.921 136.554 136.047 135.985 136.297 135.492C136.556 134.991 136.903 134.6 137.339 134.317C137.775 134.026 138.272 133.881 138.829 133.881C139.144 133.881 139.431 133.929 139.689 134.026C139.956 134.115 140.186 134.24 140.38 134.402C140.582 134.563 140.751 134.749 140.889 134.959C141.026 135.169 141.123 135.395 141.18 135.638L140.816 135.577V134.014H142.524V140.423H140.792V138.884L141.18 138.848C141.115 139.074 141.01 139.288 140.865 139.49C140.719 139.692 140.537 139.874 140.319 140.035C140.109 140.189 139.871 140.314 139.605 140.411C139.338 140.5 139.055 140.544 138.756 140.544ZM139.229 139.054C139.552 139.054 139.835 138.977 140.077 138.824C140.319 138.67 140.505 138.456 140.634 138.182C140.772 137.899 140.84 137.572 140.84 137.2C140.84 136.837 140.772 136.518 140.634 136.243C140.505 135.969 140.319 135.755 140.077 135.601C139.835 135.44 139.552 135.359 139.229 135.359C138.914 135.359 138.635 135.44 138.393 135.601C138.159 135.755 137.973 135.969 137.836 136.243C137.698 136.518 137.63 136.837 137.63 137.2C137.63 137.572 137.698 137.899 137.836 138.182C137.973 138.456 138.159 138.67 138.393 138.824C138.635 138.977 138.914 139.054 139.229 139.054ZM144.746 140.423V131.458H146.466V140.423H144.746ZM151.62 140.544C150.925 140.544 150.319 140.403 149.802 140.12C149.285 139.838 148.881 139.45 148.591 138.957C148.3 138.464 148.155 137.899 148.155 137.261C148.155 136.768 148.235 136.316 148.397 135.904C148.558 135.492 148.785 135.137 149.075 134.838C149.366 134.531 149.709 134.297 150.105 134.135C150.509 133.966 150.945 133.881 151.414 133.881C151.85 133.881 152.254 133.962 152.625 134.123C152.997 134.277 153.316 134.499 153.582 134.789C153.857 135.072 154.067 135.407 154.212 135.795C154.358 136.183 154.422 136.607 154.406 137.067L154.394 137.6H149.245L148.966 136.546H152.976L152.783 136.764V136.498C152.766 136.28 152.694 136.082 152.565 135.904C152.443 135.726 152.286 135.589 152.092 135.492C151.898 135.395 151.68 135.347 151.438 135.347C151.082 135.347 150.78 135.415 150.529 135.553C150.287 135.69 150.101 135.892 149.972 136.158C149.843 136.425 149.778 136.748 149.778 137.128C149.778 137.515 149.859 137.851 150.02 138.133C150.19 138.416 150.424 138.638 150.723 138.8C151.03 138.953 151.389 139.03 151.801 139.03C152.084 139.03 152.342 138.985 152.577 138.897C152.811 138.808 153.061 138.654 153.328 138.436L154.152 139.587C153.917 139.797 153.659 139.975 153.376 140.12C153.094 140.258 152.803 140.363 152.504 140.435C152.205 140.508 151.91 140.544 151.62 140.544ZM160.604 140.423V131.942H164.202C164.703 131.942 165.155 132.063 165.559 132.306C165.971 132.54 166.294 132.863 166.528 133.275C166.771 133.687 166.892 134.151 166.892 134.668C166.892 135.193 166.771 135.666 166.528 136.086C166.294 136.506 165.971 136.841 165.559 137.091C165.155 137.334 164.703 137.455 164.202 137.455H162.421V140.423H160.604ZM162.397 135.819H163.996C164.19 135.819 164.364 135.771 164.517 135.674C164.671 135.569 164.792 135.432 164.881 135.262C164.978 135.092 165.026 134.898 165.026 134.68C165.026 134.462 164.978 134.273 164.881 134.111C164.792 133.941 164.671 133.812 164.517 133.723C164.364 133.626 164.19 133.578 163.996 133.578H162.397V135.819ZM168.762 140.423V134.014H170.421L170.482 136.074L170.191 135.65C170.288 135.318 170.446 135.02 170.664 134.753C170.882 134.478 171.136 134.264 171.427 134.111C171.726 133.958 172.037 133.881 172.36 133.881C172.497 133.881 172.63 133.893 172.76 133.917C172.889 133.941 172.998 133.97 173.087 134.002L172.626 135.892C172.529 135.843 172.412 135.803 172.275 135.771C172.138 135.73 171.996 135.71 171.851 135.71C171.657 135.71 171.475 135.747 171.306 135.819C171.144 135.884 171.003 135.981 170.882 136.11C170.761 136.231 170.664 136.377 170.591 136.546C170.526 136.716 170.494 136.902 170.494 137.103V140.423H168.762ZM177.267 140.544C176.613 140.544 176.027 140.403 175.51 140.12C175.001 139.829 174.597 139.434 174.298 138.933C174.008 138.432 173.862 137.859 173.862 137.213C173.862 136.566 174.008 135.997 174.298 135.504C174.597 135.003 175.001 134.608 175.51 134.317C176.027 134.026 176.613 133.881 177.267 133.881C177.913 133.881 178.49 134.026 178.999 134.317C179.516 134.608 179.92 135.003 180.211 135.504C180.502 135.997 180.647 136.566 180.647 137.213C180.647 137.859 180.502 138.432 180.211 138.933C179.92 139.434 179.516 139.829 178.999 140.12C178.49 140.403 177.913 140.544 177.267 140.544ZM177.267 139.042C177.582 139.042 177.864 138.965 178.115 138.812C178.365 138.65 178.559 138.432 178.696 138.158C178.842 137.875 178.914 137.56 178.914 137.213C178.914 136.857 178.842 136.542 178.696 136.268C178.559 135.985 178.365 135.767 178.115 135.613C177.864 135.452 177.582 135.371 177.267 135.371C176.944 135.371 176.657 135.452 176.407 135.613C176.156 135.775 175.958 135.993 175.813 136.268C175.668 136.542 175.599 136.857 175.607 137.213C175.599 137.56 175.668 137.875 175.813 138.158C175.958 138.432 176.156 138.65 176.407 138.812C176.657 138.965 176.944 139.042 177.267 139.042ZM183.044 140.423V132.391H184.764V140.423H183.044ZM181.844 135.553V134.014H186.073V135.553H181.844ZM190.66 140.544C189.966 140.544 189.36 140.403 188.843 140.12C188.326 139.838 187.922 139.45 187.632 138.957C187.341 138.464 187.195 137.899 187.195 137.261C187.195 136.768 187.276 136.316 187.438 135.904C187.599 135.492 187.825 135.137 188.116 134.838C188.407 134.531 188.75 134.297 189.146 134.135C189.55 133.966 189.986 133.881 190.454 133.881C190.891 133.881 191.294 133.962 191.666 134.123C192.038 134.277 192.357 134.499 192.623 134.789C192.898 135.072 193.108 135.407 193.253 135.795C193.398 136.183 193.463 136.607 193.447 137.067L193.435 137.6H188.286L188.007 136.546H192.017L191.823 136.764V136.498C191.807 136.28 191.735 136.082 191.605 135.904C191.484 135.726 191.327 135.589 191.133 135.492C190.939 135.395 190.721 135.347 190.479 135.347C190.123 135.347 189.82 135.415 189.57 135.553C189.328 135.69 189.142 135.892 189.013 136.158C188.883 136.425 188.819 136.748 188.819 137.128C188.819 137.515 188.9 137.851 189.061 138.133C189.231 138.416 189.465 138.638 189.764 138.8C190.071 138.953 190.43 139.03 190.842 139.03C191.125 139.03 191.383 138.985 191.618 138.897C191.852 138.808 192.102 138.654 192.369 138.436L193.193 139.587C192.958 139.797 192.7 139.975 192.417 140.12C192.134 140.258 191.844 140.363 191.545 140.435C191.246 140.508 190.951 140.544 190.66 140.544ZM197.989 140.544C197.376 140.544 196.826 140.399 196.342 140.108C195.857 139.817 195.473 139.422 195.191 138.921C194.916 138.42 194.779 137.851 194.779 137.213C194.779 136.583 194.916 136.017 195.191 135.516C195.473 135.008 195.857 134.608 196.342 134.317C196.826 134.026 197.376 133.881 197.989 133.881C198.563 133.881 199.088 133.986 199.564 134.196C200.041 134.406 200.413 134.697 200.679 135.068L199.734 136.207C199.621 136.053 199.48 135.916 199.31 135.795C199.14 135.666 198.955 135.565 198.753 135.492C198.559 135.419 198.357 135.383 198.147 135.383C197.816 135.383 197.521 135.464 197.263 135.625C197.012 135.779 196.814 135.993 196.669 136.268C196.523 136.542 196.451 136.857 196.451 137.213C196.451 137.56 196.523 137.871 196.669 138.145C196.822 138.412 197.028 138.63 197.287 138.8C197.545 138.961 197.836 139.042 198.159 139.042C198.369 139.042 198.567 139.014 198.753 138.957C198.938 138.893 199.112 138.8 199.274 138.678C199.443 138.557 199.597 138.412 199.734 138.242L200.667 139.381C200.392 139.728 200.013 140.011 199.528 140.229C199.043 140.439 198.531 140.544 197.989 140.544ZM202.872 140.423V132.391H204.592V140.423H202.872ZM201.672 135.553V134.014H205.901V135.553H201.672ZM207.652 140.423V134.014H209.372V140.423H207.652ZM208.5 132.693C208.169 132.693 207.91 132.613 207.725 132.451C207.539 132.29 207.446 132.059 207.446 131.761C207.446 131.486 207.539 131.264 207.725 131.094C207.919 130.917 208.177 130.828 208.5 130.828C208.831 130.828 209.09 130.913 209.275 131.082C209.461 131.244 209.554 131.47 209.554 131.761C209.554 132.043 209.457 132.269 209.263 132.439C209.078 132.609 208.823 132.693 208.5 132.693ZM214.675 140.544C214.021 140.544 213.435 140.403 212.918 140.12C212.409 139.829 212.005 139.434 211.707 138.933C211.416 138.432 211.27 137.859 211.27 137.213C211.27 136.566 211.416 135.997 211.707 135.504C212.005 135.003 212.409 134.608 212.918 134.317C213.435 134.026 214.021 133.881 214.675 133.881C215.321 133.881 215.899 134.026 216.407 134.317C216.924 134.608 217.328 135.003 217.619 135.504C217.91 135.997 218.055 136.566 218.055 137.213C218.055 137.859 217.91 138.432 217.619 138.933C217.328 139.434 216.924 139.829 216.407 140.12C215.899 140.403 215.321 140.544 214.675 140.544ZM214.675 139.042C214.99 139.042 215.273 138.965 215.523 138.812C215.773 138.65 215.967 138.432 216.105 138.158C216.25 137.875 216.323 137.56 216.323 137.213C216.323 136.857 216.25 136.542 216.105 136.268C215.967 135.985 215.773 135.767 215.523 135.613C215.273 135.452 214.99 135.371 214.675 135.371C214.352 135.371 214.065 135.452 213.815 135.613C213.564 135.775 213.366 135.993 213.221 136.268C213.076 136.542 213.007 136.857 213.015 137.213C213.007 137.56 213.076 137.875 213.221 138.158C213.366 138.432 213.564 138.65 213.815 138.812C214.065 138.965 214.352 139.042 214.675 139.042ZM219.834 140.423V134.014H221.482L221.53 135.323L221.191 135.468C221.28 135.177 221.437 134.915 221.663 134.68C221.898 134.438 222.176 134.244 222.499 134.099C222.823 133.953 223.162 133.881 223.517 133.881C224.002 133.881 224.406 133.978 224.729 134.172C225.06 134.365 225.306 134.66 225.468 135.056C225.637 135.444 225.722 135.924 225.722 136.498V140.423H224.002V136.631C224.002 136.34 223.961 136.098 223.881 135.904C223.8 135.71 223.675 135.569 223.505 135.48C223.343 135.383 223.142 135.343 222.899 135.359C222.705 135.359 222.524 135.391 222.354 135.456C222.193 135.512 222.051 135.597 221.93 135.71C221.817 135.823 221.724 135.953 221.651 136.098C221.587 136.243 221.554 136.401 221.554 136.57V140.423H220.706C220.521 140.423 220.355 140.423 220.21 140.423C220.064 140.423 219.939 140.423 219.834 140.423Z" fill="white"/>
<path d="M180.225 61.5762C164.838 61.57 157.967 52.1852 156.095 49.0244C155.72 48.39 155.045 48 154.307 48C153.568 48 152.895 48.39 152.518 49.0244C150.646 52.1852 143.775 61.57 128.388 61.5762C127.026 61.5762 125.92 62.682 125.92 64.0446V77.6208C125.92 101.189 146.377 111.74 151.778 114.114C152.579 114.465 153.433 114.647 154.307 114.647C155.18 114.647 156.034 114.465 156.835 114.114C162.236 111.74 182.693 101.189 182.693 77.6208V64.0446C182.693 62.682 181.587 61.5762 180.225 61.5762ZM154.307 81.3234C159.069 81.3234 162.946 84.6446 162.946 88.7286C162.946 92.077 160.339 94.9095 156.775 95.8215V99.8364H151.838V95.8215C148.274 94.9095 145.667 92.077 145.667 88.7286H150.604C150.604 90.043 152.334 91.197 154.307 91.197C156.279 91.197 158.009 90.043 158.009 88.7286C158.009 87.4142 156.279 86.2602 154.307 86.2602C149.544 86.2602 145.667 82.939 145.667 78.855C145.667 75.5066 148.274 72.6741 151.838 71.762V67.7472H156.775V71.762C160.339 72.6741 162.946 75.5066 162.946 78.855H158.009C158.009 77.5406 156.279 76.3866 154.307 76.3866C152.334 76.3866 150.604 77.5406 150.604 78.855C150.604 80.1694 152.334 81.3234 154.307 81.3234Z" fill="white"/>
<path d="M47.8584 269.589L49.7307 268.802L49.5323 268.33L51.4045 267.543L51.6029 268.014L53.4752 267.227L53.2768 266.755L55.149 265.968L55.3475 266.44L57.2197 265.652L57.0213 265.18L58.8935 264.393L59.092 264.865L60.9642 264.077L60.7658 263.606L62.638 262.818L62.8365 263.29L64.7087 262.503L64.5103 262.031L66.3825 261.243L66.581 261.715L68.4532 260.928L68.2548 260.456L70.127 259.669L70.3255 260.14L72.1977 259.353L71.9993 258.881L73.8715 258.094L74.07 258.566L75.9422 257.778L75.7438 257.306L77.6161 256.519L77.8145 256.991L79.6867 256.203L79.4883 255.732L81.3606 254.944L81.559 255.416L83.4312 254.629L83.2328 254.157L85.1051 253.369L85.3035 253.841L87.1757 253.054L86.9773 252.582L88.8496 251.795L89.048 252.266L90.9202 251.479L90.7218 251.007L92.5941 250.22L92.7925 250.692L94.6647 249.904L94.4663 249.432L96.3386 248.645L96.537 249.117L98.4093 248.329L98.2108 247.858L100.083 247.07L100.282 247.542L102.154 246.755L101.955 246.283L103.828 245.495L104.026 245.967L105.898 245.18L105.7 244.708L107.572 243.921L107.771 244.392L109.643 243.605L109.444 243.133L111.317 242.346L111.515 242.818L113.387 242.03L113.189 241.558L115.061 240.771L115.26 241.243L117.132 240.455L116.933 239.984L118.806 239.196L119.004 239.668L120.876 238.881L120.678 238.409L122.55 237.621L122.749 238.093L124.621 237.306L124.422 236.834L126.295 236.047L126.493 236.518L128.365 235.731L128.167 235.259L130.039 234.472L130.238 234.944L132.11 234.156L131.911 233.684L133.784 232.897L133.982 233.369L135.854 232.581L135.656 232.11L137.528 231.322L137.727 231.794L139.599 231.007L139.4 230.535L141.273 229.747L141.471 230.219L143.343 229.432L143.145 228.96L145.017 228.173L145.216 228.644L147.088 227.857L146.889 227.385L148.762 226.598L148.96 227.07L150.832 226.282L150.634 225.81L152.506 225.023L152.705 225.495L154.577 224.707L154.378 224.236L155.314 223.842L155.514 223.758L155.713 223.843L156.64 224.236L156.44 224.707L158.294 225.495L158.494 225.024L160.348 225.811L160.147 226.282L162.001 227.07L162.201 226.599L164.055 227.386L163.855 227.857L165.709 228.644L165.909 228.173L167.763 228.961L167.563 229.432L169.416 230.219L169.617 229.748L171.47 230.536L171.27 231.007L173.124 231.794L173.324 231.323L175.178 232.11L174.978 232.581L176.832 233.369L177.032 232.898L178.886 233.685L178.685 234.156L180.539 234.944L180.739 234.473L182.593 235.26L182.393 235.731L184.247 236.518L184.447 236.047L186.301 236.835L186.101 237.306L187.954 238.093L188.155 237.622L190.008 238.41L189.808 238.881L191.662 239.668L191.862 239.197L193.716 239.984L193.516 240.455L195.37 241.243L195.57 240.772L197.424 241.559L197.223 242.03L199.077 242.818L199.277 242.347L201.131 243.134L200.931 243.605L202.785 244.392L202.985 243.921L204.839 244.709L204.639 245.18L206.493 245.967L206.693 245.496L208.546 246.284L208.346 246.755L210.2 247.542L210.4 247.071L212.254 247.858L212.054 248.329L213.908 249.117L214.108 248.646L215.962 249.433L215.762 249.904L217.615 250.692L217.815 250.221L219.669 251.008L219.469 251.479L221.323 252.266L221.523 251.795L223.377 252.583L223.177 253.054L225.031 253.841L225.231 253.37L227.084 254.158L226.884 254.629L228.738 255.416L228.938 254.945L230.792 255.732L230.592 256.203L232.446 256.991L232.646 256.52L234.5 257.307L234.3 257.778L236.153 258.566L236.354 258.095L238.207 258.882L238.007 259.353L239.861 260.14L240.061 259.669L241.915 260.457L241.715 260.928L243.569 261.715L243.769 261.244L245.623 262.031L245.422 262.503L247.276 263.29L247.476 262.819L249.33 263.606L249.13 264.077L250.984 264.865L251.184 264.394L253.038 265.181L252.838 265.652L254.691 266.44L254.892 265.969L256.745 266.756L256.545 267.227L258.399 268.014L258.599 267.543L260.453 268.331L260.253 268.802L262.107 269.589L262.307 269.118L262.522 269.209V268.956H263.034V266.901H262.522V264.847H263.034V262.792H262.522V260.738H263.034V258.683H262.522V256.629H263.034V254.575H262.522V252.52H263.034V250.466H262.522V248.411H263.034V246.357H262.522V244.302H263.034V242.248H262.522V240.193H263.034V238.139H262.522V236.085H263.034V234.03H262.522V231.976H263.034V229.921H262.522V227.867H263.034V225.812H262.522V223.758H263.034V221.703H262.522V219.649H263.034V217.595H262.522V215.54H263.034V213.486H262.522V211.431H263.034V209.377H262.522V207.322H263.034V205.268H262.522V203.213H263.034V201.159H262.522V199.105H263.034V197.05H262.522V194.996H263.034V192.941H262.522V190.887H263.034V188.832H262.522V186.778H263.034V184.723H262.522V182.669H263.034V180.615H262.522V178.56H263.034V176.506H262.522V174.451H263.034V172.397H262.522V170.342H263.034V168.288H262.522V166.233H263.034V164.179H262.522V162.125H263.034V160.07H262.522V158.016H263.034V155.961H262.522V153.907H263.034V151.852H262.522V149.798H263.034V147.743H262.522V145.689H263.034V143.635H262.522V141.58H263.034V139.526H262.522V137.471H263.034V135.417H262.522V133.362H263.034V131.308H262.522V129.253H263.034V127.199H262.522V125.145H263.034V123.09H262.522V121.036H263.034V118.981H262.522V116.927H263.034V114.872H262.522V112.818H263.034V110.764H262.522V108.709H263.034V106.655H262.522V104.6H263.034V102.546H262.522V100.491H263.034V98.4368H262.522V96.3824H263.034V94.328H262.522V92.2735H263.034V90.2191H262.522V88.1646H263.034V86.1102H262.522V84.0557H263.034V82.0013H262.522V79.9468H263.034V77.8924H262.522V75.838H263.034V73.7835H262.522V71.7291H263.034V69.6746H262.522V67.6202H263.034V65.5658H262.522V63.5113H263.034V61.4569H262.522V59.4024H263.034V57.348H262.522V55.2935H263.034V53.2391H262.522V51.1847H263.034V49.1302H262.522V47.0758H263.034V45.0213H262.522V42.9669H263.034V40.9124H262.522V38.858H263.034V36.8035H262.522V34.7491H263.034V32.6947H262.522V30.6402H263.034V28.5858H262.522V27.5585V27.5574C262.522 27.2437 262.521 26.9263 262.517 26.6056L263.029 26.5996C263.021 25.9699 263.006 25.3291 262.987 24.6815L262.475 24.6966C262.457 24.0644 262.434 23.4253 262.411 22.782L262.923 22.7638C262.921 22.7129 262.919 22.662 262.917 22.6111C262.896 22.0238 262.875 21.4345 262.857 20.8462L262.345 20.8623C262.325 20.219 262.308 19.5757 262.297 18.9368L262.809 18.9283C262.798 18.2822 262.794 17.6413 262.8 17.0096L262.288 17.0046C262.295 16.3483 262.312 15.7001 262.345 15.0651L262.856 15.0913C262.889 14.4362 262.939 13.7967 263.009 13.1777L262.501 13.1199C262.577 12.4499 262.678 11.8001 262.808 11.1774L263.309 11.2824C263.446 10.6314 263.615 10.0143 263.825 9.43864L263.344 9.26342C263.583 8.60712 263.875 7.99438 264.231 7.43879L264.662 7.71468C265.014 7.16472 265.429 6.68107 265.917 6.27533L265.59 5.88166C265.816 5.69328 266.057 5.52051 266.313 5.36428H265.795V4.85245H263.954V5.36428H263.034H262.014V4.85245H259.975V5.36428H257.937V4.85245H255.898V5.36428H253.859V4.85245H251.82V5.36428H249.781V4.85245H247.743V5.36428H245.704V4.85245H243.665V5.36428H241.626V4.85245H239.588V5.36428H237.549V4.85245H235.51V5.36428H233.471V4.85245H231.432V5.36428H229.394V4.85245H227.355V5.36428H225.316V4.85245H223.277V5.36428H221.238V4.85245H219.2V5.36428H217.161V4.85245H215.122V5.36428H213.083V4.85245H211.045V5.36428H209.006V4.85245H206.967V5.36428H204.928V4.85245H202.889V5.36428H200.851V4.85245H198.812V5.36428H196.773V4.85245H194.734V5.36428H192.695V4.85245H190.657V5.36428H188.618V4.85245H186.579V5.36428H184.54V4.85245H182.502V5.36428H180.463V4.85245H178.424V5.36428H176.385V4.85245H174.346V5.36428H172.308V4.85245H170.269V5.36428H168.23V4.85245H166.191V5.36428H164.152V4.85245H162.114V5.36428H160.075V4.85245H158.036V5.36428H155.997V4.85245H153.959V5.36428H151.92V4.85245H149.881V5.36428H147.842V4.85245H145.803V5.36428H143.765V4.85245H141.726V5.36428H139.687V4.85245H137.648V5.36428H135.609V4.85245H133.571V5.36428H131.532V4.85245H129.493V5.36428H127.454V4.85245H125.415V5.36428H123.377V4.85245H121.338V5.36428H119.299V4.85245H117.26V5.36428H115.222V4.85245H113.183V5.36428H111.144V4.85245H109.105V5.36428H107.066V4.85245H105.028V5.36428H102.989V4.85245H100.95V5.36428H98.9112V4.85245H96.8724V5.36428H94.8337V4.85245H92.7949V5.36428H90.7561V4.85245H88.7173V5.36428H86.6785V4.85245H84.6397V5.36428H82.6009V4.85245H80.5621V5.36428H78.5233V4.85245H76.4846V5.36428H74.4458V4.85245H72.407V5.36428H70.3682V4.85245H68.3294V5.36428H66.2906V4.85245H64.2518V5.36428H62.213V4.85245H60.1743V5.36428H58.1355V4.85245H56.0967V5.36428H54.0579V4.85245H52.0191V5.36428H49.9803V4.85245H47.9415V5.36428H46.9223H45.682V4.85245H43.2014V5.36428H41.2669C41.5085 5.49781 41.741 5.64333 41.9646 5.80024L41.6706 6.2192C42.2082 6.59651 42.6909 7.04418 43.1242 7.55237L43.5136 7.22029C43.9547 7.73766 44.3444 8.31066 44.689 8.92808L44.2421 9.17753C44.554 9.73627 44.8296 10.3371 45.0732 10.9726L45.5511 10.7894C45.7873 11.4057 45.9934 12.0512 46.1733 12.719L45.6791 12.8521C45.8467 13.4743 45.9917 14.1187 46.1172 14.7801L46.6201 14.6847C46.743 15.3322 46.8472 15.9945 46.9357 16.6665L46.4283 16.7333C46.5134 17.3798 46.5839 18.0367 46.6423 18.6996L47.1521 18.6547C47.2102 19.3142 47.2563 19.9789 47.293 20.6444L46.7819 20.6725C46.8182 21.3309 46.8452 21.991 46.8652 22.6486L47.3768 22.633C47.3971 23.2996 47.4103 23.9632 47.4188 24.6192L46.9071 24.6259C46.9158 25.2935 46.9196 25.9541 46.9212 26.6031L47.4331 26.6018C47.4339 26.9351 47.4342 27.2651 47.4342 27.5913V28.6184H46.9223V30.6726H47.4342V32.7267H46.9223V34.7809H47.4342V36.8351H46.9223V38.8892H47.4342V40.9434H46.9223V42.9976H47.4342V45.0517H46.9223V47.1059H47.4342V49.1601H46.9223V51.2142H47.4342V53.2684H46.9223V55.3226H47.4342V57.3767H46.9223V59.4309H47.4342V61.4851H46.9223V63.5392H47.4342V65.5934H46.9223V67.6475H47.4342V69.7017H46.9223V71.7559H47.4342V73.81H46.9223V75.8642H47.4342V77.9184H46.9223V79.9725H47.4342V82.0267H46.9223V84.0809H47.4342V86.135H46.9223V88.1892H47.4342V90.2434H46.9223V92.2975H47.4342V94.3517H46.9223V96.4059H47.4342V98.46H46.9223V100.514H47.4342V102.568H46.9223V104.623H47.4342V106.677H46.9223V108.731H47.4342V110.785H46.9223V112.839H47.4342V114.893H46.9223V116.948H47.4342V119.002H46.9223V121.056H47.4342V123.11H46.9223V125.164H47.4342V127.218H46.9223V129.273H47.4342V131.327H46.9223V133.381H47.4342V135.435H46.9223V137.489H47.4342V139.543H46.9223V141.598H47.4342V143.652H46.9223V145.706H47.4342V147.76H46.9223V149.814H47.4342V151.868H46.9223V153.923H47.4342V155.977H46.9223V158.031H47.4342V160.085H46.9223V162.139H47.4342V164.193H46.9223V166.248H47.4342V168.302H46.9223V170.356H47.4342V172.41H46.9223V174.464H47.4342V176.518H46.9223V178.573H47.4342V180.627H46.9223V182.681H47.4342V184.735H46.9223V186.789H47.4342V188.843H46.9223V190.898H47.4342V192.952H46.9223V195.006H47.4342V197.06H46.9223V199.114H47.4342V201.168H46.9223V203.223H47.4342V205.277H46.9223V207.331H47.4342V209.385H46.9223V211.439H47.4342V213.493H46.9223V215.548H47.4342V217.602H46.9223V219.656H47.4342V221.71H46.9223V223.764H47.4342V225.818H46.9223V227.873H47.4342V229.927H46.9223V231.981H47.4342V234.035H46.9223V236.089H47.4342V238.144H46.9223V240.198H47.4342V242.252H46.9223V244.306H47.4342V246.36H46.9223V248.414H47.4342V250.469H46.9223V252.523H47.4342V254.577H46.9223V256.631H47.4342V258.685H46.9223V260.739H47.4342V262.794H46.9223V264.848H47.4342V266.902H46.9223V268.956H47.4342V269.212L47.66 269.117L47.8584 269.589ZM40.0833 4.85245L39.9189 5.31942C39.3989 5.13632 38.8403 5.00426 38.2403 4.92825V4.85245H40.0833ZM40.7209 5.09031C40.5303 5.00398 40.3345 4.9246 40.1334 4.85245L40.7209 4.85245V5.09031ZM267.636 5.29494V4.85245H269.431L269.436 4.89814C268.773 4.96352 268.175 5.09804 267.636 5.29494Z" stroke="white" stroke-opacity="0.4" stroke-width="1.02367" stroke-dasharray="2.05 2.05"/>
<defs>
<linearGradient id="paint0_linear_2_853" x1="290.377" y1="22.3508" x2="290.377" y2="-0.663186" gradientUnits="userSpaceOnUse">
<stop stop-color="#101117"/>
<stop offset="0.4068" stop-color="#0C0D12"/>
<stop offset="0.9037" stop-color="#020203"/>
<stop offset="0.9768"/>
</linearGradient>
<linearGradient id="paint1_linear_2_853" x1="19.6065" y1="22.352" x2="19.6065" y2="-0.661965" gradientUnits="userSpaceOnUse">
<stop stop-color="#101117"/>
<stop offset="0.4068" stop-color="#0C0D12"/>
<stop offset="0.9037" stop-color="#020203"/>
<stop offset="0.9768"/>
</linearGradient>
<linearGradient id="paint2_linear_2_853" x1="154.387" y1="-1.56923" x2="154.387" y2="278.248" gradientUnits="userSpaceOnUse">
<stop offset="0.00534759" stop-color="#5B5B66"/>
<stop offset="0.0745" stop-color="#383A4F"/>
<stop offset="1" stop-color="#171821"/>
</linearGradient>
</defs>
</svg>
