<svg width="18" height="11" viewBox="0 0 18 11" fill="none" xmlns="http://www.w3.org/2000/svg">
<path fill-rule="evenodd" clip-rule="evenodd" d="M0 5.46533C0 5.3043 0.0639687 5.14986 0.177837 5.036C0.291704 4.92213 0.446142 4.85816 0.607174 4.85816H14.928L11.1064 1.03782C11.05 0.981367 11.0052 0.914349 10.9746 0.84059C10.9441 0.766831 10.9284 0.687777 10.9284 0.607941C10.9284 0.528105 10.9441 0.449051 10.9746 0.375292C11.0052 0.301533 11.05 0.234514 11.1064 0.178062C11.1629 0.121609 11.2299 0.0768287 11.3037 0.0462768C11.3774 0.0157249 11.4565 0 11.5363 0C11.6161 0 11.6952 0.0157249 11.769 0.0462768C11.8427 0.0768287 11.9097 0.121609 11.9662 0.178062L16.8236 5.03545C16.8801 5.09185 16.925 5.15886 16.9556 5.23262C16.9862 5.30639 17.002 5.38547 17.002 5.46533C17.002 5.5452 16.9862 5.62427 16.9556 5.69804C16.925 5.77181 16.8801 5.83881 16.8236 5.89521L11.9662 10.7526C11.9097 10.8091 11.8427 10.8538 11.769 10.8844C11.6952 10.9149 11.6161 10.9307 11.5363 10.9307C11.4565 10.9307 11.3774 10.9149 11.3037 10.8844C11.2299 10.8538 11.1629 10.8091 11.1064 10.7526C11.05 10.6961 11.0052 10.6291 10.9746 10.5554C10.9441 10.4816 10.9284 10.4026 10.9284 10.3227C10.9284 10.2429 10.9441 10.1638 10.9746 10.0901C11.0052 10.0163 11.05 9.9493 11.1064 9.89284L14.928 6.0725H0.607174C0.446142 6.0725 0.291704 6.00854 0.177837 5.89467C0.0639687 5.7808 0 5.62636 0 5.46533Z" fill="white"/>
</svg>
