<svg width="72" height="72" viewBox="0 0 72 72" fill="none" xmlns="http://www.w3.org/2000/svg">
<rect x="0.199219" y="0.333984" width="71.3878" height="71.3878" rx="35.6939" fill="#E1EFFF"/>
<g clip-path="url(#clip0_2_2782)">
<path d="M57.2265 42.6911C58.1783 41.5806 58.337 40.3908 57.7817 39.1217C57.2265 37.8526 56.116 37.2181 54.6883 37.1387C54.371 37.1387 54.0537 37.1387 53.7364 37.1387H53.5778V32.9348C53.5778 29.524 53.5778 26.1133 53.5778 22.7818C53.5778 20.7989 52.15 19.3711 50.2463 19.3711C42.8696 19.3711 35.4929 19.3711 28.1161 19.3711C26.2124 19.3711 24.7847 20.7989 24.7847 22.7818C24.7847 23.575 24.7847 24.2889 24.7847 25.0821V26.8272H22.0878H16.4561C14.3145 26.8272 12.8867 28.1756 12.8867 30.3172C12.8867 35.0764 12.8867 39.9149 12.8867 44.7534C12.8867 46.8951 14.3145 48.2435 16.4561 48.2435H17.4079C17.4873 49.1953 17.3286 49.9092 16.8527 51.0197C16.6147 51.4956 16.6147 51.8922 16.8527 52.2095C17.0113 52.5268 17.3286 52.6854 17.8839 52.6854C20.1841 52.6854 22.2465 50.9404 22.8017 48.7194C22.8017 48.5608 22.881 48.4021 22.881 48.2435H38.3484C38.0311 49.2747 38.1104 50.3851 38.6657 51.1783C39.3002 52.1302 40.3314 52.6061 41.6005 52.6061C42.473 52.6061 43.2662 52.6061 44.1387 52.6061H45.0906H47.9461C48.8979 52.6061 49.8498 52.6061 50.8016 52.6061C52.0707 52.6061 53.4191 52.6061 54.6883 52.6061C55.7194 52.6061 56.6713 52.1302 57.3058 51.337C57.9404 50.5438 58.099 49.5919 57.9404 48.5608C57.861 48.0849 57.6231 47.6883 57.3851 47.371C57.3058 47.2917 57.3058 47.133 57.2265 47.0537C58.337 45.7846 58.337 44.1189 57.2265 42.6911ZM38.3484 46.0225C38.2691 46.0225 38.2691 46.0225 38.1897 46.0225H22.1671C21.7705 46.0225 21.2946 46.0226 21.0567 46.3398C20.8187 46.6571 20.7394 47.0537 20.7394 47.4503C20.7394 48.4815 20.2635 49.4333 19.3909 49.9092C19.4703 49.5126 19.4703 49.116 19.4703 48.7194C19.4703 48.0849 19.4703 47.5296 19.3116 47.0537C19.153 46.1812 18.5184 46.0225 17.9632 46.0225H17.3286C16.932 46.0225 16.5354 46.0225 16.2182 46.0225C15.5043 46.0225 15.0284 45.5466 15.0284 44.8328C15.0284 39.9149 15.0284 34.9971 15.0284 30.0793C15.0284 29.4447 15.5043 28.9688 16.1388 28.8895C18.3598 28.8895 20.6601 28.8895 22.881 28.8895H24.7054V37.1387H24.6261C24.3088 37.1387 23.9915 37.1387 23.6742 37.1387C23.3569 37.1387 23.0397 37.2181 22.8017 37.456C22.5637 37.6146 22.4844 37.9319 22.4844 38.2492C22.4844 38.8838 22.9603 39.2804 23.6742 39.2804H23.7535C23.9122 39.2804 24.0708 39.2804 24.2295 39.2804C24.864 39.201 25.3399 39.2804 25.6572 39.8356C26.1331 40.4702 26.9263 40.7874 27.9575 40.7874C28.5127 40.7874 29.1473 40.7874 29.7025 40.7874H30.1784C30.1784 40.9461 30.2578 41.1047 30.2578 41.3427C30.813 43.5636 32.8753 45.2294 35.1756 45.3087C35.6515 45.3087 36.0481 45.15 36.2861 44.8328C36.524 44.5155 36.4447 44.1189 36.2861 43.643C35.8101 42.7704 35.6515 41.8979 35.7308 40.9461H38.0311C38.1104 41.7393 38.3484 42.1359 38.9036 42.7704C38.1104 43.7223 37.8725 44.8328 38.3484 46.0225ZM54.6089 46.1019C50.2463 46.1019 45.9631 46.1019 41.6005 46.1019C41.2039 46.1019 40.8073 45.9432 40.5693 45.7053C40.3314 45.4673 40.2521 45.2294 40.2521 44.9121C40.2521 44.1982 40.8073 43.8016 41.6005 43.8016H46.2804H48.184H50.0084H54.6089C55.4021 43.8016 55.9574 44.2775 55.9574 44.9121C55.9574 45.2294 55.8781 45.4673 55.6401 45.7053C55.3228 45.9432 55.0055 46.1019 54.6089 46.1019ZM54.5296 41.5806C50.2463 41.5806 45.8838 41.5806 41.6005 41.5806C40.8073 41.5806 40.2521 41.1047 40.2521 40.4702C40.2521 39.7563 40.8073 39.3597 41.6005 39.3597H46.201H48.0254H49.8498H54.4503C55.2435 39.3597 55.7987 39.8356 55.7987 40.4702C55.8781 41.184 55.3228 41.5806 54.5296 41.5806ZM51.4361 37.1387H48.8979C46.5183 37.1387 44.1387 37.1387 41.7591 37.1387C41.7591 37.1387 41.7591 37.1387 41.6798 37.1387C40.3314 37.1387 39.3002 37.6147 38.5863 38.5665C38.5863 38.5665 38.507 38.6458 38.4277 38.6458C37.6345 38.6458 36.8413 38.6458 36.0481 38.6458H35.0169C34.2237 38.6458 33.8272 38.9631 33.6685 39.677C33.4305 40.7081 33.5099 41.7393 33.6685 42.6118C33.034 42.2152 32.4787 41.422 32.3994 40.7081C32.3994 40.4702 32.3994 40.2322 32.3994 39.9149C32.3994 39.5183 32.3201 39.201 32.0821 38.9631C31.8442 38.7251 31.6062 38.6458 31.2096 38.6458C30.8923 38.6458 30.575 38.6458 30.2578 38.6458C30.0198 38.6458 29.7818 38.6458 29.6232 38.6458C29.1473 38.6458 28.6714 38.6458 28.1954 38.6458C27.4022 38.6458 26.9263 38.1699 26.9263 37.3767C26.9263 32.5382 26.9263 27.6997 26.9263 22.8612C26.9263 22.068 27.4022 21.592 28.1954 21.592C35.5722 21.592 42.8696 21.592 50.167 21.592C50.9602 21.592 51.4361 22.068 51.4361 22.7818C51.4361 26.5892 51.4361 30.3965 51.4361 34.2039V37.1387ZM41.5212 48.2435C42.473 48.2435 43.4248 48.2435 44.2974 48.2435C44.9319 48.2435 45.5665 48.2435 46.201 48.2435H54.5296C55.3228 48.2435 55.8781 48.7194 55.8781 49.354C55.8781 49.6713 55.7987 49.9092 55.5608 50.1472C55.3228 50.3851 55.0055 50.5438 54.5296 50.5438C50.167 50.5438 45.8838 50.5438 41.5212 50.5438C41.1246 50.5438 40.728 50.3851 40.49 50.1472C40.2521 49.9092 40.1727 49.6713 40.1727 49.354C40.2521 48.7194 40.8073 48.2435 41.5212 48.2435Z" fill="#2B3384"/>
<path d="M38.9844 27.4612C39.381 27.4612 39.6983 27.4612 40.0949 27.4612C40.4915 27.4612 40.9674 27.4612 41.364 27.4612C42.0779 27.4612 42.5538 26.9853 42.5538 26.3507C42.5538 25.7162 42.0779 25.3196 41.364 25.3196C41.0468 25.3196 40.7295 25.3196 40.4122 25.3196H40.3329C40.3329 25.1609 40.3329 25.0023 40.3329 24.8437C40.2536 24.2884 39.857 23.8125 39.3017 23.8125C38.7465 23.8125 38.2706 24.2091 38.1912 24.8437C38.1912 24.923 38.1912 25.0816 38.1912 25.1609C38.1912 25.3196 38.1912 25.3989 37.9533 25.3989C36.6842 25.7955 35.891 26.9853 35.9703 28.2544C36.0496 29.6028 37.0014 30.7133 38.2706 30.9513C38.5878 31.0306 38.9051 31.0306 39.2224 31.0306H39.4604C40.0156 31.0306 40.3329 31.3479 40.3329 31.8238C40.3329 32.0618 40.2536 32.2204 40.1742 32.379C40.0156 32.5377 39.7776 32.617 39.4604 32.617C39.0638 32.617 38.7465 32.617 38.3499 32.617C37.9533 32.617 37.5567 32.617 37.1601 32.617C36.4462 32.617 35.9703 33.0929 35.9703 33.6482C35.9703 33.9654 36.0496 34.2034 36.2876 34.362C36.5255 34.6 36.8428 34.6793 37.2394 34.7586C37.5567 34.7586 37.874 34.7586 38.1912 34.7586H38.2706C38.2706 34.9173 38.2706 35.0759 38.2706 35.1552C38.3499 35.7898 38.7465 36.1864 39.381 36.1864C39.9363 36.1864 40.4122 35.7105 40.4122 35.1552C40.4122 35.0759 40.4122 34.9966 40.4122 34.838C40.4122 34.6 40.4122 34.6 40.6502 34.5207C41.9986 34.1241 42.7918 32.7756 42.6332 31.3479C42.3952 29.9201 41.2054 28.889 39.7776 28.8096C39.6983 28.8096 39.5397 28.8096 39.4604 28.8096C39.381 28.8096 39.2224 28.8096 39.1431 28.8096C38.5878 28.8096 38.2706 28.4924 38.2706 28.0164C38.0326 27.7785 38.4292 27.4612 38.9844 27.4612Z" fill="#2B3384"/>
<path d="M20.5793 37.1387C19.6274 37.1387 18.7549 37.1387 17.8031 37.1387C17.0892 37.1387 16.6133 37.6146 16.6133 38.2491C16.6133 38.8837 17.0892 39.3596 17.8031 39.3596C17.9617 39.3596 18.1997 39.3596 18.3583 39.3596C18.517 39.3596 18.6756 39.3596 18.7549 39.3596H19.1515H19.5481C19.8654 39.3596 20.1827 39.3596 20.5 39.3596C21.2138 39.3596 21.6897 38.8837 21.6897 38.2491C21.6897 37.6146 21.2138 37.218 20.5793 37.1387Z" fill="#2B3384"/>
</g>
<defs>
<clipPath id="clip0_2_2782">
<rect width="45.2123" height="33.3143" fill="white" transform="translate(12.8906 19.3711)"/>
</clipPath>
</defs>
</svg>
