<svg width="72" height="72" viewBox="0 0 72 72" fill="none" xmlns="http://www.w3.org/2000/svg">
<rect x="0.492188" y="0.333984" width="71.3878" height="71.3878" rx="35.6939" fill="#E1EFFF"/>
<g clip-path="url(#clip0_2_2796)">
<path d="M50.7764 36.8223C51.0936 36.9017 51.4109 36.981 51.6489 37.1396C53.4732 38.0121 54.4251 39.4399 54.4251 41.4229C54.4251 44.5164 54.4251 47.5305 54.4251 50.624C54.4251 50.7826 54.4251 50.9413 54.4251 51.1792C54.663 51.1792 54.8217 51.1792 55.0596 51.1792C55.5355 51.1792 55.7735 51.4172 55.7735 51.8931C55.7735 52.7656 55.7735 53.5588 55.7735 54.4313C55.7735 54.9073 55.5355 55.1452 55.0596 55.1452C54.9803 55.1452 54.8217 55.1452 54.7423 55.1452C42.2891 55.1452 29.8359 55.1452 17.462 55.1452C16.5102 55.0659 16.3516 54.9073 16.3516 54.0347C16.3516 53.3209 16.3516 52.607 16.3516 51.8931C16.3516 51.3379 16.5895 51.0999 17.1448 51.0999C17.5414 51.0999 17.8586 51.0999 18.2552 51.0999C18.1759 50.9413 18.0966 50.8619 18.0966 50.7826C17.938 50.3067 17.7 49.6722 17.7 49.1169C17.7 44.7543 17.7 40.4711 17.7 36.1085C17.7 34.2048 19.1278 32.777 21.0314 32.777C24.6008 32.777 28.0909 32.777 31.6603 32.777C31.8189 32.777 31.9776 32.777 32.1362 32.777C32.1362 30.794 32.1362 28.811 32.1362 26.9074C32.2155 22.7034 34.9124 18.8167 38.8784 17.6269C42.6064 16.5165 46.3344 16.7544 49.5072 19.372C51.8075 21.2757 52.9973 23.8932 53.156 26.9074C53.2353 28.5731 53.156 30.2388 53.156 31.9045C53.156 33.8082 52.4421 35.3153 51.0143 36.5844C50.935 36.6637 50.8557 36.743 50.7764 36.8223ZM30.1532 34.1255C27.1391 34.1255 24.1249 34.1255 21.1108 34.1255C19.7623 34.1255 18.9691 34.9187 18.9691 36.2671C18.9691 40.4711 18.9691 44.7543 18.9691 48.9583C18.9691 50.3067 19.7623 51.0999 21.1108 51.0999C27.1391 51.0999 33.1674 51.0999 39.1163 51.0999C40.4648 51.0999 41.258 50.3067 41.258 48.9583C41.258 44.7543 41.258 40.4711 41.258 36.2671C41.258 34.9187 40.4648 34.1255 39.1163 34.1255C36.1022 34.1255 33.1674 34.1255 30.1532 34.1255ZM36.5781 32.777C36.4195 32.1425 36.1815 31.5872 36.1815 31.032C36.1022 29.4456 36.1022 27.7799 36.1022 26.1935C36.1022 25.7969 36.4195 25.5589 36.8161 25.5589C37.2127 25.5589 37.6093 25.5589 38.0852 25.5589C38.0852 24.9244 38.0852 24.3691 38.0852 23.8139C38.0852 23.6553 38.0852 23.4966 38.1645 23.338C38.3231 23.0207 38.5611 22.8621 38.8784 22.9414C39.1957 23.0207 39.4336 23.2587 39.4336 23.5759C39.4336 24.2105 39.4336 24.8451 39.4336 25.4796C39.9095 25.4796 40.3061 25.4796 40.7821 25.4796C40.7821 24.8451 40.7821 24.2898 40.7821 23.7346C40.7821 23.1793 41.02 22.8621 41.4959 22.8621C41.8925 22.8621 42.1305 23.1793 42.1305 23.7346C42.1305 24.2898 42.1305 24.9244 42.1305 25.4796C42.6064 25.4796 43.003 25.4796 43.4789 25.4796C43.4789 24.8451 43.4789 24.2105 43.4789 23.6553C43.4789 23.1793 43.7169 22.9414 44.1135 22.9414C44.5101 22.9414 44.7481 23.2587 44.7481 23.6553C44.7481 23.8139 44.7481 23.9725 44.7481 24.1312C44.7481 24.6071 44.7481 25.083 44.7481 25.5589C45.224 25.5589 45.6206 25.5589 46.0965 25.5589C46.0965 24.9244 46.0965 24.2898 46.0965 23.7346C46.0965 23.4173 46.2551 23.1 46.5724 23.0207C46.969 22.8621 47.3656 23.2587 47.3656 23.7346C47.3656 24.3691 47.3656 25.0037 47.3656 25.5589C47.4449 25.5589 47.4449 25.5589 47.5242 25.5589C47.8415 25.5589 48.2381 25.5589 48.5554 25.5589C49.1106 25.5589 49.3486 25.7969 49.3486 26.3521C49.3486 27.4626 49.3486 28.6524 49.3486 29.7629C49.3486 32.4598 48.1588 34.4427 45.6206 35.5532C45.5413 35.6325 45.3826 35.7119 45.3826 35.7912C45.3826 36.0291 45.3826 36.2671 45.3826 36.5844C46.0172 36.5844 46.5724 36.5844 47.1276 36.5844C49.8245 36.5844 51.8868 34.6014 51.9662 31.8252C51.9662 30.1595 52.0455 28.4938 51.9662 26.828C51.8868 24.0519 50.7764 21.7516 48.5554 20.0065C45.8585 18.1822 43.003 18.0235 40.1475 18.6581C36.2608 19.4513 33.4846 23.0207 33.4846 26.9867C33.4846 28.6524 33.4846 30.3974 33.4846 32.0632C33.4846 32.3011 33.4846 32.5391 33.564 32.777C34.5158 32.777 35.547 32.777 36.5781 32.777ZM53.0766 51.0999C53.0766 51.0206 53.0766 51.0206 53.0766 51.0206C53.0766 47.7685 53.0766 44.437 53.0766 41.1849C53.0766 39.9158 52.3628 38.964 51.2523 38.4087C50.6177 38.0915 49.9038 38.0121 49.19 38.0915C49.0313 38.0915 48.7934 38.2501 48.714 38.3294C47.8415 39.5192 46.969 40.709 46.1758 41.8988C45.4619 42.8507 45.3826 42.93 44.4308 42.1368C43.8755 41.7402 43.3203 41.2643 42.6857 40.8677C42.6857 43.4852 42.6857 46.0234 42.6857 48.5617C42.8444 48.5617 43.003 48.5617 43.1617 48.5617C45.7792 48.5617 48.3174 48.5617 50.935 48.5617C51.7282 48.5617 51.9662 48.879 51.8075 49.5928C51.7282 50.1481 51.4902 50.624 51.3316 51.0999C51.8075 51.0999 52.4421 51.0999 53.0766 51.0999ZM37.3713 26.9074C37.3713 28.1765 37.3713 29.3663 37.3713 30.5561C37.3713 31.032 37.6093 31.5079 37.7679 31.9838C37.9265 32.5391 38.2438 32.8564 38.8784 32.777C39.037 32.777 39.1957 32.777 39.3543 32.777C40.3855 32.8564 41.3373 33.1736 41.8925 34.1255C42.2891 34.6807 42.6857 34.8393 43.241 34.76H43.3203C45.3826 34.6807 47.2863 33.3323 47.6036 31.27C47.8415 29.8422 47.7622 28.4144 47.8415 26.9074C44.3515 26.9074 40.8614 26.9074 37.3713 26.9074ZM17.7 53.7175C29.9152 53.7175 42.2098 53.7175 54.3457 53.7175C54.3457 53.2415 54.3457 52.8449 54.3457 52.4483C42.1305 52.4483 29.9152 52.4483 17.7 52.4483C17.7 52.9243 17.7 53.3209 17.7 53.7175ZM50.3004 49.8308C47.6829 49.8308 45.1447 49.8308 42.6064 49.8308C42.4478 50.2274 42.2098 50.7033 42.0512 51.0999C44.2721 51.0999 46.4931 51.0999 48.714 51.0999C49.4279 51.0999 50.1418 50.5447 50.3004 49.8308ZM45.0653 41.0263C45.7792 39.9951 46.4931 39.0433 47.207 38.0121C46.4138 38.0121 45.6999 38.0121 45.0653 38.0121C44.986 38.0121 44.9067 38.0915 44.8274 38.0915C44.4308 38.6467 43.9549 39.2019 43.5583 39.8365C44.0342 40.2331 44.5101 40.6297 45.0653 41.0263ZM42.6064 36.1085C42.6064 37.0603 42.6064 37.9328 42.6064 38.8847C43.003 38.4087 43.241 37.9328 43.5583 37.6155C44.0342 37.1396 43.7962 36.5844 43.8755 36.1085C43.3996 36.1085 43.0823 36.1085 42.6064 36.1085Z" fill="#2B3384"/>
<path d="M30.157 47.8472C27.2221 47.8472 24.9219 45.4676 24.9219 42.6121C24.9219 39.7565 27.3015 37.377 30.157 37.377C33.0125 37.377 35.3921 39.7565 35.3921 42.6121C35.3921 45.4676 33.0125 47.8472 30.157 47.8472ZM29.4431 46.4194C29.5224 45.8642 29.5224 45.8642 29.0465 45.5469C28.4913 45.1503 28.174 44.5951 28.174 43.8812C28.174 43.4846 28.4119 43.2466 28.8085 43.2466C29.2051 43.2466 29.3638 43.4053 29.5224 43.8019C29.5224 43.8812 29.5224 43.9605 29.5224 44.0398C29.6017 44.3571 29.919 44.5951 30.2363 44.5951C30.5536 44.5157 30.7915 44.3571 30.7915 43.9605C30.7915 43.6432 30.5536 43.3259 30.2363 43.2466C30.157 43.2466 30.0777 43.2466 29.919 43.2466C29.0465 43.1673 28.4119 42.6121 28.2533 41.7395C28.0947 40.9463 28.4119 40.0738 29.1258 39.6772C29.6017 39.4393 29.5224 39.122 29.4431 38.8047C27.6187 39.0427 26.191 40.7877 26.191 42.7707C26.2703 44.5951 27.7774 46.3401 29.4431 46.4194ZM30.7915 38.8047C30.7122 39.2013 30.7122 39.4393 31.1881 39.6772C31.8227 39.9945 32.0607 40.6291 32.0607 41.3429C32.0607 41.7395 31.8227 41.9775 31.4261 41.9775C31.0295 41.9775 30.8709 41.8189 30.7122 41.4223C30.7122 41.3429 30.7122 41.2636 30.7122 41.1843C30.6329 40.867 30.3156 40.6291 29.9983 40.6291C29.6811 40.7084 29.4431 40.867 29.4431 41.2636C29.4431 41.5809 29.6811 41.8982 29.9983 41.9775C30.0777 41.9775 30.157 41.9775 30.3156 41.9775C31.1881 42.0568 31.8227 42.6914 32.0607 43.4846C32.2193 44.2778 31.902 45.1503 31.1881 45.5469C30.7122 45.7849 30.7915 46.1021 30.8709 46.4194C32.7745 46.1814 34.2023 44.4364 34.123 42.4534C34.0437 40.6291 32.5366 38.9633 30.7915 38.8047Z" fill="#2B3384"/>
<path d="M39.3538 28.8906C39.6711 28.8906 39.9884 29.2079 39.9884 29.5252C39.9884 29.8425 39.6711 30.1597 39.3538 30.1597C39.0365 30.1597 38.7193 29.8425 38.7193 29.5252C38.6399 29.2079 38.9572 28.8906 39.3538 28.8906Z" fill="#2B3384"/>
<path d="M46.4918 29.5252C46.4918 29.8425 46.1745 30.1597 45.8572 30.1597C45.5399 30.1597 45.2227 29.8425 45.2227 29.5252C45.2227 29.2079 45.5399 28.8906 45.8572 28.8906C46.2538 28.8906 46.4918 29.2079 46.4918 29.5252Z" fill="#2B3384"/>
</g>
<defs>
<clipPath id="clip0_2_2796">
<rect width="39.3426" height="38.0735" fill="white" transform="translate(16.3555 16.9922)"/>
</clipPath>
</defs>
</svg>
