<svg width="73" height="72" viewBox="0 0 73 72" fill="none" xmlns="http://www.w3.org/2000/svg">
<rect x="0.914307" y="0.333984" width="71.3878" height="71.3878" rx="35.6939" fill="#E1EFFF"/>
<g clip-path="url(#clip0_2_2768)">
<path d="M44.7798 55.0637C44.1453 54.9051 43.59 54.8258 42.9555 54.5878C41.0518 53.9533 39.5447 52.6841 38.5929 50.9391C38.4342 50.6218 38.2756 50.5425 37.9583 50.5425C34.8649 50.5425 31.7714 50.5425 28.5986 50.5425C24.474 50.5425 21.0632 47.8456 20.1114 43.8797C19.7148 42.1346 19.9527 40.3896 20.508 38.7239C22.0944 33.806 24.6326 29.3641 28.2813 25.6361C28.4399 25.4775 28.5193 25.3981 28.6779 25.2395C28.8365 25.0809 28.9159 25.0015 29.0745 24.8429C28.4399 24.129 27.8847 23.2565 27.6468 22.3047C27.6468 21.9081 27.5674 21.5908 27.4881 21.2735C27.4881 19.8457 27.4881 18.418 27.4881 16.9902C31.5334 16.9902 35.4994 16.9902 39.5447 16.9902C39.5447 16.9902 39.5447 16.9902 39.5447 17.0696C39.5447 18.4973 39.5447 19.9251 39.5447 21.2735C39.4654 22.5426 38.9895 23.6531 38.117 24.6049C38.0376 24.6843 38.0376 24.6843 38.0376 24.6843C39.0688 25.8741 40.1793 26.9845 41.1311 28.2536C43.6694 31.5058 45.4937 35.1545 46.6835 39.0411C46.7628 39.2791 46.9215 39.4377 47.1594 39.5171C50.8081 40.3103 53.3464 43.4831 53.3464 47.1318C53.3464 50.7805 50.8875 53.9533 47.2387 54.8258C46.9215 54.9051 46.6042 54.9844 46.2869 54.9844C45.7317 55.0637 45.2557 55.0637 44.7798 55.0637ZM44.4625 39.4377C44.3832 39.2791 44.3832 39.1998 44.3832 39.1205C43.6693 36.8995 42.7175 34.8372 41.5277 32.7749C40.1 30.316 38.3549 28.095 36.2133 26.1913C35.9753 26.0327 35.8167 25.8741 35.4994 25.8741C34.5476 25.8741 33.6751 25.8741 32.7232 25.8741C31.1368 25.8741 31.1368 25.8741 30.1057 26.9845C26.3776 30.7919 23.8394 35.2338 22.4116 40.2309C21.3012 44.1969 24.3946 48.3216 28.5193 48.3216C31.4541 48.3216 34.3889 48.3216 37.3238 48.3216C37.4824 48.3216 37.5617 48.3216 37.7204 48.3216C37.4824 46.1799 37.9583 44.1969 39.2274 42.5312C40.5759 40.7862 42.2416 39.8343 44.4625 39.4377ZM51.1254 47.2111C51.1254 44.1176 48.5872 41.5794 45.4937 41.5794C42.4002 41.5794 39.862 44.1176 39.862 47.2111C39.862 50.3046 42.4002 52.8428 45.4937 52.8428C48.5872 52.8428 51.1254 50.3046 51.1254 47.2111ZM29.7091 19.2112C29.7091 19.7664 29.7091 20.401 29.7091 20.9562C29.7884 21.9874 30.185 22.7806 30.8989 23.4945C31.0575 23.5738 31.2161 23.7324 31.4541 23.7324C32.8025 23.7324 34.2303 23.7324 35.5787 23.7324C35.7374 23.7324 35.9753 23.6531 36.134 23.4945C37.4031 22.3047 37.4031 20.7976 37.3238 19.2112C34.7855 19.2112 32.3266 19.2112 29.7091 19.2112Z" fill="#2B3384"/>
<path d="M34.6276 44.1974C33.8344 44.1974 33.1999 44.1974 32.4067 44.1974C32.4067 43.8008 32.4067 43.4042 32.4067 43.0869C32.4067 42.849 32.3273 42.7696 32.0894 42.6903C30.6616 42.373 29.7098 41.1832 29.5511 39.6762C29.5511 39.5968 29.5511 39.5968 29.5511 39.5175C30.265 39.5175 30.9789 39.5175 31.7721 39.5175C31.7721 39.5968 31.8514 39.6762 31.8514 39.7555C31.9307 40.1521 32.1687 40.39 32.5653 40.4694C33.1999 40.5487 33.9137 40.5487 34.5483 40.4694C35.0242 40.39 35.4208 39.8348 35.3415 39.2796C35.2622 38.7243 34.7863 38.3277 34.231 38.2484C33.5965 38.2484 33.0412 38.2484 32.4067 38.1691C30.8203 37.9311 29.7098 36.5827 29.6305 34.9963C29.5511 33.4099 30.5823 31.9821 32.1687 31.5855C32.486 31.5062 32.486 31.4269 32.486 31.1096C32.486 30.713 32.486 30.3957 32.486 29.9991C33.2792 29.9991 33.9931 29.9991 34.7069 29.9991C34.7069 30.3957 34.7069 30.7923 34.7069 31.1889C34.7069 31.4269 34.7863 31.5062 35.0242 31.5855C36.5313 31.9821 37.5624 33.3306 37.4831 34.8377C36.7692 34.8377 36.0554 34.8377 35.3415 34.8377C35.3415 34.7583 35.2622 34.679 35.2622 34.5997C35.1035 34.0445 34.7069 33.7272 34.1517 33.7272C33.7551 33.7272 33.2792 33.7272 32.8826 33.7272C32.248 33.7272 31.7721 34.2031 31.7721 34.8377C31.7721 35.4722 32.248 35.9481 32.8826 35.9481C33.5171 35.9481 34.0724 35.9481 34.7069 36.0275C36.2933 36.2654 37.4831 37.6138 37.4831 39.2002C37.5624 40.7073 36.452 42.2144 34.9449 42.5317C34.7069 42.611 34.6276 42.6903 34.6276 42.9283C34.7069 43.4042 34.6276 43.8008 34.6276 44.1974Z" fill="#2B3384"/>
<path d="M47.2394 43.8008C47.7946 44.356 48.3499 44.9113 48.8258 45.3872C48.2705 45.9424 47.636 46.577 47.0014 47.1322C47.636 47.7668 48.2705 48.4013 48.8258 48.9566C48.2705 49.5118 47.7946 49.9877 47.2394 50.543C46.6841 49.9877 46.1289 49.3532 45.4943 48.7186C44.8598 49.3532 44.2252 49.9877 43.67 50.543C43.1148 49.9877 42.6388 49.5118 42.0836 48.9566C42.6388 48.4013 43.2734 47.8461 43.8286 47.2909C43.1941 46.6563 42.5595 46.0217 42.0043 45.5458C42.5595 44.9906 43.1147 44.4353 43.5907 43.9594C44.1459 44.5147 44.7011 45.0699 45.2564 45.7045C46.1289 44.9906 46.6841 44.4353 47.2394 43.8008Z" fill="#2B3384"/>
</g>
<defs>
<clipPath id="clip0_2_2768">
<rect width="33.3936" height="38.0735" fill="white" transform="translate(19.9535 16.9912)"/>
</clipPath>
</defs>
</svg>
