<svg width="283" height="243" viewBox="0 0 283 243" fill="none" xmlns="http://www.w3.org/2000/svg">
<g filter="url(#filter0_d_2_2327)">
<rect x="23" y="11" width="237" height="198" rx="14" fill="white"/>
</g>
<path d="M57.3541 153.072C56.7061 153.072 56.1261 152.932 55.6141 152.652C55.1021 152.364 54.6981 151.972 54.4021 151.476C54.1141 150.972 53.9701 150.404 53.9701 149.772V144.588H55.2661V149.664C55.2661 150.072 55.3621 150.44 55.5541 150.768C55.7461 151.088 55.9981 151.344 56.3101 151.536C56.6301 151.728 56.9781 151.824 57.3541 151.824C57.7541 151.824 58.1141 151.728 58.4341 151.536C58.7621 151.344 59.0221 151.088 59.2141 150.768C59.4061 150.44 59.5021 150.072 59.5021 149.664V144.588H60.7381V149.772C60.7381 150.404 60.5901 150.972 60.2941 151.476C60.0061 151.972 59.6061 152.364 59.0941 152.652C58.5821 152.932 58.0021 153.072 57.3541 153.072ZM63.2609 155.64V146.7H64.5089V148.14L64.3169 148.032C64.3649 147.792 64.5009 147.564 64.7249 147.348C64.9489 147.124 65.2209 146.944 65.5409 146.808C65.8689 146.664 66.2049 146.592 66.5489 146.592C67.1169 146.592 67.6209 146.732 68.0609 147.012C68.5009 147.292 68.8489 147.676 69.1049 148.164C69.3609 148.652 69.4889 149.212 69.4889 149.844C69.4889 150.468 69.3609 151.028 69.1049 151.524C68.8569 152.012 68.5129 152.4 68.0729 152.688C67.6329 152.968 67.1369 153.108 66.5849 153.108C66.2169 153.108 65.8609 153.036 65.5169 152.892C65.1729 152.74 64.8809 152.548 64.6409 152.316C64.4009 152.084 64.2529 151.844 64.1969 151.596L64.5089 151.428V155.64H63.2609ZM66.3809 151.968C66.7489 151.968 67.0769 151.876 67.3649 151.692C67.6529 151.508 67.8809 151.256 68.0489 150.936C68.2169 150.616 68.3009 150.252 68.3009 149.844C68.3009 149.436 68.2169 149.076 68.0489 148.764C67.8889 148.444 67.6649 148.192 67.3769 148.008C67.0889 147.824 66.7569 147.732 66.3809 147.732C66.0049 147.732 65.6729 147.824 65.3849 148.008C65.0969 148.184 64.8689 148.432 64.7009 148.752C64.5329 149.072 64.4489 149.436 64.4489 149.844C64.4489 150.252 64.5329 150.616 64.7009 150.936C64.8689 151.256 65.0969 151.508 65.3849 151.692C65.6729 151.876 66.0049 151.968 66.3809 151.968ZM72.7448 153L70.5968 146.7L71.8448 146.688L73.3808 151.404L73.1048 151.38L74.7728 147.696H75.5168L77.1968 151.392L76.8728 151.416L78.4208 146.7H79.6688L77.5448 153H76.6928L74.9408 148.992L75.2168 149.028L73.5848 153H72.7448ZM84.0507 153.12C83.4347 153.12 82.8827 152.98 82.3947 152.7C81.9147 152.412 81.5347 152.024 81.2547 151.536C80.9747 151.04 80.8347 150.476 80.8347 149.844C80.8347 149.212 80.9747 148.652 81.2547 148.164C81.5347 147.668 81.9147 147.28 82.3947 147C82.8827 146.712 83.4347 146.568 84.0507 146.568C84.6587 146.568 85.2027 146.712 85.6827 147C86.1707 147.28 86.5547 147.668 86.8347 148.164C87.1147 148.652 87.2547 149.212 87.2547 149.844C87.2547 150.476 87.1147 151.04 86.8347 151.536C86.5547 152.024 86.1707 152.412 85.6827 152.7C85.2027 152.98 84.6587 153.12 84.0507 153.12ZM84.0507 151.992C84.4267 151.992 84.7627 151.9 85.0587 151.716C85.3547 151.524 85.5867 151.268 85.7547 150.948C85.9227 150.62 86.0027 150.252 85.9947 149.844C86.0027 149.428 85.9227 149.06 85.7547 148.74C85.5867 148.412 85.3547 148.156 85.0587 147.972C84.7627 147.788 84.4267 147.696 84.0507 147.696C83.6747 147.696 83.3347 147.792 83.0307 147.984C82.7347 148.168 82.5027 148.424 82.3347 148.752C82.1667 149.072 82.0867 149.436 82.0947 149.844C82.0867 150.252 82.1667 150.62 82.3347 150.948C82.5027 151.268 82.7347 151.524 83.0307 151.716C83.3347 151.9 83.6747 151.992 84.0507 151.992ZM89.2015 153V146.7H90.4495V148.68L90.3295 148.2C90.4175 147.896 90.5655 147.62 90.7735 147.372C90.9895 147.124 91.2335 146.928 91.5055 146.784C91.7855 146.64 92.0735 146.568 92.3695 146.568C92.5055 146.568 92.6335 146.58 92.7535 146.604C92.8815 146.628 92.9815 146.656 93.0535 146.688L92.7295 148.032C92.6335 147.992 92.5255 147.96 92.4055 147.936C92.2935 147.904 92.1815 147.888 92.0695 147.888C91.8535 147.888 91.6455 147.932 91.4455 148.02C91.2535 148.1 91.0815 148.216 90.9295 148.368C90.7855 148.512 90.6695 148.684 90.5815 148.884C90.4935 149.076 90.4495 149.288 90.4495 149.52V153H89.2015ZM95.7693 151.032L95.7093 149.688L98.7213 146.7H100.389L95.7693 151.032ZM94.6413 153V144.12H95.8773V153H94.6413ZM98.8893 153L96.5133 150.228L97.3893 149.424L100.473 153H98.8893ZM106.337 153V144.6H109.757C110.213 144.6 110.625 144.716 110.993 144.948C111.369 145.172 111.669 145.48 111.893 145.872C112.117 146.264 112.229 146.7 112.229 147.18C112.229 147.66 112.117 148.096 111.893 148.488C111.669 148.88 111.369 149.196 110.993 149.436C110.625 149.668 110.213 149.784 109.757 149.784H107.633V153H106.337ZM107.633 148.536H109.733C109.949 148.536 110.145 148.476 110.321 148.356C110.497 148.228 110.637 148.064 110.741 147.864C110.853 147.656 110.909 147.428 110.909 147.18C110.909 146.932 110.853 146.708 110.741 146.508C110.637 146.308 110.497 146.148 110.321 146.028C110.145 145.908 109.949 145.848 109.733 145.848H107.633V148.536ZM116.537 153.12C116.017 153.12 115.541 152.976 115.109 152.688C114.685 152.4 114.345 152.008 114.089 151.512C113.833 151.016 113.705 150.456 113.705 149.832C113.705 149.2 113.833 148.64 114.089 148.152C114.353 147.656 114.705 147.268 115.145 146.988C115.593 146.708 116.093 146.568 116.645 146.568C116.973 146.568 117.273 146.616 117.545 146.712C117.817 146.808 118.053 146.944 118.253 147.12C118.461 147.288 118.629 147.484 118.757 147.708C118.893 147.932 118.977 148.172 119.009 148.428L118.733 148.332V146.7H119.981V153H118.733V151.5L119.021 151.416C118.973 151.632 118.873 151.844 118.721 152.052C118.577 152.252 118.389 152.432 118.157 152.592C117.933 152.752 117.681 152.88 117.401 152.976C117.129 153.072 116.841 153.12 116.537 153.12ZM116.861 151.98C117.237 151.98 117.569 151.888 117.857 151.704C118.145 151.52 118.369 151.268 118.529 150.948C118.697 150.62 118.781 150.248 118.781 149.832C118.781 149.424 118.697 149.06 118.529 148.74C118.369 148.42 118.145 148.168 117.857 147.984C117.569 147.8 117.237 147.708 116.861 147.708C116.493 147.708 116.165 147.8 115.877 147.984C115.597 148.168 115.373 148.42 115.205 148.74C115.045 149.06 114.965 149.424 114.965 149.832C114.965 150.248 115.045 150.62 115.205 150.948C115.373 151.268 115.597 151.52 115.877 151.704C116.165 151.888 116.493 151.98 116.861 151.98ZM123.222 155.76L124.494 152.82L124.506 153.804L121.362 146.7H122.802L124.77 151.332C124.81 151.412 124.858 151.536 124.914 151.704C124.97 151.864 125.018 152.024 125.058 152.184L124.746 152.256C124.81 152.088 124.87 151.92 124.926 151.752C124.99 151.584 125.05 151.416 125.106 151.248L126.75 146.7H128.214L125.622 153L124.554 155.76H123.222ZM129.715 153V146.7H130.963V148.044L130.735 148.188C130.799 147.98 130.899 147.78 131.035 147.588C131.179 147.396 131.351 147.228 131.551 147.084C131.759 146.932 131.979 146.812 132.211 146.724C132.451 146.636 132.695 146.592 132.943 146.592C133.303 146.592 133.619 146.652 133.891 146.772C134.163 146.892 134.387 147.072 134.563 147.312C134.739 147.552 134.867 147.852 134.947 148.212L134.755 148.164L134.839 147.96C134.927 147.776 135.047 147.604 135.199 147.444C135.359 147.276 135.539 147.128 135.739 147C135.939 146.872 136.151 146.772 136.375 146.7C136.599 146.628 136.819 146.592 137.035 146.592C137.507 146.592 137.895 146.688 138.199 146.88C138.511 147.072 138.743 147.364 138.895 147.756C139.055 148.148 139.135 148.636 139.135 149.22V153H137.887V149.292C137.887 148.932 137.839 148.64 137.743 148.416C137.655 148.184 137.519 148.012 137.335 147.9C137.151 147.788 136.915 147.732 136.627 147.732C136.403 147.732 136.191 147.772 135.991 147.852C135.799 147.924 135.631 148.028 135.487 148.164C135.343 148.3 135.231 148.46 135.151 148.644C135.071 148.82 135.031 149.016 135.031 149.232V153H133.783V149.268C133.783 148.94 133.735 148.664 133.639 148.44C133.543 148.208 133.403 148.032 133.219 147.912C133.035 147.792 132.811 147.732 132.547 147.732C132.323 147.732 132.115 147.772 131.923 147.852C131.731 147.924 131.563 148.028 131.419 148.164C131.275 148.292 131.163 148.448 131.083 148.632C131.003 148.808 130.963 149 130.963 149.208V153H129.715ZM144.33 153.12C143.682 153.12 143.106 152.984 142.602 152.712C142.106 152.432 141.714 152.052 141.426 151.572C141.146 151.092 141.006 150.54 141.006 149.916C141.006 149.42 141.086 148.968 141.246 148.56C141.406 148.152 141.626 147.8 141.906 147.504C142.194 147.2 142.534 146.968 142.926 146.808C143.326 146.64 143.758 146.556 144.222 146.556C144.63 146.556 145.01 146.636 145.362 146.796C145.714 146.948 146.018 147.16 146.274 147.432C146.538 147.704 146.738 148.028 146.874 148.404C147.018 148.772 147.086 149.176 147.078 149.616L147.066 150.144H141.918L141.642 149.16H145.998L145.818 149.364V149.076C145.794 148.812 145.706 148.576 145.554 148.368C145.402 148.16 145.21 147.996 144.978 147.876C144.746 147.756 144.494 147.696 144.222 147.696C143.79 147.696 143.426 147.78 143.13 147.948C142.834 148.108 142.61 148.348 142.458 148.668C142.306 148.98 142.23 149.368 142.23 149.832C142.23 150.272 142.322 150.656 142.506 150.984C142.69 151.304 142.95 151.552 143.286 151.728C143.622 151.904 144.01 151.992 144.45 151.992C144.762 151.992 145.05 151.94 145.314 151.836C145.586 151.732 145.878 151.544 146.19 151.272L146.814 152.148C146.622 152.34 146.386 152.508 146.106 152.652C145.834 152.796 145.542 152.912 145.23 153C144.926 153.08 144.626 153.12 144.33 153.12ZM149.021 153V146.7H150.257V147.996L150.041 148.14C150.121 147.86 150.277 147.604 150.509 147.372C150.741 147.132 151.017 146.94 151.337 146.796C151.657 146.644 151.985 146.568 152.321 146.568C152.801 146.568 153.201 146.664 153.521 146.856C153.841 147.04 154.081 147.324 154.241 147.708C154.401 148.092 154.481 148.576 154.481 149.16V153H153.245V149.244C153.245 148.884 153.197 148.588 153.101 148.356C153.005 148.116 152.857 147.944 152.657 147.84C152.457 147.728 152.209 147.68 151.913 147.696C151.673 147.696 151.453 147.736 151.253 147.816C151.053 147.888 150.877 147.992 150.725 148.128C150.581 148.264 150.465 148.424 150.377 148.608C150.297 148.784 150.257 148.976 150.257 149.184V153H149.645C149.541 153 149.437 153 149.333 153C149.229 153 149.125 153 149.021 153ZM157.538 153V145.092H158.774V153H157.538ZM156.23 147.9V146.7H160.238V147.9H156.23ZM166.239 153V144.6H169.659C170.115 144.6 170.527 144.716 170.895 144.948C171.271 145.172 171.571 145.48 171.795 145.872C172.019 146.264 172.131 146.7 172.131 147.18C172.131 147.66 172.019 148.096 171.795 148.488C171.571 148.88 171.271 149.196 170.895 149.436C170.527 149.668 170.115 149.784 169.659 149.784H167.535V153H166.239ZM167.535 148.536H169.635C169.851 148.536 170.047 148.476 170.223 148.356C170.399 148.228 170.539 148.064 170.643 147.864C170.755 147.656 170.811 147.428 170.811 147.18C170.811 146.932 170.755 146.708 170.643 146.508C170.539 146.308 170.399 146.148 170.223 146.028C170.047 145.908 169.851 145.848 169.635 145.848H167.535V148.536ZM174.132 153V146.7H175.38V148.68L175.26 148.2C175.348 147.896 175.496 147.62 175.704 147.372C175.92 147.124 176.164 146.928 176.436 146.784C176.716 146.64 177.004 146.568 177.3 146.568C177.436 146.568 177.564 146.58 177.684 146.604C177.812 146.628 177.912 146.656 177.984 146.688L177.66 148.032C177.564 147.992 177.456 147.96 177.336 147.936C177.224 147.904 177.112 147.888 177 147.888C176.784 147.888 176.576 147.932 176.376 148.02C176.184 148.1 176.012 148.216 175.86 148.368C175.716 148.512 175.6 148.684 175.512 148.884C175.424 149.076 175.38 149.288 175.38 149.52V153H174.132ZM182.134 153.12C181.518 153.12 180.966 152.98 180.478 152.7C179.998 152.412 179.618 152.024 179.338 151.536C179.058 151.04 178.918 150.476 178.918 149.844C178.918 149.212 179.058 148.652 179.338 148.164C179.618 147.668 179.998 147.28 180.478 147C180.966 146.712 181.518 146.568 182.134 146.568C182.742 146.568 183.286 146.712 183.766 147C184.254 147.28 184.638 147.668 184.918 148.164C185.198 148.652 185.338 149.212 185.338 149.844C185.338 150.476 185.198 151.04 184.918 151.536C184.638 152.024 184.254 152.412 183.766 152.7C183.286 152.98 182.742 153.12 182.134 153.12ZM182.134 151.992C182.51 151.992 182.846 151.9 183.142 151.716C183.438 151.524 183.67 151.268 183.838 150.948C184.006 150.62 184.086 150.252 184.078 149.844C184.086 149.428 184.006 149.06 183.838 148.74C183.67 148.412 183.438 148.156 183.142 147.972C182.846 147.788 182.51 147.696 182.134 147.696C181.758 147.696 181.418 147.792 181.114 147.984C180.818 148.168 180.586 148.424 180.418 148.752C180.25 149.072 180.17 149.436 180.178 149.844C180.17 150.252 180.25 150.62 180.418 150.948C180.586 151.268 180.818 151.524 181.114 151.716C181.418 151.9 181.758 151.992 182.134 151.992ZM188.065 153V145.092H189.301V153H188.065ZM186.757 147.9V146.7H190.765V147.9H186.757ZM195.372 153.12C194.724 153.12 194.148 152.984 193.644 152.712C193.148 152.432 192.756 152.052 192.468 151.572C192.188 151.092 192.048 150.54 192.048 149.916C192.048 149.42 192.128 148.968 192.288 148.56C192.448 148.152 192.668 147.8 192.948 147.504C193.236 147.2 193.576 146.968 193.968 146.808C194.368 146.64 194.8 146.556 195.264 146.556C195.672 146.556 196.052 146.636 196.404 146.796C196.756 146.948 197.06 147.16 197.316 147.432C197.58 147.704 197.78 148.028 197.916 148.404C198.06 148.772 198.128 149.176 198.12 149.616L198.108 150.144H192.96L192.684 149.16H197.04L196.86 149.364V149.076C196.836 148.812 196.748 148.576 196.596 148.368C196.444 148.16 196.252 147.996 196.02 147.876C195.788 147.756 195.536 147.696 195.264 147.696C194.832 147.696 194.468 147.78 194.172 147.948C193.876 148.108 193.652 148.348 193.5 148.668C193.348 148.98 193.272 149.368 193.272 149.832C193.272 150.272 193.364 150.656 193.548 150.984C193.732 151.304 193.992 151.552 194.328 151.728C194.664 151.904 195.052 151.992 195.492 151.992C195.804 151.992 196.092 151.94 196.356 151.836C196.628 151.732 196.92 151.544 197.232 151.272L197.856 152.148C197.664 152.34 197.428 152.508 197.148 152.652C196.876 152.796 196.584 152.912 196.272 153C195.968 153.08 195.668 153.12 195.372 153.12ZM202.739 153.12C202.155 153.12 201.631 152.976 201.167 152.688C200.711 152.4 200.347 152.008 200.075 151.512C199.811 151.016 199.679 150.46 199.679 149.844C199.679 149.228 199.811 148.672 200.075 148.176C200.347 147.68 200.711 147.288 201.167 147C201.631 146.712 202.155 146.568 202.739 146.568C203.299 146.568 203.807 146.684 204.263 146.916C204.727 147.14 205.079 147.448 205.319 147.84L204.635 148.68C204.507 148.496 204.343 148.328 204.143 148.176C203.943 148.024 203.731 147.904 203.507 147.816C203.283 147.728 203.067 147.684 202.859 147.684C202.475 147.684 202.131 147.78 201.827 147.972C201.531 148.156 201.295 148.412 201.119 148.74C200.943 149.068 200.855 149.436 200.855 149.844C200.855 150.252 200.947 150.62 201.131 150.948C201.315 151.268 201.559 151.524 201.863 151.716C202.167 151.908 202.503 152.004 202.871 152.004C203.087 152.004 203.295 151.968 203.495 151.896C203.703 151.824 203.903 151.716 204.095 151.572C204.287 151.428 204.467 151.252 204.635 151.044L205.319 151.884C205.063 152.244 204.695 152.54 204.215 152.772C203.743 153.004 203.251 153.12 202.739 153.12ZM207.865 153V145.092H209.101V153H207.865ZM206.557 147.9V146.7H210.565V147.9H206.557ZM212.495 153V146.7H213.731V153H212.495ZM213.095 145.308C212.831 145.308 212.627 145.24 212.483 145.104C212.339 144.968 212.267 144.776 212.267 144.528C212.267 144.296 212.339 144.108 212.483 143.964C212.635 143.82 212.839 143.748 213.095 143.748C213.359 143.748 213.563 143.816 213.707 143.952C213.851 144.088 213.923 144.28 213.923 144.528C213.923 144.76 213.847 144.948 213.695 145.092C213.551 145.236 213.351 145.308 213.095 145.308ZM219.062 153.12C218.446 153.12 217.894 152.98 217.406 152.7C216.926 152.412 216.546 152.024 216.266 151.536C215.986 151.04 215.846 150.476 215.846 149.844C215.846 149.212 215.986 148.652 216.266 148.164C216.546 147.668 216.926 147.28 217.406 147C217.894 146.712 218.446 146.568 219.062 146.568C219.67 146.568 220.214 146.712 220.694 147C221.182 147.28 221.566 147.668 221.846 148.164C222.126 148.652 222.266 149.212 222.266 149.844C222.266 150.476 222.126 151.04 221.846 151.536C221.566 152.024 221.182 152.412 220.694 152.7C220.214 152.98 219.67 153.12 219.062 153.12ZM219.062 151.992C219.438 151.992 219.774 151.9 220.07 151.716C220.366 151.524 220.598 151.268 220.766 150.948C220.934 150.62 221.014 150.252 221.006 149.844C221.014 149.428 220.934 149.06 220.766 148.74C220.598 148.412 220.366 148.156 220.07 147.972C219.774 147.788 219.438 147.696 219.062 147.696C218.686 147.696 218.346 147.792 218.042 147.984C217.746 148.168 217.514 148.424 217.346 148.752C217.178 149.072 217.098 149.436 217.106 149.844C217.098 150.252 217.178 150.62 217.346 150.948C217.514 151.268 217.746 151.524 218.042 151.716C218.346 151.9 218.686 151.992 219.062 151.992ZM224.213 153V146.7H225.449V147.996L225.233 148.14C225.313 147.86 225.469 147.604 225.701 147.372C225.933 147.132 226.209 146.94 226.529 146.796C226.849 146.644 227.177 146.568 227.513 146.568C227.993 146.568 228.393 146.664 228.713 146.856C229.033 147.04 229.273 147.324 229.433 147.708C229.593 148.092 229.673 148.576 229.673 149.16V153H228.437V149.244C228.437 148.884 228.389 148.588 228.293 148.356C228.197 148.116 228.049 147.944 227.849 147.84C227.649 147.728 227.401 147.68 227.105 147.696C226.865 147.696 226.645 147.736 226.445 147.816C226.245 147.888 226.069 147.992 225.917 148.128C225.773 148.264 225.657 148.424 225.569 148.608C225.489 148.784 225.449 148.976 225.449 149.184V153H224.837C224.733 153 224.629 153 224.525 153C224.421 153 224.317 153 224.213 153ZM74.2558 168.12C73.6478 168.12 73.0798 168.012 72.5518 167.796C72.0238 167.572 71.5598 167.264 71.1598 166.872C70.7598 166.48 70.4478 166.024 70.2238 165.504C70.0078 164.976 69.8998 164.408 69.8998 163.8C69.8998 163.2 70.0078 162.64 70.2238 162.12C70.4478 161.6 70.7558 161.148 71.1478 160.764C71.5478 160.372 72.0118 160.068 72.5398 159.852C73.0678 159.636 73.6358 159.528 74.2438 159.528C74.6678 159.528 75.0798 159.588 75.4798 159.708C75.8878 159.828 76.2558 159.996 76.5838 160.212C76.9118 160.428 77.1798 160.676 77.3878 160.956L76.5478 161.832C76.3078 161.6 76.0598 161.408 75.8038 161.256C75.5558 161.104 75.2998 160.988 75.0358 160.908C74.7718 160.828 74.5078 160.788 74.2438 160.788C73.8118 160.788 73.4118 160.864 73.0438 161.016C72.6838 161.168 72.3638 161.38 72.0838 161.652C71.8118 161.924 71.5998 162.244 71.4478 162.612C71.2958 162.972 71.2198 163.368 71.2198 163.8C71.2198 164.216 71.2998 164.612 71.4598 164.988C71.6198 165.356 71.8398 165.68 72.1198 165.96C72.4078 166.24 72.7358 166.46 73.1038 166.62C73.4798 166.78 73.8758 166.86 74.2918 166.86C74.6038 166.86 74.8998 166.816 75.1798 166.728C75.4598 166.632 75.7078 166.5 75.9238 166.332C76.1398 166.164 76.3078 165.972 76.4278 165.756C76.5478 165.532 76.6078 165.296 76.6078 165.048V164.808L76.7878 164.976H74.2198V163.692H77.9398C77.9558 163.78 77.9678 163.868 77.9758 163.956C77.9838 164.036 77.9878 164.116 77.9878 164.196C77.9958 164.268 77.9998 164.34 77.9998 164.412C77.9998 164.964 77.9038 165.468 77.7118 165.924C77.5198 166.372 77.2518 166.76 76.9078 167.088C76.5718 167.416 76.1758 167.672 75.7198 167.856C75.2718 168.032 74.7838 168.12 74.2558 168.12ZM80.1793 168V161.7H81.4153V168H80.1793ZM80.7793 160.308C80.5153 160.308 80.3113 160.24 80.1673 160.104C80.0233 159.968 79.9513 159.776 79.9513 159.528C79.9513 159.296 80.0233 159.108 80.1673 158.964C80.3193 158.82 80.5233 158.748 80.7793 158.748C81.0433 158.748 81.2473 158.816 81.3913 158.952C81.5353 159.088 81.6073 159.28 81.6073 159.528C81.6073 159.76 81.5313 159.948 81.3793 160.092C81.2353 160.236 81.0353 160.308 80.7793 160.308ZM85.9792 168L83.3152 161.7H84.6472L86.5672 166.416L86.3392 166.524L88.3912 161.7H89.6632L86.8672 168H85.9792ZM94.1583 168.12C93.5103 168.12 92.9343 167.984 92.4303 167.712C91.9343 167.432 91.5423 167.052 91.2543 166.572C90.9743 166.092 90.8343 165.54 90.8343 164.916C90.8343 164.42 90.9143 163.968 91.0743 163.56C91.2343 163.152 91.4543 162.8 91.7343 162.504C92.0223 162.2 92.3623 161.968 92.7543 161.808C93.1543 161.64 93.5863 161.556 94.0503 161.556C94.4583 161.556 94.8383 161.636 95.1903 161.796C95.5423 161.948 95.8463 162.16 96.1023 162.432C96.3663 162.704 96.5663 163.028 96.7023 163.404C96.8463 163.772 96.9143 164.176 96.9063 164.616L96.8943 165.144H91.7463L91.4703 164.16H95.8263L95.6463 164.364V164.076C95.6223 163.812 95.5343 163.576 95.3823 163.368C95.2303 163.16 95.0383 162.996 94.8063 162.876C94.5743 162.756 94.3223 162.696 94.0503 162.696C93.6183 162.696 93.2543 162.78 92.9583 162.948C92.6623 163.108 92.4383 163.348 92.2863 163.668C92.1343 163.98 92.0583 164.368 92.0583 164.832C92.0583 165.272 92.1503 165.656 92.3343 165.984C92.5183 166.304 92.7783 166.552 93.1143 166.728C93.4503 166.904 93.8383 166.992 94.2783 166.992C94.5903 166.992 94.8783 166.94 95.1423 166.836C95.4143 166.732 95.7063 166.544 96.0183 166.272L96.6423 167.148C96.4503 167.34 96.2143 167.508 95.9343 167.652C95.6623 167.796 95.3703 167.912 95.0583 168C94.7543 168.08 94.4543 168.12 94.1583 168.12ZM100.95 168.12C100.422 168.12 99.9456 168.028 99.5215 167.844C99.0975 167.66 98.7455 167.388 98.4655 167.028L99.3056 166.308C99.5455 166.588 99.8055 166.792 100.086 166.92C100.374 167.04 100.698 167.1 101.058 167.1C101.202 167.1 101.334 167.084 101.454 167.052C101.582 167.012 101.69 166.956 101.778 166.884C101.874 166.812 101.946 166.728 101.994 166.632C102.042 166.528 102.066 166.416 102.066 166.296C102.066 166.088 101.99 165.92 101.838 165.792C101.758 165.736 101.63 165.676 101.454 165.612C101.286 165.54 101.066 165.468 100.794 165.396C100.33 165.276 99.9496 165.14 99.6536 164.988C99.3576 164.836 99.1295 164.664 98.9695 164.472C98.8495 164.32 98.7615 164.156 98.7055 163.98C98.6495 163.796 98.6215 163.596 98.6215 163.38C98.6215 163.116 98.6775 162.876 98.7895 162.66C98.9095 162.436 99.0695 162.244 99.2696 162.084C99.4775 161.916 99.7175 161.788 99.9896 161.7C100.27 161.612 100.566 161.568 100.878 161.568C101.174 161.568 101.466 161.608 101.754 161.688C102.05 161.768 102.322 161.884 102.57 162.036C102.818 162.188 103.026 162.368 103.194 162.576L102.486 163.356C102.334 163.204 102.166 163.072 101.982 162.96C101.806 162.84 101.626 162.748 101.442 162.684C101.258 162.62 101.09 162.588 100.938 162.588C100.77 162.588 100.618 162.604 100.482 162.636C100.346 162.668 100.23 162.716 100.134 162.78C100.046 162.844 99.9776 162.924 99.9295 163.02C99.8815 163.116 99.8575 163.224 99.8575 163.344C99.8655 163.448 99.8895 163.548 99.9295 163.644C99.9776 163.732 100.042 163.808 100.122 163.872C100.21 163.936 100.342 164.004 100.518 164.076C100.694 164.148 100.918 164.216 101.19 164.28C101.59 164.384 101.918 164.5 102.174 164.628C102.438 164.748 102.646 164.888 102.798 165.048C102.958 165.2 103.07 165.376 103.134 165.576C103.198 165.776 103.23 166 103.23 166.248C103.23 166.608 103.126 166.932 102.918 167.22C102.718 167.5 102.446 167.72 102.102 167.88C101.758 168.04 101.374 168.12 100.95 168.12ZM110.211 170.76L111.483 167.82L111.495 168.804L108.351 161.7H109.791L111.759 166.332C111.799 166.412 111.847 166.536 111.903 166.704C111.959 166.864 112.007 167.024 112.047 167.184L111.735 167.256C111.799 167.088 111.859 166.92 111.915 166.752C111.979 166.584 112.039 166.416 112.095 166.248L113.739 161.7H115.203L112.611 168L111.543 170.76H110.211ZM119.442 168.12C118.826 168.12 118.274 167.98 117.786 167.7C117.306 167.412 116.926 167.024 116.646 166.536C116.366 166.04 116.226 165.476 116.226 164.844C116.226 164.212 116.366 163.652 116.646 163.164C116.926 162.668 117.306 162.28 117.786 162C118.274 161.712 118.826 161.568 119.442 161.568C120.05 161.568 120.594 161.712 121.074 162C121.562 162.28 121.946 162.668 122.226 163.164C122.506 163.652 122.646 164.212 122.646 164.844C122.646 165.476 122.506 166.04 122.226 166.536C121.946 167.024 121.562 167.412 121.074 167.7C120.594 167.98 120.05 168.12 119.442 168.12ZM119.442 166.992C119.818 166.992 120.154 166.9 120.45 166.716C120.746 166.524 120.978 166.268 121.146 165.948C121.314 165.62 121.394 165.252 121.386 164.844C121.394 164.428 121.314 164.06 121.146 163.74C120.978 163.412 120.746 163.156 120.45 162.972C120.154 162.788 119.818 162.696 119.442 162.696C119.066 162.696 118.726 162.792 118.422 162.984C118.126 163.168 117.894 163.424 117.726 163.752C117.558 164.072 117.478 164.436 117.486 164.844C117.478 165.252 117.558 165.62 117.726 165.948C117.894 166.268 118.126 166.524 118.422 166.716C118.726 166.9 119.066 166.992 119.442 166.992ZM126.801 168.12C126.353 168.12 125.961 168.016 125.625 167.808C125.297 167.6 125.041 167.308 124.857 166.932C124.681 166.556 124.593 166.108 124.593 165.588V161.7H125.829V165.252C125.829 165.62 125.885 165.94 125.997 166.212C126.117 166.476 126.285 166.68 126.501 166.824C126.725 166.968 126.993 167.04 127.305 167.04C127.537 167.04 127.749 167.004 127.941 166.932C128.133 166.852 128.297 166.744 128.433 166.608C128.577 166.472 128.689 166.308 128.769 166.116C128.849 165.924 128.889 165.716 128.889 165.492V161.7H130.125V168H128.889V166.68L129.105 166.536C129.009 166.832 128.845 167.1 128.613 167.34C128.389 167.58 128.121 167.772 127.809 167.916C127.497 168.052 127.161 168.12 126.801 168.12ZM138.522 168.12C137.994 168.12 137.518 168.028 137.094 167.844C136.67 167.66 136.318 167.388 136.038 167.028L136.878 166.308C137.118 166.588 137.378 166.792 137.658 166.92C137.946 167.04 138.27 167.1 138.63 167.1C138.774 167.1 138.906 167.084 139.026 167.052C139.154 167.012 139.262 166.956 139.35 166.884C139.446 166.812 139.518 166.728 139.566 166.632C139.614 166.528 139.638 166.416 139.638 166.296C139.638 166.088 139.562 165.92 139.41 165.792C139.33 165.736 139.202 165.676 139.026 165.612C138.858 165.54 138.638 165.468 138.366 165.396C137.902 165.276 137.522 165.14 137.226 164.988C136.93 164.836 136.702 164.664 136.542 164.472C136.422 164.32 136.334 164.156 136.278 163.98C136.222 163.796 136.194 163.596 136.194 163.38C136.194 163.116 136.25 162.876 136.362 162.66C136.482 162.436 136.642 162.244 136.842 162.084C137.05 161.916 137.29 161.788 137.562 161.7C137.842 161.612 138.138 161.568 138.45 161.568C138.746 161.568 139.038 161.608 139.326 161.688C139.622 161.768 139.894 161.884 140.142 162.036C140.39 162.188 140.598 162.368 140.766 162.576L140.058 163.356C139.906 163.204 139.738 163.072 139.554 162.96C139.378 162.84 139.198 162.748 139.014 162.684C138.83 162.62 138.662 162.588 138.51 162.588C138.342 162.588 138.19 162.604 138.054 162.636C137.918 162.668 137.802 162.716 137.706 162.78C137.618 162.844 137.55 162.924 137.502 163.02C137.454 163.116 137.43 163.224 137.43 163.344C137.438 163.448 137.462 163.548 137.502 163.644C137.55 163.732 137.614 163.808 137.694 163.872C137.782 163.936 137.914 164.004 138.09 164.076C138.266 164.148 138.49 164.216 138.762 164.28C139.162 164.384 139.49 164.5 139.746 164.628C140.01 164.748 140.218 164.888 140.37 165.048C140.53 165.2 140.642 165.376 140.706 165.576C140.77 165.776 140.802 166 140.802 166.248C140.802 166.608 140.698 166.932 140.49 167.22C140.29 167.5 140.018 167.72 139.674 167.88C139.33 168.04 138.946 168.12 138.522 168.12ZM145.704 168.12C145.056 168.12 144.48 167.984 143.976 167.712C143.48 167.432 143.088 167.052 142.8 166.572C142.52 166.092 142.38 165.54 142.38 164.916C142.38 164.42 142.46 163.968 142.62 163.56C142.78 163.152 143 162.8 143.28 162.504C143.568 162.2 143.908 161.968 144.3 161.808C144.7 161.64 145.132 161.556 145.596 161.556C146.004 161.556 146.384 161.636 146.736 161.796C147.088 161.948 147.392 162.16 147.648 162.432C147.912 162.704 148.112 163.028 148.248 163.404C148.392 163.772 148.46 164.176 148.452 164.616L148.44 165.144H143.292L143.016 164.16H147.372L147.192 164.364V164.076C147.168 163.812 147.08 163.576 146.928 163.368C146.776 163.16 146.584 162.996 146.352 162.876C146.12 162.756 145.868 162.696 145.596 162.696C145.164 162.696 144.8 162.78 144.504 162.948C144.208 163.108 143.984 163.348 143.832 163.668C143.68 163.98 143.604 164.368 143.604 164.832C143.604 165.272 143.696 165.656 143.88 165.984C144.064 166.304 144.324 166.552 144.66 166.728C144.996 166.904 145.384 166.992 145.824 166.992C146.136 166.992 146.424 166.94 146.688 166.836C146.96 166.732 147.252 166.544 147.564 166.272L148.188 167.148C147.996 167.34 147.76 167.508 147.48 167.652C147.208 167.796 146.916 167.912 146.604 168C146.3 168.08 146 168.12 145.704 168.12ZM153.072 168.12C152.488 168.12 151.964 167.976 151.5 167.688C151.044 167.4 150.68 167.008 150.408 166.512C150.144 166.016 150.012 165.46 150.012 164.844C150.012 164.228 150.144 163.672 150.408 163.176C150.68 162.68 151.044 162.288 151.5 162C151.964 161.712 152.488 161.568 153.072 161.568C153.632 161.568 154.14 161.684 154.596 161.916C155.06 162.14 155.412 162.448 155.652 162.84L154.968 163.68C154.84 163.496 154.676 163.328 154.476 163.176C154.276 163.024 154.064 162.904 153.84 162.816C153.616 162.728 153.4 162.684 153.192 162.684C152.808 162.684 152.464 162.78 152.16 162.972C151.864 163.156 151.628 163.412 151.452 163.74C151.276 164.068 151.188 164.436 151.188 164.844C151.188 165.252 151.28 165.62 151.464 165.948C151.648 166.268 151.892 166.524 152.196 166.716C152.5 166.908 152.836 167.004 153.204 167.004C153.42 167.004 153.628 166.968 153.828 166.896C154.036 166.824 154.236 166.716 154.428 166.572C154.62 166.428 154.8 166.252 154.968 166.044L155.652 166.884C155.396 167.244 155.028 167.54 154.548 167.772C154.076 168.004 153.584 168.12 153.072 168.12ZM159.626 168.12C159.178 168.12 158.786 168.016 158.45 167.808C158.122 167.6 157.866 167.308 157.682 166.932C157.506 166.556 157.418 166.108 157.418 165.588V161.7H158.654V165.252C158.654 165.62 158.71 165.94 158.822 166.212C158.942 166.476 159.11 166.68 159.326 166.824C159.55 166.968 159.818 167.04 160.13 167.04C160.362 167.04 160.574 167.004 160.766 166.932C160.958 166.852 161.122 166.744 161.258 166.608C161.402 166.472 161.514 166.308 161.594 166.116C161.674 165.924 161.714 165.716 161.714 165.492V161.7H162.95V168H161.714V166.68L161.93 166.536C161.834 166.832 161.67 167.1 161.438 167.34C161.214 167.58 160.946 167.772 160.634 167.916C160.322 168.052 159.986 168.12 159.626 168.12ZM165.283 168V161.7H166.531V163.68L166.411 163.2C166.499 162.896 166.647 162.62 166.855 162.372C167.071 162.124 167.315 161.928 167.587 161.784C167.867 161.64 168.155 161.568 168.451 161.568C168.587 161.568 168.715 161.58 168.835 161.604C168.963 161.628 169.063 161.656 169.135 161.688L168.811 163.032C168.715 162.992 168.607 162.96 168.487 162.936C168.375 162.904 168.263 162.888 168.151 162.888C167.935 162.888 167.727 162.932 167.527 163.02C167.335 163.1 167.163 163.216 167.011 163.368C166.867 163.512 166.751 163.684 166.663 163.884C166.575 164.076 166.531 164.288 166.531 164.52V168H165.283ZM170.927 168V161.7H172.163V168H170.927ZM171.527 160.308C171.263 160.308 171.059 160.24 170.915 160.104C170.771 159.968 170.699 159.776 170.699 159.528C170.699 159.296 170.771 159.108 170.915 158.964C171.067 158.82 171.271 158.748 171.527 158.748C171.791 158.748 171.995 158.816 172.139 158.952C172.283 159.088 172.355 159.28 172.355 159.528C172.355 159.76 172.279 159.948 172.127 160.092C171.983 160.236 171.783 160.308 171.527 160.308ZM175.443 168V160.092H176.679V168H175.443ZM174.135 162.9V161.7H178.143V162.9H174.135ZM180.924 170.76L182.196 167.82L182.208 168.804L179.064 161.7H180.504L182.472 166.332C182.512 166.412 182.56 166.536 182.616 166.704C182.672 166.864 182.72 167.024 182.76 167.184L182.448 167.256C182.512 167.088 182.572 166.92 182.628 166.752C182.692 166.584 182.752 166.416 182.808 166.248L184.452 161.7H185.916L183.324 168L182.256 170.76H180.924ZM193.828 168.12C193.308 168.12 192.832 167.976 192.4 167.688C191.976 167.4 191.636 167.008 191.38 166.512C191.124 166.016 190.996 165.456 190.996 164.832C190.996 164.2 191.124 163.64 191.38 163.152C191.644 162.656 191.996 162.268 192.436 161.988C192.884 161.708 193.384 161.568 193.936 161.568C194.264 161.568 194.564 161.616 194.836 161.712C195.108 161.808 195.344 161.944 195.544 162.12C195.752 162.288 195.92 162.484 196.048 162.708C196.184 162.932 196.268 163.172 196.3 163.428L196.024 163.332V161.7H197.272V168H196.024V166.5L196.312 166.416C196.264 166.632 196.164 166.844 196.012 167.052C195.868 167.252 195.68 167.432 195.448 167.592C195.224 167.752 194.972 167.88 194.692 167.976C194.42 168.072 194.132 168.12 193.828 168.12ZM194.152 166.98C194.528 166.98 194.86 166.888 195.148 166.704C195.436 166.52 195.66 166.268 195.82 165.948C195.988 165.62 196.072 165.248 196.072 164.832C196.072 164.424 195.988 164.06 195.82 163.74C195.66 163.42 195.436 163.168 195.148 162.984C194.86 162.8 194.528 162.708 194.152 162.708C193.784 162.708 193.456 162.8 193.168 162.984C192.888 163.168 192.664 163.42 192.496 163.74C192.336 164.06 192.256 164.424 192.256 164.832C192.256 165.248 192.336 165.62 192.496 165.948C192.664 166.268 192.888 166.52 193.168 166.704C193.456 166.888 193.784 166.98 194.152 166.98ZM199.598 168V161.7H200.834V162.996L200.618 163.14C200.698 162.86 200.854 162.604 201.086 162.372C201.318 162.132 201.594 161.94 201.914 161.796C202.234 161.644 202.562 161.568 202.898 161.568C203.378 161.568 203.778 161.664 204.098 161.856C204.418 162.04 204.658 162.324 204.818 162.708C204.978 163.092 205.058 163.576 205.058 164.16V168H203.822V164.244C203.822 163.884 203.774 163.588 203.678 163.356C203.582 163.116 203.434 162.944 203.234 162.84C203.034 162.728 202.786 162.68 202.49 162.696C202.25 162.696 202.03 162.736 201.83 162.816C201.63 162.888 201.454 162.992 201.302 163.128C201.158 163.264 201.042 163.424 200.954 163.608C200.874 163.784 200.834 163.976 200.834 164.184V168H200.222C200.118 168 200.014 168 199.91 168C199.806 168 199.702 168 199.598 168ZM209.963 168.12C209.387 168.12 208.871 167.98 208.415 167.7C207.967 167.412 207.611 167.024 207.347 166.536C207.083 166.04 206.951 165.476 206.951 164.844C206.951 164.212 207.079 163.652 207.335 163.164C207.599 162.668 207.955 162.28 208.403 162C208.851 161.712 209.359 161.568 209.927 161.568C210.239 161.568 210.539 161.62 210.827 161.724C211.123 161.82 211.387 161.956 211.619 162.132C211.851 162.3 212.031 162.488 212.159 162.696C212.295 162.896 212.363 163.1 212.363 163.308L212.003 163.332V159.12H213.239V168H212.003V166.5H212.243C212.243 166.692 212.179 166.884 212.051 167.076C211.923 167.26 211.751 167.432 211.535 167.592C211.327 167.752 211.083 167.88 210.803 167.976C210.531 168.072 210.251 168.12 209.963 168.12ZM210.131 167.052C210.507 167.052 210.839 166.956 211.127 166.764C211.415 166.572 211.639 166.312 211.799 165.984C211.967 165.648 212.051 165.268 212.051 164.844C212.051 164.42 211.967 164.044 211.799 163.716C211.639 163.38 211.415 163.116 211.127 162.924C210.839 162.732 210.507 162.636 210.131 162.636C209.755 162.636 209.423 162.732 209.135 162.924C208.847 163.116 208.619 163.38 208.451 163.716C208.291 164.044 208.211 164.42 208.211 164.844C208.211 165.268 208.291 165.648 208.451 165.984C208.619 166.312 208.847 166.572 209.135 166.764C209.423 166.956 209.755 167.052 210.131 167.052ZM97.5804 185.64V176.7H98.8284V178.14L98.6364 178.032C98.6844 177.792 98.8204 177.564 99.0444 177.348C99.2684 177.124 99.5404 176.944 99.8604 176.808C100.188 176.664 100.524 176.592 100.868 176.592C101.436 176.592 101.94 176.732 102.38 177.012C102.82 177.292 103.168 177.676 103.424 178.164C103.68 178.652 103.808 179.212 103.808 179.844C103.808 180.468 103.68 181.028 103.424 181.524C103.176 182.012 102.832 182.4 102.392 182.688C101.952 182.968 101.456 183.108 100.904 183.108C100.536 183.108 100.18 183.036 99.8364 182.892C99.4924 182.74 99.2004 182.548 98.9604 182.316C98.7204 182.084 98.5724 181.844 98.5164 181.596L98.8284 181.428V185.64H97.5804ZM100.7 181.968C101.068 181.968 101.396 181.876 101.684 181.692C101.972 181.508 102.2 181.256 102.368 180.936C102.536 180.616 102.62 180.252 102.62 179.844C102.62 179.436 102.536 179.076 102.368 178.764C102.208 178.444 101.984 178.192 101.696 178.008C101.408 177.824 101.076 177.732 100.7 177.732C100.324 177.732 99.9924 177.824 99.7044 178.008C99.4164 178.184 99.1884 178.432 99.0204 178.752C98.8524 179.072 98.7684 179.436 98.7684 179.844C98.7684 180.252 98.8524 180.616 99.0204 180.936C99.1884 181.256 99.4164 181.508 99.7044 181.692C99.9924 181.876 100.324 181.968 100.7 181.968ZM108.691 183.12C108.043 183.12 107.467 182.984 106.963 182.712C106.467 182.432 106.075 182.052 105.787 181.572C105.507 181.092 105.367 180.54 105.367 179.916C105.367 179.42 105.447 178.968 105.607 178.56C105.767 178.152 105.987 177.8 106.267 177.504C106.555 177.2 106.895 176.968 107.287 176.808C107.687 176.64 108.119 176.556 108.583 176.556C108.991 176.556 109.371 176.636 109.723 176.796C110.075 176.948 110.379 177.16 110.635 177.432C110.899 177.704 111.099 178.028 111.235 178.404C111.379 178.772 111.447 179.176 111.439 179.616L111.427 180.144H106.279L106.003 179.16H110.359L110.179 179.364V179.076C110.155 178.812 110.067 178.576 109.915 178.368C109.763 178.16 109.571 177.996 109.339 177.876C109.107 177.756 108.855 177.696 108.583 177.696C108.151 177.696 107.787 177.78 107.491 177.948C107.195 178.108 106.971 178.348 106.819 178.668C106.667 178.98 106.591 179.368 106.591 179.832C106.591 180.272 106.683 180.656 106.867 180.984C107.051 181.304 107.311 181.552 107.647 181.728C107.983 181.904 108.371 181.992 108.811 181.992C109.123 181.992 109.411 181.94 109.675 181.836C109.947 181.732 110.239 181.544 110.551 181.272L111.175 182.148C110.983 182.34 110.747 182.508 110.467 182.652C110.195 182.796 109.903 182.912 109.591 183C109.287 183.08 108.987 183.12 108.691 183.12ZM115.806 183.12C115.286 183.12 114.81 182.976 114.378 182.688C113.954 182.4 113.614 182.008 113.358 181.512C113.102 181.016 112.974 180.456 112.974 179.832C112.974 179.2 113.102 178.64 113.358 178.152C113.622 177.656 113.974 177.268 114.414 176.988C114.862 176.708 115.362 176.568 115.914 176.568C116.242 176.568 116.542 176.616 116.814 176.712C117.086 176.808 117.322 176.944 117.522 177.12C117.73 177.288 117.898 177.484 118.026 177.708C118.162 177.932 118.246 178.172 118.278 178.428L118.002 178.332V176.7H119.25V183H118.002V181.5L118.29 181.416C118.242 181.632 118.142 181.844 117.99 182.052C117.846 182.252 117.658 182.432 117.426 182.592C117.202 182.752 116.95 182.88 116.67 182.976C116.398 183.072 116.11 183.12 115.806 183.12ZM116.13 181.98C116.506 181.98 116.838 181.888 117.126 181.704C117.414 181.52 117.638 181.268 117.798 180.948C117.966 180.62 118.05 180.248 118.05 179.832C118.05 179.424 117.966 179.06 117.798 178.74C117.638 178.42 117.414 178.168 117.126 177.984C116.838 177.8 116.506 177.708 116.13 177.708C115.762 177.708 115.434 177.8 115.146 177.984C114.866 178.168 114.642 178.42 114.474 178.74C114.314 179.06 114.234 179.424 114.234 179.832C114.234 180.248 114.314 180.62 114.474 180.948C114.642 181.268 114.866 181.52 115.146 181.704C115.434 181.888 115.762 181.98 116.13 181.98ZM124.252 183.12C123.668 183.12 123.144 182.976 122.68 182.688C122.224 182.4 121.86 182.008 121.588 181.512C121.324 181.016 121.192 180.46 121.192 179.844C121.192 179.228 121.324 178.672 121.588 178.176C121.86 177.68 122.224 177.288 122.68 177C123.144 176.712 123.668 176.568 124.252 176.568C124.812 176.568 125.32 176.684 125.776 176.916C126.24 177.14 126.592 177.448 126.832 177.84L126.148 178.68C126.02 178.496 125.856 178.328 125.656 178.176C125.456 178.024 125.244 177.904 125.02 177.816C124.796 177.728 124.58 177.684 124.372 177.684C123.988 177.684 123.644 177.78 123.34 177.972C123.044 178.156 122.808 178.412 122.632 178.74C122.456 179.068 122.368 179.436 122.368 179.844C122.368 180.252 122.46 180.62 122.644 180.948C122.828 181.268 123.072 181.524 123.376 181.716C123.68 181.908 124.016 182.004 124.384 182.004C124.6 182.004 124.808 181.968 125.008 181.896C125.216 181.824 125.416 181.716 125.608 181.572C125.8 181.428 125.98 181.252 126.148 181.044L126.832 181.884C126.576 182.244 126.208 182.54 125.728 182.772C125.256 183.004 124.764 183.12 124.252 183.12ZM131.538 183.12C130.89 183.12 130.314 182.984 129.81 182.712C129.314 182.432 128.922 182.052 128.634 181.572C128.354 181.092 128.214 180.54 128.214 179.916C128.214 179.42 128.294 178.968 128.454 178.56C128.614 178.152 128.834 177.8 129.114 177.504C129.402 177.2 129.742 176.968 130.134 176.808C130.534 176.64 130.966 176.556 131.43 176.556C131.838 176.556 132.218 176.636 132.57 176.796C132.922 176.948 133.226 177.16 133.482 177.432C133.746 177.704 133.946 178.028 134.082 178.404C134.226 178.772 134.294 179.176 134.286 179.616L134.274 180.144H129.126L128.85 179.16H133.206L133.026 179.364V179.076C133.002 178.812 132.914 178.576 132.762 178.368C132.61 178.16 132.418 177.996 132.186 177.876C131.954 177.756 131.702 177.696 131.43 177.696C130.998 177.696 130.634 177.78 130.338 177.948C130.042 178.108 129.818 178.348 129.666 178.668C129.514 178.98 129.438 179.368 129.438 179.832C129.438 180.272 129.53 180.656 129.714 180.984C129.898 181.304 130.158 181.552 130.494 181.728C130.83 181.904 131.218 181.992 131.658 181.992C131.97 181.992 132.258 181.94 132.522 181.836C132.794 181.732 133.086 181.544 133.398 181.272L134.022 182.148C133.83 182.34 133.594 182.508 133.314 182.652C133.042 182.796 132.75 182.912 132.438 183C132.134 183.08 131.834 183.12 131.538 183.12ZM143.024 183.12C142.408 183.12 141.856 182.98 141.368 182.7C140.888 182.412 140.508 182.024 140.228 181.536C139.948 181.04 139.808 180.476 139.808 179.844C139.808 179.212 139.948 178.652 140.228 178.164C140.508 177.668 140.888 177.28 141.368 177C141.856 176.712 142.408 176.568 143.024 176.568C143.632 176.568 144.176 176.712 144.656 177C145.144 177.28 145.528 177.668 145.808 178.164C146.088 178.652 146.228 179.212 146.228 179.844C146.228 180.476 146.088 181.04 145.808 181.536C145.528 182.024 145.144 182.412 144.656 182.7C144.176 182.98 143.632 183.12 143.024 183.12ZM143.024 181.992C143.4 181.992 143.736 181.9 144.032 181.716C144.328 181.524 144.56 181.268 144.728 180.948C144.896 180.62 144.976 180.252 144.968 179.844C144.976 179.428 144.896 179.06 144.728 178.74C144.56 178.412 144.328 178.156 144.032 177.972C143.736 177.788 143.4 177.696 143.024 177.696C142.648 177.696 142.308 177.792 142.004 177.984C141.708 178.168 141.476 178.424 141.308 178.752C141.14 179.072 141.06 179.436 141.068 179.844C141.06 180.252 141.14 180.62 141.308 180.948C141.476 181.268 141.708 181.524 142.004 181.716C142.308 181.9 142.648 181.992 143.024 181.992ZM148.625 183V175.992C148.625 175.632 148.705 175.312 148.865 175.032C149.025 174.752 149.245 174.532 149.525 174.372C149.805 174.212 150.129 174.132 150.497 174.132C150.753 174.132 150.993 174.18 151.217 174.276C151.441 174.372 151.621 174.5 151.757 174.66L151.337 175.608C151.233 175.512 151.117 175.436 150.989 175.38C150.869 175.316 150.753 175.284 150.641 175.284C150.473 175.284 150.329 175.312 150.209 175.368C150.097 175.416 150.013 175.496 149.957 175.608C149.901 175.712 149.873 175.84 149.873 175.992V183H149.249C149.145 183 149.041 183 148.937 183C148.833 183 148.729 183 148.625 183ZM147.617 177.948V176.808H151.361V177.948H147.617ZM157.191 183V176.7H158.439V178.044L158.211 178.188C158.275 177.98 158.375 177.78 158.511 177.588C158.655 177.396 158.827 177.228 159.027 177.084C159.235 176.932 159.455 176.812 159.687 176.724C159.927 176.636 160.171 176.592 160.419 176.592C160.779 176.592 161.095 176.652 161.367 176.772C161.639 176.892 161.863 177.072 162.039 177.312C162.215 177.552 162.343 177.852 162.423 178.212L162.231 178.164L162.315 177.96C162.403 177.776 162.523 177.604 162.675 177.444C162.835 177.276 163.015 177.128 163.215 177C163.415 176.872 163.627 176.772 163.851 176.7C164.075 176.628 164.295 176.592 164.511 176.592C164.983 176.592 165.371 176.688 165.675 176.88C165.987 177.072 166.219 177.364 166.371 177.756C166.531 178.148 166.611 178.636 166.611 179.22V183H165.363V179.292C165.363 178.932 165.315 178.64 165.219 178.416C165.131 178.184 164.995 178.012 164.811 177.9C164.627 177.788 164.391 177.732 164.103 177.732C163.879 177.732 163.667 177.772 163.467 177.852C163.275 177.924 163.107 178.028 162.963 178.164C162.819 178.3 162.707 178.46 162.627 178.644C162.547 178.82 162.507 179.016 162.507 179.232V183H161.259V179.268C161.259 178.94 161.211 178.664 161.115 178.44C161.019 178.208 160.879 178.032 160.695 177.912C160.511 177.792 160.287 177.732 160.023 177.732C159.799 177.732 159.591 177.772 159.399 177.852C159.207 177.924 159.039 178.028 158.895 178.164C158.751 178.292 158.639 178.448 158.559 178.632C158.479 178.808 158.439 179 158.439 179.208V183H157.191ZM169.07 183V176.7H170.306V183H169.07ZM169.67 175.308C169.406 175.308 169.202 175.24 169.058 175.104C168.914 174.968 168.842 174.776 168.842 174.528C168.842 174.296 168.914 174.108 169.058 173.964C169.21 173.82 169.414 173.748 169.67 173.748C169.934 173.748 170.138 173.816 170.282 173.952C170.426 174.088 170.498 174.28 170.498 174.528C170.498 174.76 170.422 174.948 170.27 175.092C170.126 175.236 169.926 175.308 169.67 175.308ZM172.805 183V176.7H174.041V177.996L173.825 178.14C173.905 177.86 174.061 177.604 174.293 177.372C174.525 177.132 174.801 176.94 175.121 176.796C175.441 176.644 175.769 176.568 176.105 176.568C176.585 176.568 176.985 176.664 177.305 176.856C177.625 177.04 177.865 177.324 178.025 177.708C178.185 178.092 178.265 178.576 178.265 179.16V183H177.029V179.244C177.029 178.884 176.981 178.588 176.885 178.356C176.789 178.116 176.641 177.944 176.441 177.84C176.241 177.728 175.993 177.68 175.697 177.696C175.457 177.696 175.237 177.736 175.037 177.816C174.837 177.888 174.661 177.992 174.509 178.128C174.365 178.264 174.249 178.424 174.161 178.608C174.081 178.784 174.041 178.976 174.041 179.184V183H173.429C173.325 183 173.221 183 173.117 183C173.013 183 172.909 183 172.805 183ZM183.17 183.12C182.594 183.12 182.078 182.98 181.622 182.7C181.174 182.412 180.818 182.024 180.554 181.536C180.29 181.04 180.158 180.476 180.158 179.844C180.158 179.212 180.286 178.652 180.542 178.164C180.806 177.668 181.162 177.28 181.61 177C182.058 176.712 182.566 176.568 183.134 176.568C183.446 176.568 183.746 176.62 184.034 176.724C184.33 176.82 184.594 176.956 184.826 177.132C185.058 177.3 185.238 177.488 185.366 177.696C185.502 177.896 185.57 178.1 185.57 178.308L185.21 178.332V174.12H186.446V183H185.21V181.5H185.45C185.45 181.692 185.386 181.884 185.258 182.076C185.13 182.26 184.958 182.432 184.742 182.592C184.534 182.752 184.29 182.88 184.01 182.976C183.738 183.072 183.458 183.12 183.17 183.12ZM183.338 182.052C183.714 182.052 184.046 181.956 184.334 181.764C184.622 181.572 184.846 181.312 185.006 180.984C185.174 180.648 185.258 180.268 185.258 179.844C185.258 179.42 185.174 179.044 185.006 178.716C184.846 178.38 184.622 178.116 184.334 177.924C184.046 177.732 183.714 177.636 183.338 177.636C182.962 177.636 182.63 177.732 182.342 177.924C182.054 178.116 181.826 178.38 181.658 178.716C181.498 179.044 181.418 179.42 181.418 179.844C181.418 180.268 181.498 180.648 181.658 180.984C181.826 181.312 182.054 181.572 182.342 181.764C182.63 181.956 182.962 182.052 183.338 182.052Z" fill="#646464"/>
<path d="M50.375 129L54.44 118.5H56.09L60.125 129H58.4L56 122.67C55.97 122.6 55.91 122.43 55.82 122.16C55.74 121.89 55.645 121.59 55.535 121.26C55.425 120.93 55.325 120.63 55.235 120.36C55.145 120.08 55.085 119.9 55.055 119.82L55.4 119.805C55.34 119.975 55.265 120.19 55.175 120.45C55.095 120.71 55.005 120.985 54.905 121.275C54.815 121.565 54.725 121.84 54.635 122.1C54.545 122.35 54.47 122.56 54.41 122.73L52.025 129H50.375ZM52.175 126.39L52.775 124.83H57.545L58.235 126.39H52.175ZM62.1829 129V121.125H63.7279V122.745L63.4579 122.925C63.5579 122.575 63.7529 122.255 64.0429 121.965C64.3329 121.665 64.6779 121.425 65.0779 121.245C65.4779 121.055 65.8879 120.96 66.3079 120.96C66.9079 120.96 67.4079 121.08 67.8079 121.32C68.2079 121.55 68.5079 121.905 68.7079 122.385C68.9079 122.865 69.0079 123.47 69.0079 124.2V129H67.4629V124.305C67.4629 123.855 67.4029 123.485 67.2829 123.195C67.1629 122.895 66.9779 122.68 66.7279 122.55C66.4779 122.41 66.1679 122.35 65.7979 122.37C65.4979 122.37 65.2229 122.42 64.9729 122.52C64.7229 122.61 64.5029 122.74 64.3129 122.91C64.1329 123.08 63.9879 123.28 63.8779 123.51C63.7779 123.73 63.7279 123.97 63.7279 124.23V129H62.9629C62.8329 129 62.7029 129 62.5729 129C62.4429 129 62.3129 129 62.1829 129ZM75.2288 132.45C74.6688 132.45 74.1088 132.36 73.5488 132.18C72.9988 132.01 72.5538 131.785 72.2138 131.505L72.7838 130.305C72.9838 130.455 73.2188 130.585 73.4888 130.695C73.7588 130.815 74.0438 130.905 74.3438 130.965C74.6438 131.035 74.9388 131.07 75.2288 131.07C75.7788 131.07 76.2388 130.98 76.6088 130.8C76.9788 130.62 77.2588 130.355 77.4488 130.005C77.6388 129.655 77.7338 129.22 77.7338 128.7V127.185L77.8988 127.29C77.8488 127.6 77.6838 127.9 77.4038 128.19C77.1338 128.47 76.7938 128.7 76.3838 128.88C75.9738 129.06 75.5538 129.15 75.1238 129.15C74.3738 129.15 73.7038 128.975 73.1138 128.625C72.5338 128.265 72.0738 127.78 71.7338 127.17C71.3938 126.55 71.2238 125.845 71.2238 125.055C71.2238 124.265 71.3888 123.565 71.7188 122.955C72.0588 122.335 72.5188 121.85 73.0988 121.5C73.6888 121.14 74.3488 120.96 75.0788 120.96C75.3788 120.96 75.6688 121 75.9488 121.08C76.2288 121.15 76.4888 121.255 76.7288 121.395C76.9688 121.525 77.1838 121.67 77.3738 121.83C77.5638 121.99 77.7188 122.16 77.8388 122.34C77.9588 122.52 78.0338 122.69 78.0638 122.85L77.7338 122.97V121.125H79.2788V128.52C79.2788 129.15 79.1838 129.705 78.9938 130.185C78.8138 130.675 78.5488 131.085 78.1988 131.415C77.8488 131.755 77.4238 132.01 76.9238 132.18C76.4238 132.36 75.8588 132.45 75.2288 132.45ZM75.2888 127.725C75.7788 127.725 76.2138 127.61 76.5938 127.38C76.9738 127.15 77.2688 126.835 77.4788 126.435C77.6888 126.035 77.7938 125.575 77.7938 125.055C77.7938 124.535 77.6838 124.075 77.4638 123.675C77.2538 123.265 76.9588 122.945 76.5788 122.715C76.2088 122.485 75.7788 122.37 75.2888 122.37C74.8088 122.37 74.3788 122.49 73.9988 122.73C73.6288 122.96 73.3338 123.28 73.1138 123.69C72.9038 124.09 72.7988 124.545 72.7988 125.055C72.7988 125.565 72.9038 126.025 73.1138 126.435C73.3338 126.835 73.6288 127.15 73.9988 127.38C74.3788 127.61 74.8088 127.725 75.2888 127.725ZM85.72 129.15C84.91 129.15 84.19 128.98 83.56 128.64C82.94 128.29 82.45 127.815 82.09 127.215C81.74 126.615 81.565 125.925 81.565 125.145C81.565 124.525 81.665 123.96 81.865 123.45C82.065 122.94 82.34 122.5 82.69 122.13C83.05 121.75 83.475 121.46 83.965 121.26C84.465 121.05 85.005 120.945 85.585 120.945C86.095 120.945 86.57 121.045 87.01 121.245C87.45 121.435 87.83 121.7 88.15 122.04C88.48 122.38 88.73 122.785 88.9 123.255C89.08 123.715 89.165 124.22 89.155 124.77L89.14 125.43H82.705L82.36 124.2H87.805L87.58 124.455V124.095C87.55 123.765 87.44 123.47 87.25 123.21C87.06 122.95 86.82 122.745 86.53 122.595C86.24 122.445 85.925 122.37 85.585 122.37C85.045 122.37 84.59 122.475 84.22 122.685C83.85 122.885 83.57 123.185 83.38 123.585C83.19 123.975 83.095 124.46 83.095 125.04C83.095 125.59 83.21 126.07 83.44 126.48C83.67 126.88 83.995 127.19 84.415 127.41C84.835 127.63 85.32 127.74 85.87 127.74C86.26 127.74 86.62 127.675 86.95 127.545C87.29 127.415 87.655 127.18 88.045 126.84L88.825 127.935C88.585 128.175 88.29 128.385 87.94 128.565C87.6 128.745 87.235 128.89 86.845 129C86.465 129.1 86.09 129.15 85.72 129.15ZM91.4641 129V117.9H93.0091V129H91.4641ZM104.688 129.15C104.038 129.15 103.443 129.07 102.903 128.91C102.373 128.75 101.898 128.515 101.478 128.205C101.068 127.895 100.698 127.52 100.368 127.08L101.778 125.475C102.268 126.155 102.753 126.62 103.233 126.87C103.723 127.11 104.253 127.23 104.823 127.23C105.133 127.23 105.408 127.19 105.648 127.11C105.898 127.02 106.093 126.895 106.233 126.735C106.373 126.575 106.443 126.385 106.443 126.165C106.443 126.005 106.408 125.86 106.338 125.73C106.268 125.59 106.168 125.47 106.038 125.37C105.908 125.26 105.753 125.165 105.573 125.085C105.393 124.995 105.193 124.92 104.973 124.86C104.753 124.79 104.513 124.735 104.253 124.695C103.693 124.565 103.203 124.41 102.783 124.23C102.363 124.04 102.013 123.81 101.733 123.54C101.453 123.26 101.243 122.945 101.103 122.595C100.973 122.245 100.908 121.85 100.908 121.41C100.908 120.96 101.008 120.545 101.208 120.165C101.408 119.775 101.683 119.44 102.033 119.16C102.393 118.88 102.803 118.665 103.263 118.515C103.733 118.365 104.228 118.29 104.748 118.29C105.388 118.29 105.948 118.365 106.428 118.515C106.908 118.655 107.323 118.86 107.673 119.13C108.033 119.4 108.333 119.73 108.573 120.12L107.148 121.5C106.938 121.22 106.708 120.985 106.458 120.795C106.218 120.605 105.953 120.465 105.663 120.375C105.383 120.275 105.093 120.225 104.793 120.225C104.463 120.225 104.178 120.27 103.938 120.36C103.698 120.44 103.508 120.56 103.368 120.72C103.238 120.88 103.173 121.075 103.173 121.305C103.173 121.485 103.218 121.645 103.308 121.785C103.398 121.925 103.528 122.05 103.698 122.16C103.868 122.26 104.073 122.35 104.313 122.43C104.553 122.51 104.818 122.58 105.108 122.64C105.658 122.75 106.153 122.895 106.593 123.075C107.033 123.255 107.408 123.475 107.718 123.735C108.038 123.985 108.283 124.285 108.453 124.635C108.623 124.975 108.708 125.36 108.708 125.79C108.708 126.5 108.538 127.105 108.198 127.605C107.858 128.105 107.388 128.49 106.788 128.76C106.188 129.02 105.488 129.15 104.688 129.15ZM114.496 129.15C113.736 129.15 113.056 128.97 112.456 128.61C111.856 128.25 111.381 127.76 111.031 127.14C110.691 126.52 110.521 125.815 110.521 125.025C110.521 124.245 110.691 123.545 111.031 122.925C111.381 122.295 111.856 121.8 112.456 121.44C113.056 121.08 113.736 120.9 114.496 120.9C115.206 120.9 115.856 121.03 116.446 121.29C117.036 121.55 117.496 121.91 117.826 122.37L116.656 123.78C116.516 123.59 116.341 123.42 116.131 123.27C115.921 123.11 115.691 122.985 115.441 122.895C115.201 122.805 114.951 122.76 114.691 122.76C114.281 122.76 113.916 122.86 113.596 123.06C113.286 123.25 113.041 123.515 112.861 123.855C112.681 124.195 112.591 124.585 112.591 125.025C112.591 125.455 112.681 125.84 112.861 126.18C113.051 126.51 113.306 126.78 113.626 126.99C113.946 127.19 114.306 127.29 114.706 127.29C114.966 127.29 115.211 127.255 115.441 127.185C115.671 127.105 115.886 126.99 116.086 126.84C116.296 126.69 116.486 126.51 116.656 126.3L117.811 127.71C117.471 128.14 117.001 128.49 116.401 128.76C115.801 129.02 115.166 129.15 114.496 129.15ZM122.746 129.15C122.086 129.15 121.491 128.97 120.961 128.61C120.431 128.25 120.011 127.76 119.701 127.14C119.391 126.52 119.236 125.81 119.236 125.01C119.236 124.21 119.391 123.505 119.701 122.895C120.021 122.275 120.451 121.79 120.991 121.44C121.531 121.08 122.146 120.9 122.836 120.9C123.226 120.9 123.581 120.96 123.901 121.08C124.231 121.19 124.516 121.345 124.756 121.545C125.006 121.745 125.216 121.975 125.386 122.235C125.556 122.495 125.676 122.775 125.746 123.075L125.296 123V121.065H127.411V129H125.266V127.095L125.746 127.05C125.666 127.33 125.536 127.595 125.356 127.845C125.176 128.095 124.951 128.32 124.681 128.52C124.421 128.71 124.126 128.865 123.796 128.985C123.466 129.095 123.116 129.15 122.746 129.15ZM123.331 127.305C123.731 127.305 124.081 127.21 124.381 127.02C124.681 126.83 124.911 126.565 125.071 126.225C125.241 125.875 125.326 125.47 125.326 125.01C125.326 124.56 125.241 124.165 125.071 123.825C124.911 123.485 124.681 123.22 124.381 123.03C124.081 122.83 123.731 122.73 123.331 122.73C122.941 122.73 122.596 122.83 122.296 123.03C122.006 123.22 121.776 123.485 121.606 123.825C121.436 124.165 121.351 124.56 121.351 125.01C121.351 125.47 121.436 125.875 121.606 126.225C121.776 126.565 122.006 126.83 122.296 127.02C122.596 127.21 122.941 127.305 123.331 127.305ZM130.162 129V117.9H132.292V129H130.162ZM138.672 129.15C137.812 129.15 137.062 128.975 136.422 128.625C135.782 128.275 135.282 127.795 134.922 127.185C134.562 126.575 134.382 125.875 134.382 125.085C134.382 124.475 134.482 123.915 134.682 123.405C134.882 122.895 135.162 122.455 135.522 122.085C135.882 121.705 136.307 121.415 136.797 121.215C137.297 121.005 137.837 120.9 138.417 120.9C138.957 120.9 139.457 121 139.917 121.2C140.377 121.39 140.772 121.665 141.102 122.025C141.442 122.375 141.702 122.79 141.882 123.27C142.062 123.75 142.142 124.275 142.122 124.845L142.107 125.505H135.732L135.387 124.2H140.352L140.112 124.47V124.14C140.092 123.87 140.002 123.625 139.842 123.405C139.692 123.185 139.497 123.015 139.257 122.895C139.017 122.775 138.747 122.715 138.447 122.715C138.007 122.715 137.632 122.8 137.322 122.97C137.022 123.14 136.792 123.39 136.632 123.72C136.472 124.05 136.392 124.45 136.392 124.92C136.392 125.4 136.492 125.815 136.692 126.165C136.902 126.515 137.192 126.79 137.562 126.99C137.942 127.18 138.387 127.275 138.897 127.275C139.247 127.275 139.567 127.22 139.857 127.11C140.147 127 140.457 126.81 140.787 126.54L141.807 127.965C141.517 128.225 141.197 128.445 140.847 128.625C140.497 128.795 140.137 128.925 139.767 129.015C139.397 129.105 139.032 129.15 138.672 129.15ZM149.795 129V118.5H154.25C154.87 118.5 155.43 118.65 155.93 118.95C156.44 119.24 156.84 119.64 157.13 120.15C157.43 120.66 157.58 121.235 157.58 121.875C157.58 122.525 157.43 123.11 157.13 123.63C156.84 124.15 156.44 124.565 155.93 124.875C155.43 125.175 154.87 125.325 154.25 125.325H152.045V129H149.795ZM152.015 123.3H153.995C154.235 123.3 154.45 123.24 154.64 123.12C154.83 122.99 154.98 122.82 155.09 122.61C155.21 122.4 155.27 122.16 155.27 121.89C155.27 121.62 155.21 121.385 155.09 121.185C154.98 120.975 154.83 120.815 154.64 120.705C154.45 120.585 154.235 120.525 153.995 120.525H152.015V123.3ZM159.895 129V121.065H161.95L162.025 123.615L161.665 123.09C161.785 122.68 161.98 122.31 162.25 121.98C162.52 121.64 162.835 121.375 163.195 121.185C163.565 120.995 163.95 120.9 164.35 120.9C164.52 120.9 164.685 120.915 164.845 120.945C165.005 120.975 165.14 121.01 165.25 121.05L164.68 123.39C164.56 123.33 164.415 123.28 164.245 123.24C164.075 123.19 163.9 123.165 163.72 123.165C163.48 123.165 163.255 123.21 163.045 123.3C162.845 123.38 162.67 123.5 162.52 123.66C162.37 123.81 162.25 123.99 162.16 124.2C162.08 124.41 162.04 124.64 162.04 124.89V129H159.895ZM170.426 129.15C169.616 129.15 168.891 128.975 168.251 128.625C167.621 128.265 167.121 127.775 166.751 127.155C166.391 126.535 166.211 125.825 166.211 125.025C166.211 124.225 166.391 123.52 166.751 122.91C167.121 122.29 167.621 121.8 168.251 121.44C168.891 121.08 169.616 120.9 170.426 120.9C171.226 120.9 171.941 121.08 172.571 121.44C173.211 121.8 173.711 122.29 174.071 122.91C174.431 123.52 174.611 124.225 174.611 125.025C174.611 125.825 174.431 126.535 174.071 127.155C173.711 127.775 173.211 128.265 172.571 128.625C171.941 128.975 171.226 129.15 170.426 129.15ZM170.426 127.29C170.816 127.29 171.166 127.195 171.476 127.005C171.786 126.805 172.026 126.535 172.196 126.195C172.376 125.845 172.466 125.455 172.466 125.025C172.466 124.585 172.376 124.195 172.196 123.855C172.026 123.505 171.786 123.235 171.476 123.045C171.166 122.845 170.816 122.745 170.426 122.745C170.026 122.745 169.671 122.845 169.361 123.045C169.051 123.245 168.806 123.515 168.626 123.855C168.446 124.195 168.361 124.585 168.371 125.025C168.361 125.455 168.446 125.845 168.626 126.195C168.806 126.535 169.051 126.805 169.361 127.005C169.671 127.195 170.026 127.29 170.426 127.29ZM177.578 129V119.055H179.708V129H177.578ZM176.093 122.97V121.065H181.328V122.97H176.093ZM187.008 129.15C186.148 129.15 185.398 128.975 184.758 128.625C184.118 128.275 183.618 127.795 183.258 127.185C182.898 126.575 182.718 125.875 182.718 125.085C182.718 124.475 182.818 123.915 183.018 123.405C183.218 122.895 183.498 122.455 183.858 122.085C184.218 121.705 184.643 121.415 185.133 121.215C185.633 121.005 186.173 120.9 186.753 120.9C187.293 120.9 187.793 121 188.253 121.2C188.713 121.39 189.108 121.665 189.438 122.025C189.778 122.375 190.038 122.79 190.218 123.27C190.398 123.75 190.478 124.275 190.458 124.845L190.443 125.505H184.068L183.723 124.2H188.688L188.448 124.47V124.14C188.428 123.87 188.338 123.625 188.178 123.405C188.028 123.185 187.833 123.015 187.593 122.895C187.353 122.775 187.083 122.715 186.783 122.715C186.343 122.715 185.968 122.8 185.658 122.97C185.358 123.14 185.128 123.39 184.968 123.72C184.808 124.05 184.728 124.45 184.728 124.92C184.728 125.4 184.828 125.815 185.028 126.165C185.238 126.515 185.528 126.79 185.898 126.99C186.278 127.18 186.723 127.275 187.233 127.275C187.583 127.275 187.903 127.22 188.193 127.11C188.483 127 188.793 126.81 189.123 126.54L190.143 127.965C189.853 128.225 189.533 128.445 189.183 128.625C188.833 128.795 188.473 128.925 188.103 129.015C187.733 129.105 187.368 129.15 187.008 129.15ZM196.082 129.15C195.322 129.15 194.642 128.97 194.042 128.61C193.442 128.25 192.967 127.76 192.617 127.14C192.277 126.52 192.107 125.815 192.107 125.025C192.107 124.245 192.277 123.545 192.617 122.925C192.967 122.295 193.442 121.8 194.042 121.44C194.642 121.08 195.322 120.9 196.082 120.9C196.792 120.9 197.442 121.03 198.032 121.29C198.622 121.55 199.082 121.91 199.412 122.37L198.242 123.78C198.102 123.59 197.927 123.42 197.717 123.27C197.507 123.11 197.277 122.985 197.027 122.895C196.787 122.805 196.537 122.76 196.277 122.76C195.867 122.76 195.502 122.86 195.182 123.06C194.872 123.25 194.627 123.515 194.447 123.855C194.267 124.195 194.177 124.585 194.177 125.025C194.177 125.455 194.267 125.84 194.447 126.18C194.637 126.51 194.892 126.78 195.212 126.99C195.532 127.19 195.892 127.29 196.292 127.29C196.552 127.29 196.797 127.255 197.027 127.185C197.257 127.105 197.472 126.99 197.672 126.84C197.882 126.69 198.072 126.51 198.242 126.3L199.397 127.71C199.057 128.14 198.587 128.49 197.987 128.76C197.387 129.02 196.752 129.15 196.082 129.15ZM202.127 129V119.055H204.257V129H202.127ZM200.642 122.97V121.065H205.877V122.97H200.642ZM208.045 129V121.065H210.175V129H208.045ZM209.095 119.43C208.685 119.43 208.365 119.33 208.135 119.13C207.905 118.93 207.79 118.645 207.79 118.275C207.79 117.935 207.905 117.66 208.135 117.45C208.375 117.23 208.695 117.12 209.095 117.12C209.505 117.12 209.825 117.225 210.055 117.435C210.285 117.635 210.4 117.915 210.4 118.275C210.4 118.625 210.28 118.905 210.04 119.115C209.81 119.325 209.495 119.43 209.095 119.43ZM216.74 129.15C215.93 129.15 215.205 128.975 214.565 128.625C213.935 128.265 213.435 127.775 213.065 127.155C212.705 126.535 212.525 125.825 212.525 125.025C212.525 124.225 212.705 123.52 213.065 122.91C213.435 122.29 213.935 121.8 214.565 121.44C215.205 121.08 215.93 120.9 216.74 120.9C217.54 120.9 218.255 121.08 218.885 121.44C219.525 121.8 220.025 122.29 220.385 122.91C220.745 123.52 220.925 124.225 220.925 125.025C220.925 125.825 220.745 126.535 220.385 127.155C220.025 127.775 219.525 128.265 218.885 128.625C218.255 128.975 217.54 129.15 216.74 129.15ZM216.74 127.29C217.13 127.29 217.48 127.195 217.79 127.005C218.1 126.805 218.34 126.535 218.51 126.195C218.69 125.845 218.78 125.455 218.78 125.025C218.78 124.585 218.69 124.195 218.51 123.855C218.34 123.505 218.1 123.235 217.79 123.045C217.48 122.845 217.13 122.745 216.74 122.745C216.34 122.745 215.985 122.845 215.675 123.045C215.365 123.245 215.12 123.515 214.94 123.855C214.76 124.195 214.675 124.585 214.685 125.025C214.675 125.455 214.76 125.845 214.94 126.195C215.12 126.535 215.365 126.805 215.675 127.005C215.985 127.195 216.34 127.29 216.74 127.29ZM223.128 129V121.065H225.168L225.228 122.685L224.808 122.865C224.918 122.505 225.113 122.18 225.393 121.89C225.683 121.59 226.028 121.35 226.428 121.17C226.828 120.99 227.248 120.9 227.688 120.9C228.288 120.9 228.788 121.02 229.188 121.26C229.598 121.5 229.903 121.865 230.103 122.355C230.313 122.835 230.418 123.43 230.418 124.14V129H228.288V124.305C228.288 123.945 228.238 123.645 228.138 123.405C228.038 123.165 227.883 122.99 227.673 122.88C227.473 122.76 227.223 122.71 226.923 122.73C226.683 122.73 226.458 122.77 226.248 122.85C226.048 122.92 225.873 123.025 225.723 123.165C225.583 123.305 225.468 123.465 225.378 123.645C225.298 123.825 225.258 124.02 225.258 124.23V129H224.208C223.978 129 223.773 129 223.593 129C223.413 129 223.258 129 223.128 129Z" fill="#141414"/>
<path d="M167.199 48.8005C152.239 48.7945 145.558 39.6697 143.738 36.5965C143.373 35.9797 142.717 35.6005 141.999 35.6005C141.281 35.6005 140.626 35.9797 140.26 36.5965C138.44 39.6697 131.759 48.7945 116.799 48.8005C115.474 48.8005 114.399 49.8757 114.399 51.2005V64.4005C114.399 87.3157 134.289 97.5745 139.54 99.8821C140.319 100.224 141.149 100.4 141.999 100.4C142.849 100.4 143.679 100.224 144.458 99.8821C149.709 97.5745 169.599 87.3157 169.599 64.4005V51.2005C169.599 49.8757 168.524 48.8005 167.199 48.8005V48.8005ZM141.999 68.0005C146.63 68.0005 150.399 71.2297 150.399 75.2005C150.399 78.4561 147.865 81.2101 144.399 82.0969V86.0005H139.599V82.0969C136.133 81.2101 133.599 78.4561 133.599 75.2005H138.399C138.399 76.4785 140.081 77.6005 141.999 77.6005C143.917 77.6005 145.599 76.4785 145.599 75.2005C145.599 73.9225 143.917 72.8005 141.999 72.8005C137.368 72.8005 133.599 69.5713 133.599 65.6005C133.599 62.3449 136.133 59.5909 139.599 58.7041V54.8005H144.399V58.7041C147.865 59.5909 150.399 62.3449 150.399 65.6005H145.599C145.599 64.3225 143.917 63.2005 141.999 63.2005C140.081 63.2005 138.399 64.3225 138.399 65.6005C138.399 66.8785 140.081 68.0005 141.999 68.0005Z" fill="url(#paint0_linear_2_2327)"/>
<defs>
<filter id="filter0_d_2_2327" x="0.950481" y="0.290234" width="281.099" height="242.099" filterUnits="userSpaceOnUse" color-interpolation-filters="sRGB">
<feFlood flood-opacity="0" result="BackgroundImageFix"/>
<feColorMatrix in="SourceAlpha" type="matrix" values="0 0 0 0 0 0 0 0 0 0 0 0 0 0 0 0 0 0 127 0" result="hardAlpha"/>
<feOffset dy="11.3398"/>
<feGaussianBlur stdDeviation="11.0248"/>
<feComposite in2="hardAlpha" operator="out"/>
<feColorMatrix type="matrix" values="0 0 0 0 0.00392157 0 0 0 0 0.4 0 0 0 0 0.886275 0 0 0 0.12 0"/>
<feBlend mode="normal" in2="BackgroundImageFix" result="effect1_dropShadow_2_2327"/>
<feBlend mode="normal" in="SourceGraphic" in2="effect1_dropShadow_2_2327" result="shape"/>
</filter>
<linearGradient id="paint0_linear_2_2327" x1="186.688" y1="-8.96491" x2="141.999" y2="100.4" gradientUnits="userSpaceOnUse">
<stop stop-color="#2B3283"/>
<stop offset="1" stop-color="#2B3384"/>
</linearGradient>
</defs>
</svg>
