<svg width="38" height="34" viewBox="0 0 38 34" fill="none" xmlns="http://www.w3.org/2000/svg">
<path d="M34.6998 0.471027L11.6024 8.71855V21.4856L12.9666 21.9726L10.9111 26.0836C10.677 26.551 10.5461 27.0632 10.5274 27.5856C10.5086 28.108 10.6024 28.6283 10.8023 29.1112C11.0023 29.5942 11.3038 30.0285 11.6863 30.3847C12.0689 30.741 12.5236 31.0107 13.0195 31.1758L20.4682 33.6581C21.3014 33.9298 22.2043 33.8947 23.014 33.5593C23.8236 33.2238 24.4868 32.6101 24.8838 31.8288L27.2603 27.0758L34.6998 29.7331C34.9749 29.8313 35.2696 29.8619 35.559 29.8225C35.8484 29.783 36.1241 29.6746 36.3629 29.5064C36.6017 29.3382 36.7966 29.1152 36.9312 28.8559C37.0659 28.5967 37.1363 28.309 37.1365 28.0169V2.18729C37.1363 1.8952 37.0659 1.60744 36.9312 1.34823C36.7966 1.08902 36.6017 0.865931 36.3629 0.697735C36.1241 0.529539 35.8484 0.421156 35.559 0.381704C35.2696 0.342252 34.9749 0.372885 34.6998 0.471027ZM21.6209 30.1982L14.174 27.716L16.4265 23.2092L23.7986 25.8428L21.6209 30.1982ZM4.30691 21.4856H7.95465V8.71855H4.30691C2.29519 8.71855 0.65918 10.3546 0.65918 12.3663V17.8379C0.65918 19.8496 2.29519 21.4856 4.30691 21.4856Z" fill="#2B3384"/>
</svg>
