<svg width="32" height="40" viewBox="0 0 32 40" fill="none" xmlns="http://www.w3.org/2000/svg">
<path d="M16.198 23.4338C15.6569 23.4338 15.128 23.2733 14.6781 22.9727C14.2282 22.6721 13.8775 22.2448 13.6705 21.7449C13.4634 21.245 13.4092 20.6949 13.5148 20.1642C13.6204 19.6335 13.8809 19.1461 14.2635 18.7635C14.6461 18.3808 15.1336 18.1203 15.6643 18.0147C16.195 17.9092 16.7451 17.9633 17.245 18.1704C17.7449 18.3775 18.1721 18.7281 18.4728 19.178C18.7734 19.6279 18.9338 20.1569 18.9338 20.698C18.9338 21.4235 18.6456 22.1194 18.1325 22.6325C17.6195 23.1455 16.9236 23.4338 16.198 23.4338ZM31.433 22.1513L18.797 39.3014C18.7109 39.4162 18.5908 39.5011 18.4538 39.5439C18.3168 39.5867 18.1698 39.5853 18.0336 39.5399C17.8974 39.4945 17.779 39.4074 17.695 39.2909C17.6111 39.1745 17.5659 39.0346 17.5659 38.891V25.9986C18.8554 25.6656 19.9792 24.8738 20.7266 23.7716C21.474 22.6694 21.7938 21.3324 21.626 20.0113C21.4582 18.6901 20.8143 17.4755 19.8151 16.5952C18.8158 15.7148 17.5298 15.2291 16.198 15.2291C14.8663 15.2291 13.5802 15.7148 12.581 16.5952C11.5817 17.4755 10.9378 18.6901 10.77 20.0113C10.6022 21.3324 10.922 22.6694 11.6695 23.7716C12.4169 24.8738 13.5407 25.6656 14.8301 25.9986V38.891C14.8301 39.0346 14.785 39.1745 14.701 39.2909C14.6171 39.4074 14.4986 39.4945 14.3625 39.5399C14.2263 39.5853 14.0793 39.5867 13.9422 39.5439C13.8052 39.5011 13.6851 39.4162 13.599 39.3014L0.963037 22.1513C0.665372 21.7467 0.484116 21.2682 0.438906 20.7679C0.393696 20.2676 0.486255 19.7644 0.706556 19.313L5.25482 10.1138V3.5992C5.25482 2.87362 5.54306 2.17776 6.05612 1.6647C6.56918 1.15164 7.26504 0.863403 7.99062 0.863403H24.4054C25.131 0.863403 25.8269 1.15164 26.3399 1.6647C26.853 2.17776 27.1412 2.87362 27.1412 3.5992V10.1138L31.6895 19.313C31.9098 19.7644 32.0023 20.2676 31.9571 20.7679C31.9119 21.2682 31.7307 21.7467 31.433 22.1513ZM24.4054 3.5992H7.99062V9.0708H24.4054V3.5992Z" fill="#2B3384"/>
</svg>
