<svg width="36" height="34" viewBox="0 0 36 34" fill="none" xmlns="http://www.w3.org/2000/svg">
<path d="M6.54422 0.950806C4.91167 0.950806 3.34598 1.59934 2.19159 2.75372C1.0372 3.90811 0.388672 5.4738 0.388672 7.10636V22.1533C0.388672 23.7858 1.0372 25.3515 2.19159 26.5059C3.34598 27.6603 4.91167 28.3088 6.54422 28.3088H24.3269C25.9595 28.3088 27.5252 27.6603 28.6796 26.5059C29.8339 25.3515 30.4825 23.7858 30.4825 22.1533V7.10636C30.4825 5.4738 29.8339 3.90811 28.6796 2.75372C27.5252 1.59934 25.9595 0.950806 24.3269 0.950806H6.54422ZM11.3319 20.0905V9.16915C11.3317 8.92129 11.3988 8.67802 11.5261 8.46536C11.6535 8.2527 11.8362 8.07862 12.0548 7.96175C12.2733 7.84487 12.5196 7.78958 12.7671 7.80179C13.0147 7.814 13.2543 7.89324 13.4603 8.03106L21.6595 13.4917C21.8474 13.6165 22.0016 13.7859 22.1082 13.9847C22.2148 14.1835 22.2706 14.4056 22.2706 14.6312C22.2706 14.8568 22.2148 15.0789 22.1082 15.2777C22.0016 15.4765 21.8474 15.6458 21.6595 15.7706L13.4576 21.2313C13.2514 21.3685 13.0118 21.4472 12.7645 21.4589C12.5171 21.4706 12.2711 21.4149 12.0529 21.2978C11.8347 21.1807 11.6524 21.0065 11.5254 20.7939C11.3984 20.5812 11.3315 20.3381 11.3319 20.0905ZM11.3319 33.7804C10.2699 33.7813 9.22241 33.5344 8.27258 33.0595C7.32274 32.5846 6.49676 31.8947 5.86027 31.0446H25.6948C27.6902 31.0446 29.6038 30.252 31.0147 28.841C32.4256 27.4301 33.2183 25.5165 33.2183 23.5212V6.42241C34.8789 7.66993 35.9541 9.65612 35.9541 11.894V23.5212C35.9541 26.2421 34.8732 28.8516 32.9492 30.7755C31.0252 32.6995 28.4157 33.7804 25.6948 33.7804H11.3319Z" fill="#2B3384"/>
</svg>
