<svg width="37" height="37" viewBox="0 0 37 37" fill="none" xmlns="http://www.w3.org/2000/svg">
<path d="M13.7221 35.9589C15.2793 36.385 16.8862 36.6021 18.5006 36.6045L18.7578 36.6027C19.6794 36.5912 20.5833 36.347 21.3852 35.8926C22.1872 35.4382 22.8613 34.7884 23.3448 34.0037C24.3333 32.406 24.4391 30.4417 23.6239 28.751L23.2627 27.9941C22.4365 26.276 23.0858 24.7184 23.9704 23.8338C24.855 22.9493 26.4162 22.3 28.1288 23.1262H28.1306L28.8839 23.4891C29.7122 23.8896 30.6283 24.0741 31.5471 24.0253C32.4658 23.9765 33.3572 23.6961 34.1384 23.2101C34.9236 22.7269 35.5738 22.0529 36.0286 21.2509C36.4833 20.4489 36.7278 19.5449 36.7393 18.623C36.7621 16.9232 36.5453 15.2286 36.0955 13.5892C34.2023 6.60923 28.1562 1.27078 21.0559 0.302303C15.3125 -0.476488 9.6731 1.40027 5.60588 5.46932C1.53865 9.53836 -0.347224 15.1686 0.437038 20.9193C1.40369 28.0214 6.74397 34.0657 13.7221 35.9589ZM24.8841 7.42268C25.6097 7.42268 26.3056 7.71091 26.8186 8.22397C27.3317 8.73704 27.6199 9.4329 27.6199 10.1585C27.6199 10.8841 27.3317 11.5799 26.8186 12.093C26.3056 12.606 25.6097 12.8943 24.8841 12.8943C24.1586 12.8943 23.4627 12.606 22.9496 12.093C22.4366 11.5799 22.1483 10.8841 22.1483 10.1585C22.1483 9.4329 22.4366 8.73704 22.9496 8.22397C23.4627 7.71091 24.1586 7.42268 24.8841 7.42268ZM15.7648 5.59881C16.4904 5.59881 17.1863 5.88705 17.6993 6.40011C18.2124 6.91317 18.5006 7.60903 18.5006 8.33461C18.5006 9.06019 18.2124 9.75605 17.6993 10.2691C17.1863 10.7822 16.4904 11.0704 15.7648 11.0704C15.0392 11.0704 14.3434 10.7822 13.8303 10.2691C13.3172 9.75605 13.029 9.06019 13.029 8.33461C13.029 7.60903 13.3172 6.91317 13.8303 6.40011C14.3434 5.88705 15.0392 5.59881 15.7648 5.59881ZM13.029 24.7604C13.029 25.4859 12.7408 26.1818 12.2277 26.6949C11.7147 27.2079 11.0188 27.4962 10.2932 27.4962C9.56764 27.4962 8.87177 27.2079 8.35871 26.6949C7.84565 26.1818 7.55741 25.4859 7.55741 24.7604C7.55741 24.0348 7.84565 23.3389 8.35871 22.8259C8.87177 22.3128 9.56764 22.0246 10.2932 22.0246C11.0188 22.0246 11.7147 22.3128 12.2277 22.8259C12.7408 23.3389 13.029 24.0348 13.029 24.7604ZM8.46935 12.9052C9.19517 12.9055 9.89117 13.194 10.4042 13.7074C10.9173 14.2208 11.2054 14.917 11.2051 15.6428C11.2049 16.3687 10.9163 17.0647 10.4029 17.5777C9.88953 18.0908 9.19335 18.3789 8.46752 18.3786C7.7417 18.3784 7.04571 18.0898 6.53264 17.5764C6.01958 17.063 5.73148 16.3668 5.73172 15.641C5.73197 14.9152 6.02053 14.2192 6.53393 13.7061C7.04734 13.1931 7.74353 12.905 8.46935 12.9052Z" fill="#2B3384"/>
</svg>
