<svg width="44" height="44" viewBox="0 0 44 44" fill="none" xmlns="http://www.w3.org/2000/svg">
<path d="M37.6998 6.47103L14.6024 14.7186V27.4856L15.9666 27.9726L13.9111 32.0836C13.677 32.551 13.5461 33.0632 13.5274 33.5856C13.5086 34.108 13.6024 34.6283 13.8023 35.1112C14.0023 35.5942 14.3038 36.0285 14.6863 36.3847C15.0689 36.741 15.5236 37.0107 16.0195 37.1758L23.4682 39.6581C24.3014 39.9298 25.2043 39.8947 26.014 39.5593C26.8236 39.2238 27.4868 38.6101 27.8838 37.8288L30.2603 33.0758L37.6998 35.7331C37.9749 35.8313 38.2696 35.8619 38.559 35.8225C38.8484 35.783 39.1241 35.6746 39.3629 35.5064C39.6017 35.3382 39.7966 35.1152 39.9312 34.8559C40.0659 34.5967 40.1363 34.309 40.1365 34.0169V8.18729C40.1363 7.8952 40.0659 7.60744 39.9312 7.34823C39.7966 7.08902 39.6017 6.86593 39.3629 6.69774C39.1241 6.52954 38.8484 6.42116 38.559 6.3817C38.2696 6.34225 37.9749 6.37289 37.6998 6.47103ZM24.6209 36.1982L17.174 33.716L19.4265 29.2092L26.7986 31.8428L24.6209 36.1982ZM7.30691 27.4856H10.9546V14.7186H7.30691C5.29519 14.7186 3.65918 16.3546 3.65918 18.3663V23.8379C3.65918 25.8496 5.29519 27.4856 7.30691 27.4856Z" fill="#2B3384"/>
</svg>
