<svg width="45" height="27" viewBox="0 0 45 27" fill="none" xmlns="http://www.w3.org/2000/svg">
<path d="M23.1975 10.8577L21.1456 12.7391C18.3688 15.2857 15.2089 13.5542 14.1898 12.4455C12.35 10.4334 12.4937 7.31934 14.4908 5.48516L20.0855 0.359009H19.6341C15.6809 0.359009 11.8781 1.9297 9.08074 4.72547L2.50114 4.74601C1.29739 4.74601 0.3125 5.73085 0.3125 6.93471V17.8714C0.3125 19.0753 1.29739 20.0642 2.43958 20.0642L10.2571 20.0601L16.4469 25.6598C18.3277 27.1908 21.0806 26.8993 22.6024 25.0264L23.8417 26.0701C24.9279 26.8983 26.5351 26.7888 27.4243 25.7027L29.5705 23.0609L29.9381 23.3687C30.8785 24.1216 32.2553 23.9848 33.0158 23.0438L33.6708 22.2341C34.4286 21.2965 34.2849 19.9243 33.3493 19.1639L23.1975 10.8577ZM41.8967 4.74601L35.3307 4.7374C32.5279 1.9341 28.7265 0.365463 24.7637 0.365463L24.1755 0.359009C23.6284 0.359009 23.1072 0.577811 22.6968 0.945402L15.975 7.08665C15.9681 7.10034 15.9613 7.11402 15.9613 7.11402C14.8122 8.19537 14.8396 9.89268 15.8108 10.9467C16.4691 11.6653 18.2046 12.4263 19.6498 11.1349C19.6498 11.1263 19.6669 11.1263 19.6755 11.1178L25.1471 6.1148C25.5916 5.71299 26.2838 5.73866 26.6942 6.18324C27.1045 6.62783 27.0703 7.32071 26.6258 7.73135L24.8393 9.36501L34.7976 17.4478C35.6265 18.1316 36.1313 19.0554 36.3105 20.0471L41.8967 20.0492C43.1004 20.0492 44.0853 19.065 44.0853 17.8605V6.93608C44.0853 5.7247 43.1073 4.74601 41.8967 4.74601Z" fill="#2B3384"/>
</svg>
