<svg width="45" height="44" viewBox="0 0 45 44" fill="none" xmlns="http://www.w3.org/2000/svg">
<mask id="mask0_2_805" style="mask-type:alpha" maskUnits="userSpaceOnUse" x="2" y="5" width="41" height="35">
<path d="M21.8912 36.6056H7.30025C6.57467 36.6056 5.87881 36.3173 5.36575 35.8043C4.85269 35.2912 4.56445 34.5954 4.56445 33.8698V10.1595C4.56445 9.43393 4.85269 8.73807 5.36575 8.225C5.87881 7.71194 6.57467 7.42371 7.30025 7.42371H38.306C39.0316 7.42371 39.7274 7.71194 40.2405 8.225C40.7535 8.73807 41.0418 9.43393 41.0418 10.1595V23.7309" stroke="white" stroke-width="3.64773" stroke-linecap="round" stroke-linejoin="round"/>
<path d="M4.56445 10.1595C4.56445 9.43393 4.85269 8.73807 5.36575 8.225C5.87881 7.71194 6.57467 7.42371 7.30025 7.42371H38.306C39.0316 7.42371 39.7274 7.71194 40.2405 8.225C40.7535 8.73807 41.0418 9.43393 41.0418 10.1595V18.3669H4.56445V10.1595Z" fill="white" stroke="white" stroke-width="3.64773"/>
<path d="M37.3928 30.222L41.0405 33.8698L37.3928 37.5175M31.9212 30.222L28.2734 33.8698L31.9212 37.5175V30.222Z" stroke="white" stroke-width="3.64773" stroke-linecap="round" stroke-linejoin="round"/>
<path d="M8.21164 12.8952C8.21164 11.888 9.02821 11.0714 10.0355 11.0714C11.0428 11.0714 11.8594 11.888 11.8594 12.8952C11.8594 13.9025 11.0428 14.7191 10.0355 14.7191C9.02821 14.7191 8.21164 13.9025 8.21164 12.8952Z" fill="black"/>
<path d="M13.6843 12.8952C13.6843 11.888 14.5009 11.0714 15.5082 11.0714C16.5155 11.0714 17.332 11.888 17.332 12.8952C17.332 13.9025 16.5155 14.7191 15.5082 14.7191C14.5009 14.7191 13.6843 13.9025 13.6843 12.8952Z" fill="black"/>
</mask>
<g mask="url(#mask0_2_805)">
<path d="M0.916016 0.127563H44.6888V43.9004H0.916016V0.127563Z" fill="#2B3384"/>
</g>
</svg>
