<svg width="50" height="45" viewBox="0 0 50 45" fill="none" xmlns="http://www.w3.org/2000/svg">
<path d="M49.1918 29.3791C48.0701 27.8565 45.9311 27.5273 44.4101 28.6551L34.1765 36.1931H23.866C23.1181 36.1931 22.575 35.5732 22.575 34.826C22.575 34.0779 23.1949 33.4581 23.866 33.4581H30.5559C31.8468 33.4581 33.1848 32.5279 33.4088 31.1823C33.6867 29.4724 32.3726 27.9865 30.7055 27.9865H16.9521C14.7207 27.9865 12.4107 28.7773 10.6153 30.2307L6.63986 33.4573L1.90521 33.3802C1.23417 33.3802 0.614258 34.0813 0.614258 34.8251V43.0308C0.614258 43.7848 1.23417 44.4004 1.90521 44.4004H31.4946C33.378 44.4004 35.2495 43.7858 36.7696 42.6674L48.3198 34.1591C49.9869 33.0382 50.3118 30.9009 49.1918 29.3791ZM24.4927 15.589C23.8429 15.4949 22.988 15.1872 22.2356 14.9136L21.8167 14.7682C20.748 14.3151 19.5768 14.9478 19.2006 15.9395C18.8244 16.9312 19.3819 18.1794 20.448 18.559L20.8459 18.7006C21.5714 18.9623 22.3746 19.2217 23.1876 19.4112V20.4621C23.1876 21.5949 24.1049 22.514 25.2377 22.514C26.3705 22.514 27.2896 21.5949 27.2896 20.4621V19.573C29.45 19.0837 30.9556 17.7049 31.2309 15.6642C31.9736 11.3852 27.906 10.2217 25.7233 9.59842L25.2707 9.44197C23.0222 8.80419 23.1504 8.5289 23.2103 8.17752C23.3091 7.59907 24.5183 7.31745 25.964 7.54563C26.3862 7.6124 26.9361 7.76339 27.644 8.00918C28.7152 8.37518 29.8848 7.81152 30.2532 6.74045C30.6217 5.66939 30.0558 4.50137 28.9845 4.13033C28.3346 3.90574 27.7944 3.75775 27.29 3.64122V2.67941C27.29 1.54662 26.371 0.627563 25.2382 0.627563C24.1054 0.627563 23.188 1.54662 23.188 2.67941V3.57881C21.0302 4.06698 19.5169 5.43659 19.0895 7.47818C18.4312 11.7076 22.5605 12.9216 24.1165 13.3832L24.672 13.5435C27.3788 14.3183 27.3352 14.5601 27.2659 14.9661C27.1686 15.5462 25.9632 15.8284 24.4927 15.589Z" fill="#2B3384"/>
</svg>
