<svg width="37" height="37" viewBox="0 0 37 37" fill="none" xmlns="http://www.w3.org/2000/svg">
<circle cx="18.4783" cy="18.2849" r="18.2849" fill="white" fill-opacity="0.31"/>
<g clip-path="url(#clip0_2_999)">
<path d="M14.1174 25.6811C13.7338 25.8779 13.2985 25.533 13.376 25.0928L14.2008 20.3924L10.6999 17.0574C10.3729 16.7453 10.5429 16.1749 10.9811 16.1133L15.8485 15.4217L18.0188 11.1217C18.2146 10.7342 18.7442 10.7342 18.94 11.1217L21.1104 15.4217L25.9777 16.1133C26.416 16.1749 26.5859 16.7453 26.258 17.0574L22.758 20.3924L23.5828 25.0928C23.6603 25.533 23.225 25.8779 22.8415 25.6811L18.4779 23.4392L14.1164 25.6811H14.1174Z" fill="white"/>
</g>
<defs>
<clipPath id="clip0_2_999">
<rect width="15.8999" height="15.8999" fill="white" transform="translate(10.5273 10.335)"/>
</clipPath>
</defs>
</svg>
