<svg width="13" height="13" viewBox="0 0 13 13" fill="none" xmlns="http://www.w3.org/2000/svg">
<path d="M9.91589 12.9333L6.49875 10.9851L3.08068 12.9333C2.99851 12.9798 2.90491 13.0023 2.81056 12.9982C2.71621 12.994 2.62494 12.9634 2.54716 12.9099C2.46938 12.8563 2.40824 12.782 2.37073 12.6953C2.33322 12.6086 2.32085 12.5131 2.33504 12.4198L2.95532 8.32664L0.146394 5.50099C0.0812929 5.43542 0.0354626 5.35322 0.013909 5.26336C-0.00764466 5.17351 -0.00409265 5.07946 0.024177 4.99149C0.0524467 4.90352 0.104347 4.82501 0.174209 4.76453C0.244071 4.70405 0.329209 4.66394 0.420323 4.64856L4.25068 4.01528L6.04561 0.284279C6.08668 0.198837 6.15104 0.126731 6.23129 0.0762646C6.31154 0.0257982 6.40442 -0.000976562 6.49922 -0.000976562C6.59402 -0.000976562 6.68689 0.0257982 6.76714 0.0762646C6.84739 0.126731 6.91175 0.198837 6.95282 0.284279L8.74868 4.01528L12.5772 4.64856C12.6684 4.66366 12.7538 4.70358 12.8239 4.76394C12.894 4.82431 12.9461 4.90279 12.9746 4.99081C13.0031 5.07883 13.0068 5.17298 12.9853 5.26296C12.9639 5.35295 12.9181 5.4353 12.853 5.50099L10.044 8.32571L10.6643 12.4188C10.678 12.5124 10.6652 12.6079 10.6273 12.6945C10.5895 12.7812 10.5281 12.8555 10.4502 12.909C10.3723 12.9626 10.281 12.9932 10.1865 12.9975C10.0921 13.0018 9.99834 12.9795 9.91589 12.9333Z" fill="#FADC00"/>
</svg>
