<svg width="16" height="16" viewBox="0 0 16 16" fill="none" xmlns="http://www.w3.org/2000/svg">
<g clip-path="url(#clip0_2_2389)">
<path d="M10.8491 9.41291L8.61828 7.73979V4.3316C8.61828 3.98891 8.34128 3.71191 7.99859 3.71191C7.65591 3.71191 7.37891 3.98891 7.37891 4.3316V8.04966C7.37891 8.24485 7.47062 8.42891 7.62678 8.54541L10.1055 10.4044C10.217 10.4881 10.3472 10.5284 10.4767 10.5284C10.6657 10.5284 10.8516 10.4435 10.973 10.2799C11.1788 10.0066 11.123 9.61804 10.8491 9.41291Z" fill="#646464"/>
<path d="M8 0C3.58853 0 0 3.58853 0 8C0 12.4115 3.58853 16 8 16C12.4115 16 16 12.4115 16 8C16 3.58853 12.4115 0 8 0ZM8 14.7607C4.27266 14.7607 1.23934 11.7273 1.23934 8C1.23934 4.27266 4.27266 1.23934 8 1.23934C11.728 1.23934 14.7607 4.27266 14.7607 8C14.7607 11.7273 11.7273 14.7607 8 14.7607Z" fill="#646464"/>
</g>
<defs>
<clipPath id="clip0_2_2389">
<rect width="16" height="16" fill="white"/>
</clipPath>
</defs>
</svg>
