<svg width="37" height="37" viewBox="0 0 37 37" fill="none" xmlns="http://www.w3.org/2000/svg">
<circle cx="18.6834" cy="18.2849" r="18.2849" fill="white" fill-opacity="0.31"/>
<g clip-path="url(#clip0_2_1008)">
<path d="M23.7847 21.807L23.7854 21.8827C23.7867 22.9316 23.4096 23.9426 22.729 24.7154L22.7313 24.7121C22.0223 25.5257 21.0634 26.0566 20.0194 26.2136L19.9949 26.2169V28.1597C19.9949 28.2499 19.9606 28.3364 19.8994 28.4001C19.8382 28.4639 19.7552 28.4997 19.6686 28.4997H19.6552H19.656H18.2281C18.1385 28.4986 18.0529 28.4611 17.9895 28.3951C17.9262 28.3291 17.8901 28.2399 17.8891 28.1465V26.2169C17.4129 26.1507 16.9451 26.0309 16.4937 25.8597L16.5403 25.8753C15.866 25.6403 15.2333 25.2916 14.6675 24.843L14.6833 24.8553C14.5105 24.7251 14.3446 24.5852 14.1863 24.4363L14.1919 24.4413C14.1039 24.3535 14.0422 24.2876 14.007 24.2437C13.9498 24.1845 13.9161 24.1052 13.9124 24.0213C13.9088 23.9375 13.9355 23.8553 13.9872 23.7909L13.9864 23.7918L15.0761 22.3034C15.105 22.2645 15.1417 22.2327 15.1836 22.2099C15.2254 22.1872 15.2715 22.1741 15.3187 22.1717H15.3194C15.3663 22.1627 15.4146 22.1673 15.4592 22.1848C15.5037 22.2024 15.5429 22.2323 15.5723 22.2713L15.5731 22.2721L15.5936 22.2935C16.3081 22.975 17.1825 23.4481 18.1285 23.665L18.1649 23.6724C18.4004 23.7284 18.6706 23.7605 18.948 23.7605L18.9969 23.7613C19.543 23.7613 20.0487 23.5835 20.4651 23.2805L20.4564 23.2863C20.6664 23.1384 20.8366 22.9368 20.9506 22.7009C21.0646 22.465 21.1186 22.2026 21.1075 21.9387V21.942C21.1075 21.7255 21.0483 21.5238 20.9463 21.3534L20.9487 21.3583C20.8524 21.1884 20.7335 21.0334 20.5955 20.8982L20.5947 20.8973C20.411 20.7368 20.2091 20.6005 19.9934 20.4915L19.976 20.4833C19.6936 20.3329 19.4618 20.2152 19.2806 20.1301C19.0994 20.045 18.8173 19.9257 18.4343 19.772C18.1594 19.6546 17.9423 19.5626 17.7832 19.4962C17.6241 19.4298 17.4071 19.3324 17.1321 19.204C16.8571 19.0756 16.6367 18.9617 16.4707 18.8624C16.3048 18.763 16.1054 18.6327 15.8726 18.4713C15.6686 18.3344 15.4778 18.1773 15.3029 18.0021L15.3036 18.0029C15.1449 17.8356 14.9945 17.6597 14.8532 17.4761L14.843 17.4629C14.6933 17.2739 14.5692 17.0646 14.474 16.8406L14.4676 16.8233C14.3759 16.5959 14.3031 16.3607 14.2503 16.1203L14.2448 16.0906C14.1843 15.8146 14.1541 15.5324 14.1547 15.2493V15.2295V15.2048C14.1547 14.1758 14.5506 13.2423 15.193 12.5623L15.1922 12.5632C15.9083 11.7876 16.844 11.2715 17.8622 11.0904L17.8907 11.0863V9.09827V9.09498C17.8907 8.99867 17.9294 8.91141 17.991 8.84966C18.0215 8.81661 18.0581 8.7903 18.0985 8.77234C18.139 8.75437 18.1825 8.74511 18.2265 8.74512H19.6702C19.8503 8.74512 19.9965 8.89741 19.9965 9.0851V9.0991V9.09827V11.0386C20.4311 11.0863 20.8278 11.1761 21.2079 11.3045L21.166 11.2921C21.5287 11.4074 21.8337 11.5333 22.1269 11.6799L22.0858 11.6618C22.3449 11.7959 22.5654 11.9334 22.774 12.0865L22.7582 12.075C22.9689 12.2298 23.1064 12.3362 23.1707 12.3944C23.235 12.4526 23.2879 12.5039 23.3295 12.5483C23.3864 12.5993 23.4231 12.6704 23.4327 12.7479C23.4424 12.8254 23.4242 12.9038 23.3817 12.9682L23.3825 12.9674L22.5275 14.5776C22.5061 14.6271 22.4723 14.6696 22.4296 14.7006C22.3869 14.7316 22.3368 14.75 22.2849 14.7537H22.2841C22.2339 14.7646 22.182 14.7633 22.1324 14.7499C22.0828 14.7364 22.0368 14.7113 21.9981 14.6763H21.9988C21.9778 14.6544 21.9267 14.6105 21.8456 14.5446C21.7644 14.4788 21.6269 14.3814 21.4331 14.2524C21.245 14.1268 21.0494 14.0138 20.8476 13.9141L20.8144 13.8992C20.5711 13.7827 20.3183 13.6893 20.059 13.6202L20.0258 13.6128C19.7312 13.5288 19.4272 13.4861 19.1218 13.486H19.121C18.5358 13.4581 17.9575 13.6266 17.4711 13.9667L17.4814 13.9602C17.2124 14.1464 17.0122 14.4224 16.9137 14.7428C16.8151 15.0633 16.8242 15.4091 16.9393 15.7235L16.9362 15.7136C17.0089 15.8947 17.1147 16.0478 17.2475 16.1705L17.2491 16.1713C17.3763 16.2956 17.5122 16.415 17.6544 16.5261L17.6671 16.5352C17.837 16.657 18.0321 16.7714 18.2368 16.8669L18.2605 16.8768C18.5249 17.0052 18.7383 17.1045 18.9005 17.1748C19.0628 17.245 19.3099 17.346 19.6417 17.4777C20.0158 17.6248 20.3015 17.7406 20.4991 17.8251C20.6966 17.9096 20.9648 18.0383 21.3035 18.2112C21.5888 18.3508 21.8638 18.5123 22.1261 18.6944L22.1032 18.6796C22.3481 18.8607 22.5615 19.0418 22.7645 19.2353L22.7598 19.2303C22.9787 19.4296 23.1652 19.6601 23.3137 19.9177L23.3208 19.9309C23.452 20.1721 23.565 20.4528 23.6472 20.7467L23.6543 20.7747C23.7404 21.0752 23.7894 21.4209 23.7894 21.7782V21.8128V21.8111L23.7847 21.807Z" fill="white"/>
</g>
<defs>
<clipPath id="clip0_2_1008">
<rect width="9.87729" height="19.7546" fill="white" transform="translate(13.9121 8.74512)"/>
</clipPath>
</defs>
</svg>
