<svg width="140" height="23" viewBox="0 0 140 23" fill="none" xmlns="http://www.w3.org/2000/svg">
<path d="M16.5295 13.6729C16.2989 13.8958 16.1929 14.2182 16.2455 14.5343L17.037 18.9036C17.1038 19.2739 16.9471 19.6487 16.6363 19.8627C16.3318 20.0847 15.9267 20.1114 15.5946 19.9338L11.6514 17.8823C11.5143 17.8095 11.362 17.7704 11.2062 17.766H10.9649C10.8812 17.7784 10.7993 17.8051 10.7245 17.8459L6.78038 19.9071C6.5854 20.0048 6.3646 20.0394 6.14825 20.0048C5.62117 19.9053 5.26949 19.4045 5.35586 18.8761L6.14825 14.5068C6.20078 14.188 6.09483 13.8639 5.86423 13.6374L2.64925 10.5292C2.38037 10.269 2.28689 9.87823 2.40975 9.52567C2.52906 9.174 2.83355 8.91735 3.20126 8.85962L7.6262 8.21933C7.96274 8.1847 8.25833 7.98044 8.40969 7.6785L10.3595 3.6911C10.4058 3.6023 10.4655 3.52059 10.5376 3.45132L10.6177 3.38916C10.6595 3.34298 10.7076 3.30479 10.761 3.27371L10.8581 3.23819L11.0094 3.17603H11.3843C11.719 3.21066 12.0137 3.41047 12.1678 3.70886L14.1434 7.6785C14.2859 7.9689 14.5628 8.17049 14.8824 8.21933L19.3073 8.85962C19.6813 8.91291 19.9938 9.17045 20.1175 9.52567C20.2342 9.88178 20.1336 10.2725 19.8593 10.5292L16.5295 13.6729Z" fill="#FFB30F"/>
<path d="M45.9104 13.6729C45.6798 13.8958 45.5738 14.2182 45.6263 14.5343L46.4178 18.9036C46.4846 19.2739 46.3279 19.6487 46.0172 19.8627C45.7127 20.0847 45.3076 20.1114 44.9755 19.9338L41.0322 17.8823C40.8951 17.8095 40.7429 17.7704 40.5871 17.766H40.3458C40.2621 17.7784 40.1802 17.8051 40.1054 17.8459L36.1612 19.9071C35.9663 20.0048 35.7455 20.0394 35.5291 20.0048C35.002 19.9053 34.6504 19.4045 34.7367 18.8761L35.5291 14.5068C35.5816 14.188 35.4757 13.8639 35.2451 13.6374L32.0301 10.5292C31.7612 10.269 31.6677 9.87823 31.7906 9.52567C31.9099 9.174 32.2144 8.91735 32.5821 8.85962L37.0071 8.21933C37.3436 8.1847 37.6392 7.98044 37.7905 7.6785L39.7404 3.6911C39.7867 3.6023 39.8463 3.52059 39.9184 3.45132L39.9986 3.38916C40.0404 3.34298 40.0885 3.30479 40.1419 3.27371L40.239 3.23819L40.3903 3.17603H40.7651C41.0999 3.21066 41.3946 3.41047 41.5486 3.70886L43.5243 7.6785C43.6667 7.9689 43.9436 8.17049 44.2632 8.21933L48.6882 8.85962C49.0621 8.91291 49.3746 9.17045 49.4984 9.52567C49.615 9.88178 49.5144 10.2725 49.2402 10.5292L45.9104 13.6729Z" fill="#FFB30F"/>
<path d="M75.2893 13.6729C75.0587 13.8958 74.9527 14.2182 75.0052 14.5343L75.7967 18.9036C75.8635 19.2739 75.7068 19.6487 75.3961 19.8627C75.0916 20.0847 74.6865 20.1114 74.3544 19.9338L70.4111 17.8823C70.274 17.8095 70.1218 17.7704 69.966 17.766H69.7247C69.641 17.7784 69.5591 17.8051 69.4843 17.8459L65.5401 19.9071C65.3452 20.0048 65.1244 20.0394 64.908 20.0048C64.3809 19.9053 64.0293 19.4045 64.1156 18.8761L64.908 14.5068C64.9605 14.188 64.8546 13.8639 64.624 13.6374L61.409 10.5292C61.1401 10.269 61.0467 9.87823 61.1695 9.52567C61.2888 9.174 61.5933 8.91735 61.961 8.85962L66.386 8.21933C66.7225 8.1847 67.0181 7.98044 67.1695 7.6785L69.1193 3.6911C69.1656 3.6023 69.2252 3.52059 69.2973 3.45132L69.3775 3.38916C69.4193 3.34298 69.4674 3.30479 69.5208 3.27371L69.6179 3.23819L69.7692 3.17603H70.144C70.4788 3.21066 70.7735 3.41047 70.9275 3.70886L72.9032 7.6785C73.0456 7.9689 73.3225 8.17049 73.6422 8.21933L78.0671 8.85962C78.441 8.91291 78.7535 9.17045 78.8773 9.52567C78.9939 9.88178 78.8933 10.2725 78.6191 10.5292L75.2893 13.6729Z" fill="#FFB30F"/>
<path d="M104.674 13.6729C104.443 13.8958 104.337 14.2182 104.39 14.5343L105.182 18.9036C105.248 19.2739 105.092 19.6487 104.781 19.8627C104.476 20.0847 104.071 20.1114 103.739 19.9338L99.7959 17.8823C99.6588 17.8095 99.5066 17.7704 99.3507 17.766H99.1095C99.0258 17.7784 98.9439 17.8051 98.8691 17.8459L94.9249 19.9071C94.7299 20.0048 94.5091 20.0394 94.2928 20.0048C93.7657 19.9053 93.414 19.4045 93.5004 18.8761L94.2928 14.5068C94.3453 14.188 94.2394 13.8639 94.0088 13.6374L90.7938 10.5292C90.5249 10.269 90.4314 9.87823 90.5543 9.52567C90.6736 9.174 90.9781 8.91735 91.3458 8.85962L95.7707 8.21933C96.1073 8.1847 96.4029 7.98044 96.5542 7.6785L98.504 3.6911C98.5503 3.6023 98.61 3.52059 98.6821 3.45132L98.7622 3.38916C98.8041 3.34298 98.8522 3.30479 98.9056 3.27371L99.0026 3.23819L99.154 3.17603H99.5288C99.8636 3.21066 100.158 3.41047 100.312 3.70886L102.288 7.6785C102.43 7.9689 102.707 8.17049 103.027 8.21933L107.452 8.85962C107.826 8.91291 108.138 9.17045 108.262 9.52567C108.379 9.88178 108.278 10.2725 108.004 10.5292L104.674 13.6729Z" fill="#FFB30F"/>
<path d="M134.055 13.6729C133.824 13.8958 133.718 14.2182 133.771 14.5343L134.562 18.9036C134.629 19.2739 134.472 19.6487 134.162 19.8627C133.857 20.0847 133.452 20.1114 133.12 19.9338L129.177 17.8823C129.04 17.8095 128.887 17.7704 128.732 17.766H128.49C128.407 17.7784 128.325 17.8051 128.25 17.8459L124.306 19.9071C124.111 20.0048 123.89 20.0394 123.674 20.0048C123.147 19.9053 122.795 19.4045 122.881 18.8761L123.674 14.5068C123.726 14.188 123.62 13.8639 123.39 13.6374L120.175 10.5292C119.906 10.269 119.812 9.87823 119.935 9.52567C120.054 9.174 120.359 8.91735 120.727 8.85962L125.152 8.21933C125.488 8.1847 125.784 7.98044 125.935 7.6785L127.885 3.6911C127.931 3.6023 127.991 3.52059 128.063 3.45132L128.143 3.38916C128.185 3.34298 128.233 3.30479 128.286 3.27371L128.383 3.23819L128.535 3.17603H128.91C129.244 3.21066 129.539 3.41047 129.693 3.70886L131.669 7.6785C131.811 7.9689 132.088 8.17049 132.408 8.21933L136.833 8.85962C137.207 8.91291 137.519 9.17045 137.643 9.52567C137.76 9.88178 137.659 10.2725 137.385 10.5292L134.055 13.6729Z" fill="#FFB30F"/>
</svg>
