<svg width="27" height="27" viewBox="0 0 27 27" fill="none" xmlns="http://www.w3.org/2000/svg">
<rect x="0.362515" y="0.741422" width="25.3758" height="25.3758" rx="12.6879" stroke="white" stroke-width="0.725031"/>
<path d="M11.3954 13.5184C11.3954 12.5826 12.1487 11.8237 13.0781 11.8237C14.0075 11.8237 14.7612 12.5826 14.7612 13.5184C14.7612 14.4543 14.0075 15.2132 13.0781 15.2132C12.1487 15.2132 11.3954 14.4543 11.3954 13.5184ZM10.4856 13.5184C10.4856 14.9602 11.6463 16.129 13.0781 16.129C14.51 16.129 15.6706 14.9602 15.6706 13.5184C15.6706 12.0767 14.51 10.9079 13.0781 10.9079C11.6463 10.9079 10.4856 12.0767 10.4856 13.5184ZM15.1674 10.8044C15.1673 10.9251 15.2028 11.0431 15.2694 11.1434C15.3359 11.2438 15.4305 11.322 15.5412 11.3682C15.6519 11.4144 15.7737 11.4266 15.8912 11.4031C16.0087 11.3796 16.1167 11.3215 16.2015 11.2362C16.2862 11.1509 16.344 11.0423 16.3674 10.9239C16.3908 10.8056 16.3789 10.6829 16.3331 10.5714C16.2873 10.4599 16.2097 10.3646 16.11 10.2976C16.0104 10.2305 15.8933 10.1947 15.7735 10.1946H15.7732C15.6126 10.1947 15.4586 10.2589 15.345 10.3733C15.2314 10.4876 15.1675 10.6427 15.1674 10.8044ZM11.0384 17.6566C10.5462 17.634 10.2786 17.5515 10.1008 17.4817C9.86509 17.3893 9.6969 17.2793 9.52007 17.1014C9.34324 16.9236 9.23378 16.7544 9.14242 16.5171C9.07311 16.3381 8.99112 16.0686 8.96874 15.573C8.94426 15.0371 8.93938 14.8761 8.93938 13.5185C8.93938 12.1608 8.94467 12.0003 8.96874 11.464C8.99116 10.9683 9.07375 10.6994 9.14242 10.5199C9.23419 10.2825 9.34348 10.1132 9.52007 9.93513C9.69666 9.75707 9.86468 9.64685 10.1008 9.55485C10.2785 9.48506 10.5462 9.4025 11.0384 9.37997C11.5706 9.35532 11.7304 9.3504 13.0781 9.3504C14.4258 9.3504 14.5858 9.35573 15.1184 9.37997C15.6107 9.40254 15.8778 9.48571 16.056 9.55485C16.2917 9.64685 16.4599 9.75731 16.6368 9.93513C16.8136 10.1129 16.9226 10.2825 17.0144 10.5199C17.0837 10.6988 17.1657 10.9683 17.1881 11.464C17.2126 12.0003 17.2174 12.1608 17.2174 13.5185C17.2174 14.8761 17.2126 15.0367 17.1881 15.573C17.1657 16.0686 17.0833 16.338 17.0144 16.5171C16.9226 16.7544 16.8133 16.9238 16.6368 17.1014C16.4602 17.2791 16.2917 17.3893 16.056 17.4817C15.8783 17.5515 15.6107 17.6341 15.1184 17.6566C14.5863 17.6812 14.4264 17.6862 13.0781 17.6862C11.7298 17.6862 11.5704 17.6812 11.0384 17.6566ZM10.9966 8.46536C10.4591 8.49 10.0918 8.57582 9.7711 8.70149C9.43893 8.83128 9.15773 9.00539 8.87673 9.28789C8.59573 9.57039 8.42327 9.85399 8.29438 10.1885C8.16957 10.5116 8.08435 10.8813 8.05987 11.4225C8.03499 11.9645 8.0293 12.1378 8.0293 13.5184C8.0293 14.8991 8.03499 15.0724 8.05987 15.6144C8.08435 16.1557 8.16957 16.5253 8.29438 16.8484C8.42327 17.1827 8.59577 17.4666 8.87673 17.749C9.15769 18.0314 9.43893 18.2052 9.7711 18.3354C10.0924 18.4611 10.4591 18.5469 10.9966 18.5715C11.5352 18.5962 11.707 18.6023 13.0781 18.6023C14.4492 18.6023 14.6213 18.5966 15.1596 18.5715C15.6972 18.5469 16.0642 18.4611 16.3851 18.3354C16.7171 18.2052 16.9985 18.0315 17.2795 17.749C17.5605 17.4665 17.7326 17.1827 17.8618 16.8484C17.9866 16.5253 18.0723 16.1556 18.0963 15.6144C18.1208 15.072 18.1265 14.8991 18.1265 13.5184C18.1265 12.1378 18.1208 11.9645 18.0963 11.4225C18.0719 10.8812 17.9866 10.5114 17.8618 10.1885C17.7326 9.85419 17.56 9.57084 17.2795 9.28789C16.9989 9.00494 16.7171 8.83128 16.3855 8.70149C16.0642 8.57582 15.6971 8.4896 15.16 8.46536C14.6217 8.44071 14.4496 8.43457 13.0785 8.43457C11.7074 8.43457 11.5352 8.4403 10.9966 8.46536Z" fill="white"/>
</svg>
