<svg width="27" height="27" viewBox="0 0 27 27" fill="none" xmlns="http://www.w3.org/2000/svg">
<rect x="0.362515" y="0.741422" width="25.3758" height="25.3758" rx="12.6879" stroke="white" stroke-width="0.725031"/>
<path d="M18.1531 10.2611C17.7768 10.4277 17.3745 10.5401 16.9506 10.592C17.3832 10.3325 17.7162 9.92159 17.8719 9.43281C17.4675 9.67288 17.0198 9.84805 16.5419 9.94105C16.1591 9.5323 15.6141 9.2771 15.0128 9.2771C13.8558 9.2771 12.9193 10.2157 12.9193 11.3728C12.9193 11.5371 12.9366 11.6972 12.9734 11.8507C11.2324 11.7642 9.68824 10.9294 8.65664 9.65989C8.47712 9.96917 8.37332 10.3303 8.37332 10.7131C8.37332 11.4398 8.74531 12.0821 9.3076 12.4584C8.96157 12.4498 8.63716 12.3546 8.35602 12.1967V12.2227C8.35602 13.2392 9.07836 14.0848 10.0364 14.2773C9.86126 14.3249 9.67526 14.3508 9.48495 14.3508C9.35087 14.3508 9.21893 14.3378 9.09134 14.3119C9.35735 15.1445 10.1316 15.7501 11.0486 15.7674C10.3327 16.3297 9.42872 16.6649 8.44685 16.6649C8.27816 16.6649 8.11163 16.654 7.94727 16.6346C8.87074 17.2359 9.97156 17.5819 11.1524 17.5819C15.0085 17.5819 17.1149 14.3876 17.1149 11.6172C17.1149 11.5263 17.1128 11.4355 17.1085 11.3468C17.5172 11.0505 17.8719 10.6829 18.1531 10.2611Z" fill="white"/>
</svg>
