<svg width="27" height="27" viewBox="0 0 27 27" fill="none" xmlns="http://www.w3.org/2000/svg">
<rect x="0.661343" y="0.741422" width="25.3758" height="25.3758" rx="12.6879" stroke="white" stroke-width="0.725031"/>
<path d="M10.1326 13.8127H11.352V18.8329C11.352 18.932 11.4323 19.0123 11.5314 19.0123H13.599C13.6981 19.0123 13.7785 18.932 13.7785 18.8329V13.8363H15.1803C15.2715 13.8363 15.3481 13.7679 15.3586 13.6774L15.5715 11.8292C15.5773 11.7783 15.5612 11.7274 15.5272 11.6893C15.4931 11.6511 15.4444 11.6292 15.3933 11.6292H13.7785V10.4707C13.7785 10.1215 13.9666 9.94435 14.3375 9.94435C14.3904 9.94435 15.3933 9.94435 15.3933 9.94435C15.4924 9.94435 15.5727 9.86401 15.5727 9.76492V8.06845C15.5727 7.96934 15.4924 7.88902 15.3933 7.88902H13.9383C13.928 7.88852 13.9052 7.8877 13.8716 7.8877C13.6192 7.8877 12.7416 7.93725 12.0485 8.57495C11.2804 9.28161 11.3872 10.1277 11.4127 10.2744V11.6292H10.1326C10.0334 11.6292 9.95312 11.7095 9.95312 11.8086V13.6332C9.95312 13.7323 10.0334 13.8127 10.1326 13.8127Z" fill="white"/>
</svg>
