<svg width="27" height="27" viewBox="0 0 27 27" fill="none" xmlns="http://www.w3.org/2000/svg">
<rect x="0.962125" y="0.741422" width="25.3758" height="25.3758" rx="12.6879" stroke="white" stroke-width="0.725031"/>
<path d="M10.5966 10.2293C11.2 10.2293 11.6892 9.74006 11.6892 9.1366C11.6892 8.53314 11.2 8.04395 10.5966 8.04395C9.99311 8.04395 9.50391 8.53314 9.50391 9.1366C9.50391 9.74006 9.99311 10.2293 10.5966 10.2293Z" fill="white"/>
<path d="M12.7196 11.057V17.1191H14.6018V14.1213C14.6018 13.3302 14.7506 12.5642 15.7314 12.5642C16.6987 12.5642 16.7107 13.4686 16.7107 14.1712V17.1196H18.5938V13.7952C18.5938 12.1622 18.2423 10.9072 16.3336 10.9072C15.4173 10.9072 14.803 11.4101 14.5518 11.886H14.5264V11.057H12.7196ZM9.65234 11.057H11.5375V17.1191H9.65234V11.057Z" fill="white"/>
</svg>
