<svg width="75" height="75" viewBox="0 0 75 75" fill="none" xmlns="http://www.w3.org/2000/svg">
<g opacity="0.1">
<path fill-rule="evenodd" clip-rule="evenodd" d="M3.14993 6.29986C4.88959 6.29986 6.29986 4.88959 6.29986 3.14993C6.29986 1.41027 4.88959 0 3.14993 0C1.41027 0 0 1.41027 0 3.14993C0 4.88959 1.41027 6.29986 3.14993 6.29986Z" fill="#00171B"/>
<path fill-rule="evenodd" clip-rule="evenodd" d="M20.1577 6.29986C21.8974 6.29986 23.3077 4.88959 23.3077 3.14993C23.3077 1.41027 21.8974 0 20.1577 0C18.4181 0 17.0078 1.41027 17.0078 3.14993C17.0078 4.88959 18.4181 6.29986 20.1577 6.29986Z" fill="#00171B"/>
<path fill-rule="evenodd" clip-rule="evenodd" d="M37.7984 6.29986C39.538 6.29986 40.9483 4.88959 40.9483 3.14993C40.9483 1.41027 39.538 0 37.7984 0C36.0587 0 34.6484 1.41027 34.6484 3.14993C34.6484 4.88959 36.0587 6.29986 37.7984 6.29986Z" fill="#00171B"/>
<path fill-rule="evenodd" clip-rule="evenodd" d="M3.14993 23.3096C4.88959 23.3096 6.29986 21.8994 6.29986 20.1597C6.29986 18.42 4.88959 17.0098 3.14993 17.0098C1.41027 17.0098 0 18.42 0 20.1597C0 21.8994 1.41027 23.3096 3.14993 23.3096Z" fill="#00171B"/>
<path fill-rule="evenodd" clip-rule="evenodd" d="M20.1577 23.3096C21.8974 23.3096 23.3077 21.8994 23.3077 20.1597C23.3077 18.42 21.8974 17.0098 20.1577 17.0098C18.4181 17.0098 17.0078 18.42 17.0078 20.1597C17.0078 21.8994 18.4181 23.3096 20.1577 23.3096Z" fill="#00171B"/>
<path fill-rule="evenodd" clip-rule="evenodd" d="M37.7984 23.3096C39.538 23.3096 40.9483 21.8994 40.9483 20.1597C40.9483 18.42 39.538 17.0098 37.7984 17.0098C36.0587 17.0098 34.6484 18.42 34.6484 20.1597C34.6484 21.8994 36.0587 23.3096 37.7984 23.3096Z" fill="#00171B"/>
<path fill-rule="evenodd" clip-rule="evenodd" d="M3.14993 40.9493C4.88959 40.9493 6.29986 39.539 6.29986 37.7993C6.29986 36.0597 4.88959 34.6494 3.14993 34.6494C1.41027 34.6494 0 36.0597 0 37.7993C0 39.539 1.41027 40.9493 3.14993 40.9493Z" fill="#00171B"/>
<path fill-rule="evenodd" clip-rule="evenodd" d="M20.1577 40.9493C21.8974 40.9493 23.3077 39.539 23.3077 37.7993C23.3077 36.0597 21.8974 34.6494 20.1577 34.6494C18.4181 34.6494 17.0078 36.0597 17.0078 37.7993C17.0078 39.539 18.4181 40.9493 20.1577 40.9493Z" fill="#00171B"/>
<path fill-rule="evenodd" clip-rule="evenodd" d="M37.7984 40.9493C39.538 40.9493 40.9483 39.539 40.9483 37.7993C40.9483 36.0597 39.538 34.6494 37.7984 34.6494C36.0587 34.6494 34.6484 36.0597 34.6484 37.7993C34.6484 39.539 36.0587 40.9493 37.7984 40.9493Z" fill="#00171B"/>
<path fill-rule="evenodd" clip-rule="evenodd" d="M3.14993 57.3289C4.88959 57.3289 6.29986 55.9186 6.29986 54.179C6.29986 52.4393 4.88959 51.0291 3.14993 51.0291C1.41027 51.0291 0 52.4393 0 54.179C0 55.9186 1.41027 57.3289 3.14993 57.3289Z" fill="#00171B"/>
<path fill-rule="evenodd" clip-rule="evenodd" d="M20.1577 57.3287C21.8974 57.3287 23.3077 55.9184 23.3077 54.1787C23.3077 52.4391 21.8974 51.0288 20.1577 51.0288C18.4181 51.0288 17.0078 52.4391 17.0078 54.1787C17.0078 55.9184 18.4181 57.3287 20.1577 57.3287Z" fill="#00171B"/>
<path fill-rule="evenodd" clip-rule="evenodd" d="M37.7984 57.3287C39.538 57.3287 40.9483 55.9184 40.9483 54.1787C40.9483 52.4391 39.538 51.0288 37.7984 51.0288C36.0587 51.0288 34.6484 52.4391 34.6484 54.1787C34.6484 55.9184 36.0587 57.3287 37.7984 57.3287Z" fill="#00171B"/>
<path fill-rule="evenodd" clip-rule="evenodd" d="M3.14993 74.3384C4.88959 74.3384 6.29986 72.9282 6.29986 71.1885C6.29986 69.4488 4.88959 68.0386 3.14993 68.0386C1.41027 68.0386 0 69.4488 0 71.1885C0 72.9282 1.41027 74.3384 3.14993 74.3384Z" fill="#00171B"/>
<path fill-rule="evenodd" clip-rule="evenodd" d="M20.1577 74.3384C21.8974 74.3384 23.3077 72.9282 23.3077 71.1885C23.3077 69.4488 21.8974 68.0386 20.1577 68.0386C18.4181 68.0386 17.0078 69.4488 17.0078 71.1885C17.0078 72.9282 18.4181 74.3384 20.1577 74.3384Z" fill="#00171B"/>
<path fill-rule="evenodd" clip-rule="evenodd" d="M37.7984 74.3384C39.538 74.3384 40.9483 72.9282 40.9483 71.1885C40.9483 69.4488 39.538 68.0386 37.7984 68.0386C36.0587 68.0386 34.6484 69.4488 34.6484 71.1885C34.6484 72.9282 36.0587 74.3384 37.7984 74.3384Z" fill="#00171B"/>
<path fill-rule="evenodd" clip-rule="evenodd" d="M54.1812 6.29986C55.9208 6.29986 57.3311 4.88959 57.3311 3.14993C57.3311 1.41027 55.9208 0 54.1812 0C52.4415 0 51.0312 1.41027 51.0312 3.14993C51.0312 4.88959 52.4415 6.29986 54.1812 6.29986Z" fill="#00171B"/>
<path fill-rule="evenodd" clip-rule="evenodd" d="M54.1812 23.3096C55.9208 23.3096 57.3311 21.8994 57.3311 20.1597C57.3311 18.42 55.9208 17.0098 54.1812 17.0098C52.4415 17.0098 51.0312 18.42 51.0312 20.1597C51.0312 21.8994 52.4415 23.3096 54.1812 23.3096Z" fill="#00171B"/>
<path fill-rule="evenodd" clip-rule="evenodd" d="M54.1812 40.9493C55.9208 40.9493 57.3311 39.539 57.3311 37.7993C57.3311 36.0597 55.9208 34.6494 54.1812 34.6494C52.4415 34.6494 51.0312 36.0597 51.0312 37.7993C51.0312 39.539 52.4415 40.9493 54.1812 40.9493Z" fill="#00171B"/>
<path fill-rule="evenodd" clip-rule="evenodd" d="M54.1812 57.3287C55.9208 57.3287 57.3311 55.9184 57.3311 54.1787C57.3311 52.4391 55.9208 51.0288 54.1812 51.0288C52.4415 51.0288 51.0312 52.4391 51.0312 54.1787C51.0312 55.9184 52.4415 57.3287 54.1812 57.3287Z" fill="#00171B"/>
<path fill-rule="evenodd" clip-rule="evenodd" d="M54.1812 74.3384C55.9208 74.3384 57.3311 72.9282 57.3311 71.1885C57.3311 69.4488 55.9208 68.0386 54.1812 68.0386C52.4415 68.0386 51.0312 69.4488 51.0312 71.1885C51.0312 72.9282 52.4415 74.3384 54.1812 74.3384Z" fill="#00171B"/>
<path fill-rule="evenodd" clip-rule="evenodd" d="M71.189 6.29986C72.9287 6.29986 74.3389 4.88959 74.3389 3.14993C74.3389 1.41027 72.9287 0 71.189 0C69.4493 0 68.0391 1.41027 68.0391 3.14993C68.0391 4.88959 69.4493 6.29986 71.189 6.29986Z" fill="#00171B"/>
<path fill-rule="evenodd" clip-rule="evenodd" d="M71.189 23.3096C72.9287 23.3096 74.3389 21.8994 74.3389 20.1597C74.3389 18.42 72.9287 17.0098 71.189 17.0098C69.4493 17.0098 68.0391 18.42 68.0391 20.1597C68.0391 21.8994 69.4493 23.3096 71.189 23.3096Z" fill="#00171B"/>
<path fill-rule="evenodd" clip-rule="evenodd" d="M71.189 40.9493C72.9287 40.9493 74.3389 39.539 74.3389 37.7993C74.3389 36.0597 72.9287 34.6494 71.189 34.6494C69.4493 34.6494 68.0391 36.0597 68.0391 37.7993C68.0391 39.539 69.4493 40.9493 71.189 40.9493Z" fill="#00171B"/>
<path fill-rule="evenodd" clip-rule="evenodd" d="M71.189 57.3287C72.9287 57.3287 74.3389 55.9184 74.3389 54.1787C74.3389 52.4391 72.9287 51.0288 71.189 51.0288C69.4493 51.0288 68.0391 52.4391 68.0391 54.1787C68.0391 55.9184 69.4493 57.3287 71.189 57.3287Z" fill="#00171B"/>
<path fill-rule="evenodd" clip-rule="evenodd" d="M71.189 74.3384C72.9287 74.3384 74.3389 72.9282 74.3389 71.1885C74.3389 69.4488 72.9287 68.0386 71.189 68.0386C69.4493 68.0386 68.0391 69.4488 68.0391 71.1885C68.0391 72.9282 69.4493 74.3384 71.189 74.3384Z" fill="#00171B"/>
</g>
</svg>
