<svg width="108" height="21" viewBox="0 0 108 21" fill="none" xmlns="http://www.w3.org/2000/svg">
<path d="M4.29609 15.6753V4.67529H0.136094V1.67529H11.9561V4.67529H7.69609V15.6753H4.29609ZM12.8302 15.6753V5.05529H15.8702L16.0102 8.51529L15.4102 7.85529C15.5702 7.28196 15.8302 6.76863 16.1902 6.31529C16.5635 5.86196 16.9968 5.50196 17.4902 5.23529C17.9835 4.96863 18.5102 4.83529 19.0702 4.83529C19.3102 4.83529 19.5302 4.85529 19.7302 4.89529C19.9435 4.93529 20.1368 4.98196 20.3102 5.03529L19.4302 8.57529C19.2835 8.48196 19.0835 8.40863 18.8302 8.35529C18.5902 8.28863 18.3368 8.25529 18.0702 8.25529C17.7768 8.25529 17.5035 8.30863 17.2502 8.41529C16.9968 8.50863 16.7835 8.64863 16.6102 8.83529C16.4368 9.02196 16.2968 9.24196 16.1902 9.49529C16.0968 9.74863 16.0502 10.0353 16.0502 10.3553V15.6753H12.8302ZM25.5517 15.8953C24.7651 15.8953 24.0917 15.7286 23.5317 15.3953C22.9851 15.0486 22.5584 14.5553 22.2517 13.9153C21.9584 13.2753 21.8117 12.5086 21.8117 11.6153V5.05529H25.0317V11.1753C25.0317 11.602 25.0984 11.9686 25.2317 12.2753C25.3651 12.582 25.5651 12.822 25.8317 12.9953C26.0984 13.1553 26.4184 13.2353 26.7917 13.2353C27.0717 13.2353 27.3251 13.1886 27.5517 13.0953C27.7917 13.002 27.9917 12.8753 28.1517 12.7153C28.3251 12.542 28.4584 12.3486 28.5517 12.1353C28.6451 11.9086 28.6917 11.662 28.6917 11.3953V5.05529H31.9117V15.6753H28.8917L28.7517 13.4953L29.3517 13.2553C29.1917 13.762 28.9251 14.2153 28.5517 14.6153C28.1784 15.002 27.7317 15.3153 27.2117 15.5553C26.6917 15.782 26.1384 15.8953 25.5517 15.8953ZM38.3438 15.8753C37.3038 15.8753 36.3838 15.7086 35.5838 15.3753C34.7971 15.042 34.1704 14.5953 33.7038 14.0353L35.6438 12.3553C36.0571 12.7686 36.5238 13.0753 37.0438 13.2753C37.5638 13.462 38.0571 13.5553 38.5238 13.5553C38.7104 13.5553 38.8771 13.5353 39.0238 13.4953C39.1704 13.4553 39.2904 13.402 39.3838 13.3353C39.4904 13.2553 39.5704 13.1686 39.6238 13.0753C39.6771 12.9686 39.7038 12.8486 39.7038 12.7153C39.7038 12.4486 39.5838 12.242 39.3438 12.0953C39.2238 12.0286 39.0238 11.9486 38.7438 11.8553C38.4638 11.762 38.1038 11.6553 37.6638 11.5353C37.0371 11.3753 36.4904 11.1886 36.0238 10.9753C35.5704 10.7486 35.1971 10.4886 34.9038 10.1953C34.6371 9.91529 34.4304 9.60863 34.2838 9.27529C34.1371 8.92863 34.0638 8.54196 34.0638 8.11529C34.0638 7.62196 34.1771 7.17529 34.4038 6.77529C34.6438 6.37529 34.9571 6.02863 35.3438 5.73529C35.7438 5.44196 36.1971 5.22196 36.7038 5.07529C37.2238 4.91529 37.7571 4.83529 38.3038 4.83529C38.8904 4.83529 39.4504 4.90196 39.9838 5.03529C40.5171 5.16863 41.0104 5.35529 41.4638 5.59529C41.9304 5.83529 42.3438 6.12196 42.7038 6.45529L41.0238 8.33529C40.7838 8.10863 40.5104 7.90863 40.2038 7.73529C39.9104 7.54863 39.6038 7.40196 39.2838 7.29529C38.9638 7.18863 38.6704 7.13529 38.4038 7.13529C38.2038 7.13529 38.0238 7.15529 37.8638 7.19529C37.7171 7.22196 37.5904 7.27529 37.4838 7.35529C37.3771 7.42196 37.2971 7.50863 37.2438 7.61529C37.1904 7.70863 37.1638 7.82196 37.1638 7.95529C37.1638 8.08863 37.1971 8.21529 37.2638 8.33529C37.3438 8.45529 37.4504 8.55529 37.5838 8.63529C37.7171 8.71529 37.9304 8.80863 38.2238 8.91529C38.5171 9.00863 38.9171 9.12863 39.4238 9.27529C40.0504 9.44863 40.5904 9.64196 41.0438 9.85529C41.4971 10.0686 41.8571 10.322 42.1238 10.6153C42.3371 10.842 42.4971 11.1086 42.6038 11.4153C42.7104 11.7086 42.7638 12.0286 42.7638 12.3753C42.7638 13.0553 42.5704 13.662 42.1838 14.1953C41.8104 14.7153 41.2904 15.1286 40.6238 15.4353C39.9571 15.7286 39.1971 15.8753 38.3438 15.8753ZM45.5461 15.6753V2.37529H48.7461V15.6753H45.5461ZM43.6661 7.85529V5.05529H50.8061V7.85529H43.6661ZM57.5972 15.8753C56.4239 15.8753 55.4039 15.642 54.5372 15.1753C53.6705 14.6953 52.9972 14.0486 52.5172 13.2353C52.0372 12.4086 51.7972 11.4686 51.7972 10.4153C51.7972 9.60196 51.9305 8.85529 52.1972 8.17529C52.4639 7.49529 52.8372 6.90863 53.3172 6.41529C53.7972 5.90863 54.3639 5.52196 55.0172 5.25529C55.6839 4.97529 56.4105 4.83529 57.1972 4.83529C57.9439 4.83529 58.6239 4.96863 59.2372 5.23529C59.8639 5.50196 60.4039 5.87529 60.8572 6.35529C61.3105 6.83529 61.6572 7.40196 61.8972 8.05529C62.1372 8.70863 62.2439 9.42196 62.2172 10.1953L62.1972 11.0553H53.7372L53.2772 9.25529H59.5972L59.2572 9.63529V9.23529C59.2305 8.90196 59.1239 8.60863 58.9372 8.35529C58.7639 8.08863 58.5305 7.88196 58.2372 7.73529C57.9439 7.58863 57.6105 7.51529 57.2372 7.51529C56.7172 7.51529 56.2705 7.62196 55.8972 7.83529C55.5372 8.03529 55.2639 8.33529 55.0772 8.73529C54.8905 9.12196 54.7972 9.60196 54.7972 10.1753C54.7972 10.762 54.9172 11.2753 55.1572 11.7153C55.4105 12.142 55.7705 12.4753 56.2372 12.7153C56.7172 12.9553 57.2839 13.0753 57.9372 13.0753C58.3905 13.0753 58.7905 13.0086 59.1372 12.8753C59.4972 12.742 59.8839 12.5153 60.2972 12.1953L61.7972 14.3153C61.3839 14.6753 60.9439 14.9686 60.4772 15.1953C60.0105 15.422 59.5305 15.5886 59.0372 15.6953C58.5572 15.8153 58.0772 15.8753 57.5972 15.8753ZM68.2759 15.8953C67.3559 15.8953 66.5359 15.662 65.8159 15.1953C65.1093 14.7153 64.5493 14.062 64.1359 13.2353C63.7226 12.3953 63.5159 11.442 63.5159 10.3753C63.5159 9.30863 63.7226 8.36196 64.1359 7.53529C64.5493 6.69529 65.1159 6.03529 65.8359 5.55529C66.5559 5.07529 67.3826 4.83529 68.3159 4.83529C68.7959 4.83529 69.2559 4.90863 69.6959 5.05529C70.1359 5.20196 70.5359 5.40196 70.8959 5.65529C71.2559 5.90863 71.5493 6.20196 71.7759 6.53529C72.0026 6.85529 72.1359 7.18863 72.1759 7.53529L71.4159 7.71529V0.875293H74.6359V15.6753H71.6559L71.4759 13.2553L72.1159 13.3553C72.0759 13.6886 71.9426 14.0086 71.7159 14.3153C71.5026 14.622 71.2226 14.8953 70.8759 15.1353C70.5293 15.362 70.1293 15.542 69.6759 15.6753C69.2359 15.822 68.7693 15.8953 68.2759 15.8953ZM69.0959 13.2353C69.5893 13.2353 70.0159 13.1153 70.3759 12.8753C70.7359 12.6353 71.0093 12.302 71.1959 11.8753C71.3959 11.4486 71.4959 10.9486 71.4959 10.3753C71.4959 9.78863 71.3959 9.28196 71.1959 8.85529C71.0093 8.42863 70.7359 8.09529 70.3759 7.85529C70.0159 7.61529 69.5893 7.49529 69.0959 7.49529C68.6026 7.49529 68.1759 7.61529 67.8159 7.85529C67.4693 8.09529 67.1959 8.42863 66.9959 8.85529C66.7959 9.28196 66.6959 9.78863 66.6959 10.3753C66.6959 10.9486 66.7959 11.4486 66.9959 11.8753C67.1959 12.302 67.4693 12.6353 67.8159 12.8753C68.1759 13.1153 68.6026 13.2353 69.0959 13.2353ZM90.1281 15.8953C89.6481 15.8953 89.1881 15.8286 88.7481 15.6953C88.3081 15.562 87.9081 15.382 87.5481 15.1553C87.2015 14.9286 86.9081 14.6686 86.6681 14.3753C86.4415 14.0686 86.2881 13.7553 86.2081 13.4353L86.9081 13.1953L86.7281 15.6553H83.7481V0.875293H86.9681V7.59529L86.3081 7.35529C86.3881 7.00863 86.5415 6.68863 86.7681 6.39529C86.9948 6.08863 87.2815 5.82196 87.6281 5.59529C87.9748 5.35529 88.3548 5.16863 88.7681 5.03529C89.1815 4.90196 89.6081 4.83529 90.0481 4.83529C90.9681 4.83529 91.7815 5.07529 92.4881 5.55529C93.2081 6.02196 93.7748 6.67529 94.1881 7.51529C94.6015 8.34196 94.8081 9.28863 94.8081 10.3553C94.8081 11.4353 94.6015 12.3953 94.1881 13.2353C93.7881 14.062 93.2348 14.7153 92.5281 15.1953C91.8215 15.662 91.0215 15.8953 90.1281 15.8953ZM89.2881 13.1953C89.7681 13.1953 90.1881 13.0753 90.5481 12.8353C90.9081 12.5953 91.1815 12.2686 91.3681 11.8553C91.5681 11.4286 91.6681 10.9286 91.6681 10.3553C91.6681 9.79529 91.5681 9.30196 91.3681 8.87529C91.1815 8.44863 90.9081 8.12196 90.5481 7.89529C90.1881 7.66863 89.7681 7.55529 89.2881 7.55529C88.7948 7.55529 88.3681 7.66863 88.0081 7.89529C87.6481 8.12196 87.3681 8.44863 87.1681 8.87529C86.9681 9.30196 86.8681 9.79529 86.8681 10.3553C86.8681 10.9286 86.9681 11.4286 87.1681 11.8553C87.3681 12.2686 87.6481 12.5953 88.0081 12.8353C88.3681 13.0753 88.7948 13.1953 89.2881 13.1953ZM97.8616 20.2753L100.282 14.5753L100.322 16.2153L95.2016 5.05529H98.8216L101.062 10.3953C101.182 10.662 101.295 10.9486 101.402 11.2553C101.508 11.562 101.588 11.8553 101.642 12.1353L101.202 12.3953C101.282 12.1953 101.368 11.9486 101.462 11.6553C101.568 11.3486 101.682 11.022 101.802 10.6753L103.762 5.05529H107.402L102.882 15.6753L101.042 20.2753H97.8616Z" fill="#00171B"/>
</svg>
