<svg width="46" height="46" viewBox="0 0 46 46" fill="none" xmlns="http://www.w3.org/2000/svg">
<g clip-path="url(#clip0_2_2228)">
<path d="M45.3692 41.7967C45.3692 43.7351 43.7369 45.3673 41.7986 45.3673C40.7785 45.3673 39.8603 44.9592 39.1461 44.2451L27.7201 31.7989C27.312 31.3908 27.312 30.7788 27.7201 30.3707L30.3726 27.7182C30.7808 27.3101 31.3928 27.3101 31.8009 27.7182L44.247 39.2463C44.9611 39.8584 45.3692 40.8785 45.3692 41.7967Z" fill="#B06328"/>
<path d="M28.0154 30.0393L30.0352 28.0195L27.0055 24.9898L24.9857 27.0096L28.0154 30.0393Z" fill="#B0C4D8"/>
<path d="M28.5355 28.5353L29.0456 29.0454L30.0657 28.0252L27.0052 24.9647L24.9648 27.0051L26.4951 28.5353C27.1073 27.9232 27.9234 27.9232 28.5355 28.5353Z" fill="#99B4CD"/>
<path d="M15.7831 0.479492C7.31568 0.479492 0.480469 7.3147 0.480469 15.7821C0.480469 24.2495 7.31568 31.0847 15.7831 31.0847C24.2505 31.0847 31.0857 24.2495 31.0857 15.7821C31.0857 7.3147 24.2506 0.479492 15.7831 0.479492ZM15.7831 28.0243C9.04991 28.0243 3.54099 22.5153 3.54099 15.7822C3.54099 9.04902 9.04991 3.54001 15.7831 3.54001C22.5162 3.54001 28.0252 9.04893 28.0252 15.7821C28.0252 22.5153 22.5162 28.0243 15.7831 28.0243Z" fill="#C4D7E5"/>
<path d="M15.7811 28.0242C22.5423 28.0242 28.0232 22.5432 28.0232 15.7821C28.0232 9.02101 22.5423 3.54004 15.7811 3.54004C9.02003 3.54004 3.53906 9.02101 3.53906 15.7821C3.53906 22.5432 9.02003 28.0242 15.7811 28.0242Z" fill="#70B7E5"/>
<path d="M9.76118 17.2105C10.2713 13.3338 13.3318 10.2733 17.2084 9.76323H17.3105C19.0448 9.55922 19.1468 7.11073 17.5145 6.80476C16.4943 6.60075 15.4741 6.60075 14.454 6.70271C10.4753 7.31483 7.31269 10.4774 6.80262 14.3541C6.59861 15.3742 6.70057 16.4964 6.90467 17.4146C7.21073 19.1489 9.65913 18.9449 9.86314 17.2106C9.76118 17.3125 9.76118 17.2105 9.76118 17.2105Z" fill="#92C5EB"/>
<path d="M4.55921 16.8023C4.55921 10.0691 10.0681 4.56018 16.8013 4.56018C19.9639 4.56018 22.7183 5.78443 24.9627 7.6207C22.7183 5.07026 19.4538 3.54004 15.7811 3.54004C9.04798 3.54004 3.53906 9.04896 3.53906 15.7821C3.53906 19.4548 5.17133 22.7193 7.61973 24.9637C5.78345 22.7193 4.55921 19.9648 4.55921 16.8023Z" fill="#4C9CD6"/>
<path d="M15.7812 31.0839C24.2487 31.0839 31.0839 24.2486 31.0839 15.7812C30.5738 15.7812 30.0637 16.1894 30.0637 16.8014C29.8597 20.27 28.3294 23.4325 25.983 25.7789C23.6366 28.2273 20.3721 29.7576 16.8015 30.0637C16.1894 30.0637 15.7812 30.5738 15.7812 31.0839Z" fill="#B0C9DB"/>
<path d="M15.7831 0.479492C7.31568 0.479492 0.480469 7.3147 0.480469 15.7821C0.990541 15.7821 1.50061 15.374 1.50061 14.762C1.70471 11.3954 3.13297 8.33485 5.27531 6.09046C7.7237 3.54001 11.0903 1.8057 14.7629 1.49964C15.3751 1.49964 15.7831 0.989564 15.7831 0.479492Z" fill="#E2E7F0"/>
<path d="M44.1387 39.1444L43.5265 38.6344C44.0366 39.2465 44.3427 40.0626 44.3427 40.8788C44.3427 42.205 42.7104 42.715 41.7922 41.7969L31.0805 31.0851C30.4683 30.4729 29.5501 30.4729 28.9381 31.0851L27.918 32.1052L39.0379 44.0412C39.65 44.6534 40.4661 45.1634 41.2822 45.2655C42.4044 45.3675 43.5266 44.9594 44.2407 44.2453C44.9548 43.5312 45.3629 42.4091 45.2609 41.2869C45.2609 40.4706 44.7508 39.7566 44.1387 39.1444Z" fill="#A35425"/>
<path d="M33.635 32.1055C33.533 32.1055 33.3289 32.1055 33.2269 32.0035L30.6764 29.453C30.4724 29.249 30.4724 28.943 30.6764 28.7389C30.8805 28.5349 31.1865 28.5349 31.3905 28.7389L33.941 31.2894C34.145 31.4934 34.145 31.7995 33.941 32.0035C33.9411 32.1055 33.737 32.1055 33.635 32.1055Z" fill="#C97629"/>
</g>
<defs>
<clipPath id="clip0_2_2228">
<rect width="44.8878" height="44.8878" fill="white" transform="translate(0.480469 0.479492)"/>
</clipPath>
</defs>
</svg>
