<svg width="42" height="42" viewBox="0 0 42 42" fill="none" xmlns="http://www.w3.org/2000/svg">
<path d="M38.3436 35.1813C40.7058 32.6468 41.9936 29.5136 41.9936 26.249C41.9936 22.1643 39.9758 18.4651 36.7441 15.8403C36.6703 25.1991 27.8693 32.8109 17.0586 32.8109H9.74219C12.572 37.478 18.3218 40.6851 24.9328 40.6851H40.6812C41.2144 40.6851 41.6901 40.3652 41.8952 39.873C42.1002 39.3809 41.9854 38.815 41.6081 38.4458L38.3436 35.1813Z" fill="#64B5F6"/>
<path d="M17.0629 1.31445C7.65487 1.31445 0.00213481 7.78606 0.00213481 15.7505C0.00213481 19.015 1.28989 22.1401 3.65215 24.6828L0.387643 27.9473C0.0103371 28.3246 -0.104495 28.8906 0.100562 29.3745C0.30562 29.8666 0.781352 30.1865 1.3145 30.1865H17.0629C26.4709 30.1865 34.1237 23.7149 34.1237 15.7505C34.1237 7.78606 26.4709 1.31445 17.0629 1.31445Z" fill="#2196F3"/>
<path d="M24.9397 11.8135H9.19127C8.46947 11.8135 7.87891 12.404 7.87891 13.1258C7.87891 13.8476 8.46947 14.4382 9.19127 14.4382H24.9397C25.6615 14.4382 26.252 13.8476 26.252 13.1258C26.252 12.404 25.6615 11.8135 24.9397 11.8135Z" fill="#FAFAFA"/>
<path d="M19.6902 17.063H9.19127C8.46947 17.063 7.87891 17.6536 7.87891 18.3754C7.87891 19.0972 8.46947 19.6877 9.19127 19.6877H19.6902C20.412 19.6877 21.0026 19.0972 21.0026 18.3754C21.0026 17.6536 20.412 17.063 19.6902 17.063Z" fill="#FAFAFA"/>
</svg>
