<svg width="44" height="44" viewBox="0 0 44 44" fill="none" xmlns="http://www.w3.org/2000/svg">
<path d="M0.324219 6.93117C0.324219 3.06922 3.48277 -0.0550381 7.35752 0.000735298C11.1108 0.0547041 14.1627 3.13281 14.1865 6.88639C14.1998 8.98851 13.277 10.8751 11.8107 12.1548C11.6559 12.2898 11.6783 12.5363 11.8551 12.6409L13.161 13.4136C13.3722 13.5386 13.2836 13.8622 13.0382 13.8622L7.1242 13.8607C3.35678 13.7907 0.324219 10.7153 0.324219 6.93117Z" fill="#7ACAA6"/>
<path d="M13.1638 13.4136L11.8577 12.6409C11.6819 12.5369 11.6575 12.2908 11.8114 12.1565C13.2944 10.8633 14.222 8.94919 14.1884 6.81914C14.1302 3.13474 11.1482 0.110346 7.46482 0.00301008C6.94249 -0.0122009 6.43271 0.0305101 5.94141 0.124955C9.12513 0.735284 11.5515 3.54157 11.5726 6.88635C11.5829 8.50618 11.0372 9.99806 10.1155 11.1829C9.55886 11.8983 9.73976 12.9357 10.5199 13.3974L10.5472 13.4136C10.7561 13.5371 10.6713 13.8546 10.4322 13.8615L13.0409 13.8621C13.2862 13.8622 13.3749 13.5385 13.1638 13.4136Z" fill="#57BE92"/>
<path d="M34.1039 25.1586H18.3802C14.4531 25.1586 12.3039 20.5819 14.8122 17.56L14.9517 17.3919C16.0567 16.0607 16.6615 14.385 16.6615 12.6549V9.62277C16.6616 4.30822 20.9698 0 26.2843 0C31.5989 0 35.9071 4.30822 35.9071 9.62277V12.7573C35.9071 14.5055 36.5247 16.1975 37.6508 17.5348C40.1903 20.5505 38.0465 25.1586 34.1039 25.1586Z" fill="#925F5F"/>
<path d="M42.3673 32.9513V43.3463H10.1133V33.0295C10.1133 30.6937 11.5132 28.5857 13.6651 27.6799L18.872 25.4163L20.6252 24.654C21.9555 24.0757 22.8157 22.7634 22.8157 21.3128V20.6399H29.6641V21.2784C29.6641 22.735 30.5329 24.0525 31.8727 24.6265L38.9152 27.6455C41.0138 28.5754 42.3673 30.655 42.3673 32.9513Z" fill="white"/>
<path d="M18.8674 27.8943C20.6445 28.4253 23.2602 28.9917 26.4485 28.9359C29.4401 28.8836 31.8959 28.3019 33.6046 27.7561L34.4537 25.7343L31.8682 24.6261C30.5288 24.052 29.6603 22.735 29.6603 21.2776V20.6396H22.8119V21.3124C22.8119 22.7628 21.9515 24.075 20.6215 24.6534L18.5273 25.5639L18.8674 27.8943Z" fill="#FFCEBF"/>
<path d="M38.9115 27.6444L33.6064 25.3706L33.6055 25.3707V43.3455H42.364V32.9507C42.364 30.6547 41.0106 28.5746 38.9115 27.6444Z" fill="#4FABF7"/>
<path d="M18.872 25.4148V43.3448H10.1133V33.028C10.1133 30.6922 11.5132 28.5842 13.6651 27.6784L18.872 25.4148Z" fill="#4FABF7"/>
<path d="M28.621 24.3985C29.4089 24.3985 30.1596 24.2403 30.844 23.9548C30.1099 23.2772 29.6713 22.3129 29.6713 21.2776V20.6396H22.8229V21.3123C22.8229 21.8362 22.7101 22.342 22.5039 22.8017C23.5409 23.7903 24.9438 24.3984 26.4896 24.3984H28.621V24.3985Z" fill="#FFB09E"/>
<path d="M33.0918 10.3392V16.0046C33.0918 19.1963 30.5044 21.7837 27.3127 21.7837H25.1814C21.9897 21.7837 19.4023 19.1962 19.4023 16.0046V10.3392C19.4023 8.26285 21.0855 6.57959 23.1619 6.57959H29.3322C31.4086 6.57968 33.0918 8.26285 33.0918 10.3392Z" fill="#FFCEBF"/>
<path d="M33.0881 13.2856C33.0855 13.2935 33.0823 13.301 33.08 13.309C32.8711 14.0305 32.3228 15.3933 30.9978 16.415C30.3809 16.8908 29.6771 17.2346 28.9063 17.4369C28.5569 17.5286 28.3479 17.8861 28.4395 18.2356C28.5167 18.5294 28.7817 18.7239 29.0719 18.7239C29.1268 18.7239 29.1826 18.7169 29.2383 18.7023C30.1795 18.4553 31.0403 18.0343 31.7968 17.451C32.3192 17.0482 32.742 16.6032 33.0843 16.1558C33.0856 16.1051 33.0882 16.0546 33.0882 16.0036V13.2856H33.0881Z" fill="#7A6D79"/>
<path d="M28.1908 19.2445H26.6579C25.9602 19.2445 25.3945 18.6789 25.3945 17.9811C25.3945 17.2834 25.9602 16.7178 26.6579 16.7178H28.1908C28.8885 16.7178 29.4541 17.2834 29.4541 17.9811C29.454 18.679 28.8885 19.2445 28.1908 19.2445Z" fill="#685E68"/>
<path d="M27.6114 5.07864C27.7582 3.22755 29.5304 1.99907 31.2265 1.36279C34.0323 3.04399 35.9107 6.11376 35.9107 9.62268V10.2842C35.7556 10.3168 35.6013 10.3453 35.4486 10.3681C34.5142 10.5077 33.7185 10.4472 33.1749 10.3681C29.6718 9.90146 27.4341 7.31431 27.6114 5.07864Z" fill="#A66E6E"/>
<path d="M26.2906 0C28.4638 0 30.4686 0.720672 32.0795 1.93574C31.2759 3.33403 29.4306 6.09864 25.9705 8.14533C23.4019 9.66479 20.9798 10.1753 19.4883 10.3681H16.668V9.62268C16.6679 4.30822 20.9761 0 26.2906 0V0Z" fill="#925F5F"/>
<path d="M37.0389 43.3467H16.0998L14.9449 32.452C14.863 31.6793 15.4688 31.0059 16.2459 31.0059H36.8929C37.67 31.0059 38.2758 31.6793 38.1939 32.452L37.0389 43.3467Z" fill="#EFEDEF"/>
<path d="M36.8938 31.0059H34.2773C35.0544 31.0059 35.6602 31.6793 35.5783 32.452L34.4234 43.3468H37.0398L38.1947 32.452C38.2767 31.6793 37.6709 31.0059 36.8938 31.0059Z" fill="#E5E1E5"/>
<path d="M43.3555 44H0.644531C0.288492 44 0 43.7114 0 43.3555C0 42.9995 0.288492 42.7109 0.644531 42.7109H43.3555C43.7115 42.7109 44 42.9995 44 43.3555C44 43.7114 43.7115 44 43.3555 44Z" fill="#C9BFC8"/>
<path d="M26.5698 39.0063C27.5813 39.0063 28.4013 38.1863 28.4013 37.1748C28.4013 36.1633 27.5813 35.3433 26.5698 35.3433C25.5583 35.3433 24.7383 36.1633 24.7383 37.1748C24.7383 38.1863 25.5583 39.0063 26.5698 39.0063Z" fill="#C9BFC8"/>
<path d="M4.64626 7.585C5.00749 7.585 5.30033 7.29216 5.30033 6.93093C5.30033 6.56969 5.00749 6.27686 4.64626 6.27686C4.28502 6.27686 3.99219 6.56969 3.99219 6.93093C3.99219 7.29216 4.28502 7.585 4.64626 7.585Z" fill="white"/>
<path d="M7.25954 7.585C7.62077 7.585 7.91361 7.29216 7.91361 6.93093C7.91361 6.56969 7.62077 6.27686 7.25954 6.27686C6.89831 6.27686 6.60547 6.56969 6.60547 6.93093C6.60547 7.29216 6.89831 7.585 7.25954 7.585Z" fill="white"/>
<path d="M9.87673 7.585C10.238 7.585 10.5308 7.29216 10.5308 6.93093C10.5308 6.56969 10.238 6.27686 9.87673 6.27686C9.51549 6.27686 9.22266 6.56969 9.22266 6.93093C9.22266 7.29216 9.51549 7.585 9.87673 7.585Z" fill="white"/>
</svg>
