<svg width="42" height="42" viewBox="0 0 42 42" fill="none" xmlns="http://www.w3.org/2000/svg">
<g clip-path="url(#clip0_2_2292)">
<path d="M39.375 10.4991H2.625C1.17862 10.4991 0 11.6778 0 13.1241V36.7491C0 38.1981 1.17862 39.3741 2.625 39.3741H39.375C40.824 39.3741 42 38.1981 42 36.7491V13.1241C42 11.6778 40.824 10.4991 39.375 10.4991Z" fill="#2196F3"/>
<path d="M42 15.7491H0V23.6241H42V15.7491Z" fill="#455A64"/>
<path d="M11.8125 31.4993H6.5625C5.838 31.4993 5.25 30.9113 5.25 30.1868C5.25 29.4623 5.838 28.8743 6.5625 28.8743H11.8125C12.537 28.8743 13.125 29.4623 13.125 30.1868C13.125 30.9113 12.537 31.4993 11.8125 31.4993Z" fill="#FAFAFA"/>
<path d="M42 23.4825V13.1243C42 11.6779 40.824 10.4993 39.375 10.4993H18.375V13.1243C18.375 21.3458 21.504 26.3516 29.547 30.9821C30.1402 31.3208 30.8175 31.4993 31.5 31.4993C32.1825 31.4993 32.8597 31.3208 33.4609 30.9769C37.4404 28.6905 40.2124 26.3044 42 23.4825Z" fill="#FAFAFA"/>
<path d="M41.2046 6.66967L32.0171 2.73217C31.6837 2.59042 31.3136 2.59042 30.9803 2.73217L21.7928 6.66967C21.3124 6.87442 21 7.34954 21 7.87454V13.1245C21 20.3459 23.6696 24.5669 30.8464 28.7013C31.0485 28.8168 31.2743 28.8745 31.5 28.8745C31.7257 28.8745 31.9515 28.8168 32.1536 28.7013C39.3304 24.5774 42 20.3564 42 13.1245V7.87454C42 7.34954 41.6876 6.87442 41.2046 6.66967Z" fill="#009688"/>
<path d="M30.1873 19.6866C30.1689 19.6866 30.1479 19.6866 30.1321 19.6866C29.7148 19.6682 29.3289 19.453 29.0953 19.1038L26.4703 15.1663C26.0686 14.5626 26.2314 13.7488 26.8351 13.3472C27.4336 12.9482 28.25 13.1057 28.6543 13.7121L30.2844 16.156L34.4109 10.9952C34.865 10.4308 35.6919 10.3416 36.2563 10.7905C36.8233 11.2446 36.9125 12.0688 36.461 12.6358L31.211 19.1983C30.9616 19.5054 30.5836 19.6866 30.1873 19.6866Z" fill="#FAFAFA"/>
</g>
<defs>
<clipPath id="clip0_2_2292">
<rect width="42" height="42" fill="white"/>
</clipPath>
</defs>
</svg>
