<svg width="18" height="12" viewBox="0 0 18 12" fill="none" xmlns="http://www.w3.org/2000/svg">
<path fill-rule="evenodd" clip-rule="evenodd" d="M1.00061 6.14305C1.00061 5.99152 1.06081 5.84619 1.16796 5.73903C1.27511 5.63188 1.42045 5.57168 1.57198 5.57168H15.0483L11.4521 1.97662C11.399 1.9235 11.3569 1.86043 11.3281 1.79102C11.2994 1.72161 11.2846 1.64722 11.2846 1.57209C11.2846 1.49696 11.2994 1.42257 11.3281 1.35316C11.3569 1.28375 11.399 1.22069 11.4521 1.16756C11.5052 1.11444 11.5683 1.0723 11.6377 1.04355C11.7071 1.0148 11.7815 1 11.8566 1C11.9318 1 12.0062 1.0148 12.0756 1.04355C12.145 1.0723 12.2081 1.11444 12.2612 1.16756L16.8321 5.73852C16.8853 5.7916 16.9276 5.85465 16.9564 5.92407C16.9852 5.99348 17 6.0679 17 6.14305C17 6.21821 16.9852 6.29262 16.9564 6.36204C16.9276 6.43146 16.8853 6.49451 16.8321 6.54758L12.2612 11.1185C12.2081 11.1717 12.145 11.2138 12.0756 11.2426C12.0062 11.2713 11.9318 11.2861 11.8566 11.2861C11.7815 11.2861 11.7071 11.2713 11.6377 11.2426C11.5683 11.2138 11.5052 11.1717 11.4521 11.1185C11.399 11.0654 11.3569 11.0024 11.3281 10.9329C11.2994 10.8635 11.2846 10.7891 11.2846 10.714C11.2846 10.6389 11.2994 10.5645 11.3281 10.4951C11.3569 10.4257 11.399 10.3626 11.4521 10.3095L15.0483 6.71442H1.57198C1.42045 6.71442 1.27511 6.65423 1.16796 6.54707C1.06081 6.43992 1.00061 6.29459 1.00061 6.14305Z" fill="#2B3384" stroke="#2B3384" stroke-width="0.761827"/>
</svg>
