<svg width="32" height="32" viewBox="0 0 32 32" fill="none" xmlns="http://www.w3.org/2000/svg">
<circle cx="16" cy="16" r="15.5" stroke="#C2CFE0"/>
<g clip-path="url(#clip0_2_1302)">
<path d="M22.6915 9.96356C21.864 9.07402 20.7043 8.56789 19.4893 8.56601C18.2734 8.56742 17.1125 9.07328 16.2837 9.96299L16.0012 10.2615L15.7187 9.96299C14.074 8.19286 11.3057 8.0912 9.53562 9.73589C9.45719 9.8088 9.38143 9.88452 9.30852 9.96299C7.56383 11.8449 7.56383 14.7532 9.30852 16.6351L15.586 23.2551C15.8032 23.4844 16.1651 23.4942 16.3944 23.277C16.4019 23.2699 16.4092 23.2626 16.4163 23.2551L22.6916 16.6351C24.4361 14.7534 24.4361 11.8452 22.6915 9.96356ZM21.8641 15.8477H21.8636L16.0012 22.0308L10.1383 15.8477C8.8054 14.4097 8.8054 12.1878 10.1383 10.7498C11.3486 9.43796 13.3934 9.3557 14.7052 10.5661C14.7689 10.6249 14.8302 10.6861 14.889 10.7498L15.586 11.4852C15.8158 11.7134 16.1866 11.7134 16.4163 11.4852L17.1134 10.7504C18.3238 9.43853 20.3685 9.35627 21.6804 10.5667C21.7441 10.6254 21.8054 10.6867 21.8641 10.7504C23.2086 12.1906 23.2184 14.4166 21.8641 15.8477Z" fill="#121212"/>
</g>
<defs>
<clipPath id="clip0_2_1302">
<rect width="16" height="16" fill="white" transform="translate(8 8)"/>
</clipPath>
</defs>
</svg>
