<svg width="29" height="29" viewBox="0 0 29 29" fill="none" xmlns="http://www.w3.org/2000/svg">
<path d="M15.4999 20.9995C15.4999 21.5517 15.0522 21.9994 14.4999 21.9994C13.9477 21.9994 13.5 21.5517 13.5 20.9995C13.5 20.4472 13.9477 19.9995 14.4999 19.9995C15.0522 19.9995 15.4999 20.4472 15.4999 20.9995Z" fill="#C2CFE0"/>
<path d="M14.5 27C7.88293 27 2.5 21.6171 2.5 15C2.5 8.38293 7.88293 3 14.5 3C21.1171 3 26.5 8.38293 26.5 15C26.5 21.6171 21.1171 27 14.5 27ZM14.5 4.5C8.71002 4.5 4 9.21002 4 15C4 20.79 8.71002 25.5 14.5 25.5C20.29 25.5 25 20.79 25 15C25 9.21002 20.29 4.5 14.5 4.5Z" fill="#C2CFE0"/>
<path d="M14.5001 17.7506C14.0861 17.7506 13.7501 17.4146 13.7501 17.0006V15.9906C13.7501 15.0386 14.3541 14.1855 15.2521 13.8686C16.447 13.4476 17.2501 12.1745 17.2501 11.2505C17.2501 9.73352 16.0171 8.50049 14.5001 8.50049C12.983 8.50049 11.75 9.73352 11.75 11.2505C11.75 11.6646 11.414 12.0005 11 12.0005C10.586 12.0005 10.25 11.6646 10.25 11.2505C10.25 8.90753 12.1561 7.00049 14.5001 7.00049C16.844 7.00049 18.7501 8.90753 18.7501 11.2505C18.7501 12.9186 17.433 14.6896 15.751 15.2836C15.4511 15.3885 15.2501 15.6735 15.2501 15.9915V17.0006C15.2501 17.4146 14.9141 17.7506 14.5001 17.7506Z" fill="#C2CFE0"/>
</svg>
