<svg width="30" height="30" viewBox="0 0 30 30" fill="none" xmlns="http://www.w3.org/2000/svg">
<path d="M21.1886 19.4922V19.7441L21.3668 19.9222L23.6053 22.1608V22.509H5.48829V22.1608L7.72683 19.9222L7.90496 19.7441V19.4922V13.4505C7.90496 9.94095 9.7434 7.1475 12.8745 6.40563L13.3425 6.29476V5.81385V4.99219C13.3425 4.32515 13.8798 3.78785 14.5468 3.78785C15.2138 3.78785 15.7511 4.32515 15.7511 4.99219V5.81385V6.29437L16.2186 6.40552C19.3385 7.14731 21.1886 9.95357 21.1886 13.4505V19.4922ZM16.2491 24.9337C15.9975 25.631 15.3271 26.134 14.5468 26.134C13.7583 26.134 13.0922 25.6318 12.8431 24.9337H16.2491Z" fill="white" stroke="#C2CFE0" stroke-width="1.21632"/>
<path d="M20.5885 12.85C23.5937 12.85 26.03 10.4138 26.03 7.40853C26.03 4.40327 23.5937 1.96703 20.5885 1.96703C17.5832 1.96703 15.147 4.40327 15.147 7.40853C15.147 10.4138 17.5832 12.85 20.5885 12.85Z" fill="#F95142" stroke="white" stroke-width="1.21632"/>
</svg>
