<svg width="21" height="21" viewBox="0 0 21 21" fill="none" xmlns="http://www.w3.org/2000/svg">
<path d="M10.5 0.65625C5.07122 0.65625 0.65625 5.07122 0.65625 10.5C0.65625 15.9288 5.07122 20.3437 10.5 20.3437C15.9288 20.3437 20.3437 15.9288 20.3437 10.5C20.3437 5.07122 15.9288 0.65625 10.5 0.65625ZM10.5 1.96875C15.2195 1.96875 19.0364 5.78055 19.0364 10.5C19.0364 15.2195 15.2195 19.0364 10.5 19.0364C5.78055 19.0364 1.96875 15.2195 1.96875 10.5C1.96875 5.78055 5.78055 1.96875 10.5 1.96875ZM10.491 5.25384C10.3177 5.2569 10.1525 5.32844 10.0317 5.45284C9.91093 5.57724 9.84427 5.74439 9.84631 5.91779V6.47021C8.7867 6.66899 7.88013 7.35132 7.88013 8.53381C7.88013 9.35413 8.24993 10.0176 8.74658 10.4039C9.24323 10.7902 9.80402 10.9614 10.2962 11.1255C10.7884 11.2895 11.2133 11.4464 11.4549 11.6343C11.6965 11.8223 11.8125 11.9804 11.8125 12.4726C11.8125 13.5663 9.19263 13.5663 9.19263 12.4726C9.19456 12.3852 9.17902 12.2983 9.14692 12.217C9.11481 12.1356 9.06678 12.0616 9.00565 11.9991C8.94452 11.9366 8.87152 11.8869 8.79093 11.853C8.71035 11.8191 8.6238 11.8016 8.53638 11.8016C8.44895 11.8016 8.3624 11.8191 8.28182 11.853C8.20123 11.8869 8.12823 11.9366 8.0671 11.9991C8.00597 12.0616 7.95794 12.1356 7.92584 12.217C7.89373 12.2983 7.87819 12.3852 7.88013 12.4726C7.88013 13.6542 8.7875 14.3378 9.84631 14.5375V15.0873C9.84437 15.1747 9.85991 15.2617 9.89202 15.343C9.92413 15.4243 9.97216 15.4984 10.0333 15.5609C10.0944 15.6234 10.1674 15.673 10.248 15.7069C10.3286 15.7408 10.4151 15.7583 10.5026 15.7583C10.59 15.7583 10.6765 15.7408 10.7571 15.7069C10.8377 15.673 10.9107 15.6234 10.9718 15.5609C11.033 15.4984 11.081 15.4243 11.1131 15.343C11.1452 15.2617 11.1608 15.1747 11.1588 15.0873V14.5375C12.2178 14.3379 13.1263 13.6543 13.1263 12.4726C13.1263 11.6523 12.7552 10.9888 12.2585 10.6025C11.7619 10.2163 11.2011 10.0437 10.7089 9.87964C10.2167 9.71558 9.79186 9.56 9.55023 9.37207C9.3086 9.18414 9.19263 9.026 9.19263 8.53381C9.19263 7.44006 11.8125 7.44006 11.8125 8.53381C11.8125 8.70803 11.8817 8.87511 12.0049 8.9983C12.1281 9.1215 12.2952 9.1907 12.4694 9.1907C12.6436 9.1907 12.8107 9.1215 12.9339 8.9983C13.0571 8.87511 13.1263 8.70803 13.1263 8.53381C13.1263 7.3531 12.2175 6.67145 11.1588 6.4715V5.91779C11.1598 5.82998 11.1433 5.74287 11.11 5.66159C11.0768 5.58032 11.0276 5.50655 10.9653 5.44464C10.903 5.38273 10.829 5.33394 10.7475 5.30117C10.666 5.2684 10.5788 5.2523 10.491 5.25384H10.491Z" fill="#C2CFE0"/>
</svg>
