<svg width="22" height="22" viewBox="0 0 22 22" fill="none" xmlns="http://www.w3.org/2000/svg">
<path d="M17.4165 9.3228C17.417 9.45974 17.3868 9.59505 17.3281 9.71878C17.2694 9.84251 17.1837 9.95152 17.0773 10.0378L11.5773 14.4653C11.4133 14.6001 11.2076 14.6738 10.9953 14.6738C10.7829 14.6738 10.5772 14.6001 10.4132 14.4653L4.91318 9.88196C4.72598 9.72637 4.60826 9.50279 4.58591 9.26039C4.56356 9.018 4.63842 8.77666 4.79401 8.58946C4.94961 8.40227 5.17319 8.28454 5.41558 8.2622C5.65797 8.23985 5.89931 8.3147 6.08651 8.4703L10.9998 12.5678L15.9132 8.6078C16.0477 8.49571 16.2116 8.4245 16.3853 8.40261C16.5591 8.38072 16.7355 8.40906 16.8936 8.48428C17.0518 8.5595 17.1851 8.67844 17.2777 8.82705C17.3704 8.97565 17.4186 9.14768 17.4165 9.3228Z" fill="black"/>
</svg>
