<svg width="21" height="15" viewBox="0 0 21 15" fill="none" xmlns="http://www.w3.org/2000/svg">
<path d="M18.7031 0.28125H2.29688C1.03039 0.28125 0 1.31164 0 2.57812V12.4219C0 13.6884 1.03039 14.7188 2.29688 14.7188H18.7031C19.9696 14.7188 21 13.6884 21 12.4219V2.57812C21 1.31164 19.9696 0.28125 18.7031 0.28125ZM2.29688 1.59375H18.7031C19.2459 1.59375 19.6875 2.03537 19.6875 2.57812V3.89062H1.3125V2.57812C1.3125 2.03537 1.75412 1.59375 2.29688 1.59375ZM18.7031 13.4062H2.29688C1.75412 13.4062 1.3125 12.9646 1.3125 12.4219V5.20312H19.6875V12.4219C19.6875 12.9646 19.2459 13.4062 18.7031 13.4062Z" fill="#C2CFE0"/>
</svg>
