<svg width="17" height="17" viewBox="0 0 17 17" fill="none" xmlns="http://www.w3.org/2000/svg">
<g clip-path="url(#clip0_2_1295)">
<path d="M11.3381 11.2321C13.1471 8.39349 12.9197 8.74763 12.9718 8.67362C13.6304 7.74466 13.9785 6.65132 13.9785 5.51172C13.9785 2.48957 11.5261 0 8.5 0C5.48376 0 3.02148 2.48466 3.02148 5.51172C3.02148 6.65059 3.37689 7.77255 4.05709 8.71403L5.66186 11.2322C3.94609 11.4958 1.0293 12.2816 1.0293 14.0117C1.0293 14.6424 1.44095 15.5412 3.40206 16.2416C4.77142 16.7307 6.58189 17 8.5 17C12.0868 17 15.9707 15.9882 15.9707 14.0117C15.9707 12.2813 13.0573 11.4963 11.3381 11.2321ZM4.88913 8.16614C4.88365 8.15758 4.87794 8.14921 4.87196 8.14097C4.30595 7.36229 4.01758 6.43945 4.01758 5.51172C4.01758 3.02089 6.02325 0.996094 8.5 0.996094C10.9716 0.996094 12.9824 3.02178 12.9824 5.51172C12.9824 6.44094 12.6995 7.33248 12.1641 8.09064C12.1161 8.15392 12.3664 7.76505 8.5 13.8321L4.88913 8.16614ZM8.5 16.0039C4.58223 16.0039 2.02539 14.8523 2.02539 14.0117C2.02539 13.4467 3.33917 12.5177 6.25042 12.1556L8.07998 15.0265C8.17142 15.17 8.3298 15.2568 8.49997 15.2568C8.67013 15.2568 8.82855 15.1699 8.91995 15.0265L10.7495 12.1556C13.6608 12.5177 14.9746 13.4467 14.9746 14.0117C14.9746 14.8452 12.4408 16.0039 8.5 16.0039Z" fill="#C2CFE0"/>
<path d="M8.5 3.02148C7.12688 3.02148 6.00977 4.1386 6.00977 5.51172C6.00977 6.88483 7.12688 8.00195 8.5 8.00195C9.87312 8.00195 10.9902 6.88483 10.9902 5.51172C10.9902 4.1386 9.87312 3.02148 8.5 3.02148ZM8.5 7.00586C7.67613 7.00586 7.00586 6.33559 7.00586 5.51172C7.00586 4.68785 7.67613 4.01758 8.5 4.01758C9.32387 4.01758 9.99414 4.68785 9.99414 5.51172C9.99414 6.33559 9.32387 7.00586 8.5 7.00586Z" fill="#C2CFE0"/>
</g>
<defs>
<clipPath id="clip0_2_1295">
<rect width="17" height="17" fill="white"/>
</clipPath>
</defs>
</svg>
