<svg width="20" height="21" viewBox="0 0 20 21" fill="none" xmlns="http://www.w3.org/2000/svg">
<path d="M10 0.178711C4.47768 0.178711 0 4.65639 0 10.1787C0 15.701 4.47768 20.1787 10 20.1787C15.5223 20.1787 20 15.701 20 10.1787C20 4.65639 15.5223 0.178711 10 0.178711ZM14.3192 6.91309L9.6183 13.4309C9.5526 13.5226 9.46599 13.5974 9.36564 13.6489C9.26529 13.7005 9.15411 13.7274 9.0413 13.7274C8.92848 13.7274 8.8173 13.7005 8.71695 13.6489C8.6166 13.5974 8.52999 13.5226 8.46429 13.4309L5.6808 9.5738C5.59598 9.4555 5.6808 9.29032 5.82589 9.29032H6.87277C7.10045 9.29032 7.31696 9.39969 7.45089 9.58719L9.04018 11.7926L12.5491 6.92648C12.683 6.74121 12.8973 6.6296 13.1272 6.6296H14.1741C14.3192 6.6296 14.404 6.79478 14.3192 6.91309Z" fill="#56BC80"/>
</svg>
