<svg width="92" height="15" viewBox="0 0 92 15" fill="none" xmlns="http://www.w3.org/2000/svg">
<path d="M10.7699 8.68925C10.6142 8.84012 10.5427 9.05831 10.5781 9.27228L11.1125 12.2295C11.1576 12.4801 11.0518 12.7338 10.842 12.8786C10.6364 13.0289 10.363 13.0469 10.1388 12.9267L7.47666 11.5383C7.3841 11.489 7.28131 11.4625 7.17613 11.4595H7.01324C6.95674 11.468 6.90144 11.486 6.85096 11.5136L4.18826 12.9087C4.05662 12.9748 3.90756 12.9983 3.7615 12.9748C3.40568 12.9075 3.16826 12.5685 3.22656 12.2109L3.7615 9.25365C3.79697 9.03787 3.72544 8.81848 3.56976 8.66521L1.39933 6.5615C1.21781 6.38539 1.1547 6.12092 1.23765 5.8823C1.31819 5.64428 1.52375 5.47057 1.77199 5.43151L4.75926 4.99814C4.98646 4.9747 5.18602 4.83646 5.2882 4.63209L6.60452 1.93333C6.63578 1.87323 6.67605 1.81793 6.72473 1.77105L6.77883 1.72897C6.80708 1.69772 6.83953 1.67187 6.8756 1.65083L6.94111 1.62679L7.04329 1.58472H7.29634C7.52234 1.60816 7.72129 1.7434 7.82527 1.94535L9.15903 4.63209C9.2552 4.82864 9.44213 4.96508 9.65791 4.99814L12.6452 5.43151C12.8976 5.46757 13.1086 5.64188 13.1921 5.8823C13.2709 6.12333 13.203 6.38779 13.0178 6.5615L10.7699 8.68925Z" fill="#FFB30F"/>
<path d="M30.0042 8.68925C29.8486 8.84012 29.777 9.05831 29.8125 9.27228L30.3469 12.2295C30.3919 12.4801 30.2861 12.7338 30.0764 12.8786C29.8708 13.0289 29.5973 13.0469 29.3731 12.9267L26.711 11.5383C26.6185 11.489 26.5157 11.4625 26.4105 11.4595H26.2476C26.1911 11.468 26.1358 11.486 26.0853 11.5136L23.4226 12.9087C23.291 12.9748 23.1419 12.9983 22.9959 12.9748C22.6401 12.9075 22.4026 12.5685 22.4609 12.2109L22.9959 9.25365C23.0313 9.03787 22.9598 8.81848 22.8041 8.66521L20.6337 6.5615C20.4522 6.38539 20.3891 6.12092 20.472 5.8823C20.5526 5.64428 20.7581 5.47057 21.0064 5.43151L23.9936 4.99814C24.2208 4.9747 24.4204 4.83646 24.5226 4.63209L25.8389 1.93333C25.8702 1.87323 25.9104 1.81793 25.9591 1.77105L26.0132 1.72897C26.0415 1.69772 26.0739 1.67187 26.11 1.65083L26.1755 1.62679L26.2777 1.58472H26.5307C26.7567 1.60816 26.9557 1.7434 27.0596 1.94535L28.3934 4.63209C28.4896 4.82864 28.6765 4.96508 28.8923 4.99814L31.8796 5.43151C32.132 5.46757 32.343 5.64188 32.4265 5.8823C32.5053 6.12333 32.4373 6.38779 32.2522 6.5615L30.0042 8.68925Z" fill="#FFB30F"/>
<path d="M49.2386 8.68925C49.0829 8.84012 49.0114 9.05831 49.0469 9.27228L49.5812 12.2295C49.6263 12.4801 49.5205 12.7338 49.3107 12.8786C49.1052 13.0289 48.8317 13.0469 48.6075 12.9267L45.9454 11.5383C45.8528 11.489 45.7501 11.4625 45.6449 11.4595H45.482C45.4255 11.468 45.3702 11.486 45.3197 11.5136L42.657 12.9087C42.5254 12.9748 42.3763 12.9983 42.2303 12.9748C41.8744 12.9075 41.637 12.5685 41.6953 12.2109L42.2303 9.25365C42.2657 9.03787 42.1942 8.81848 42.0385 8.66521L39.8681 6.5615C39.6866 6.38539 39.6235 6.12092 39.7064 5.8823C39.7869 5.64428 39.9925 5.47057 40.2407 5.43151L43.228 4.99814C43.4552 4.9747 43.6548 4.83646 43.7569 4.63209L45.0733 1.93333C45.1045 1.87323 45.1448 1.81793 45.1935 1.77105L45.2476 1.72897C45.2758 1.69772 45.3083 1.67187 45.3443 1.65083L45.4099 1.62679L45.512 1.58472H45.7651C45.9911 1.60816 46.19 1.7434 46.294 1.94535L47.6278 4.63209C47.7239 4.82864 47.9109 4.96508 48.1267 4.99814L51.1139 5.43151C51.3664 5.46757 51.5773 5.64188 51.6609 5.8823C51.7396 6.12333 51.6717 6.38779 51.4866 6.5615L49.2386 8.68925Z" fill="#FFB30F"/>
<path d="M68.473 8.68925C68.3173 8.84012 68.2458 9.05831 68.2813 9.27228L68.8156 12.2295C68.8607 12.4801 68.7549 12.7338 68.5451 12.8786C68.3396 13.0289 68.0661 13.0469 67.8419 12.9267L65.1798 11.5383C65.0872 11.489 64.9844 11.4625 64.8793 11.4595H64.7164C64.6599 11.468 64.6046 11.486 64.5541 11.5136L61.8914 12.9087C61.7597 12.9748 61.6107 12.9983 61.4646 12.9748C61.1088 12.9075 60.8714 12.5685 60.9297 12.2109L61.4646 9.25365C61.5001 9.03787 61.4286 8.81848 61.2729 8.66521L59.1025 6.5615C58.9209 6.38539 58.8578 6.12092 58.9408 5.8823C59.0213 5.64428 59.2269 5.47057 59.4751 5.43151L62.4624 4.99814C62.6896 4.9747 62.8891 4.83646 62.9913 4.63209L64.3076 1.93333C64.3389 1.87323 64.3792 1.81793 64.4279 1.77105L64.482 1.72897C64.5102 1.69772 64.5427 1.67187 64.5787 1.65083L64.6442 1.62679L64.7464 1.58472H64.9995C65.2255 1.60816 65.4244 1.7434 65.5284 1.94535L66.8622 4.63209C66.9583 4.82864 67.1453 4.96508 67.361 4.99814L70.3483 5.43151C70.6007 5.46757 70.8117 5.64188 70.8953 5.8823C70.974 6.12333 70.9061 6.38779 70.721 6.5615L68.473 8.68925Z" fill="#FFB30F"/>
<path d="M87.7054 8.68925C87.5497 8.84012 87.4782 9.05831 87.5137 9.27228L88.048 12.2295C88.0931 12.4801 87.9873 12.7338 87.7775 12.8786C87.572 13.0289 87.2985 13.0469 87.0743 12.9267L84.4122 11.5383C84.3196 11.489 84.2169 11.4625 84.1117 11.4595H83.9488C83.8923 11.468 83.837 11.486 83.7865 11.5136L81.1238 12.9087C80.9922 12.9748 80.8431 12.9983 80.697 12.9748C80.3412 12.9075 80.1038 12.5685 80.1621 12.2109L80.697 9.25365C80.7325 9.03787 80.661 8.81848 80.5053 8.66521L78.3349 6.5615C78.1534 6.38539 78.0902 6.12092 78.1732 5.8823C78.2537 5.64428 78.4593 5.47057 78.7075 5.43151L81.6948 4.99814C81.922 4.9747 82.1216 4.83646 82.2237 4.63209L83.5401 1.93333C83.5713 1.87323 83.6116 1.81793 83.6603 1.77105L83.7144 1.72897C83.7426 1.69772 83.7751 1.67187 83.8111 1.65083L83.8767 1.62679L83.9788 1.58472H84.2319C84.4579 1.60816 84.6568 1.7434 84.7608 1.94535L86.0946 4.63209C86.1907 4.82864 86.3777 4.96508 86.5935 4.99814L89.5807 5.43151C89.8332 5.46757 90.0441 5.64188 90.1277 5.8823C90.2064 6.12333 90.1385 6.38779 89.9534 6.5615L87.7054 8.68925Z" fill="#FFB30F"/>
</svg>
