<svg width="425" height="285" viewBox="0 0 425 285" fill="none" xmlns="http://www.w3.org/2000/svg">
<g filter="url(#filter0_d_2_920)">
<path d="M28 30.0557C28 27.2942 30.2386 25.0557 33 25.0557H392C394.761 25.0557 397 27.2942 397 30.0557V214.828C397 217.589 394.761 219.828 392 219.828H244.811C243.334 219.828 241.933 220.481 240.983 221.611L215.838 251.534C213.85 253.901 210.212 253.914 208.206 251.563L182.632 221.583C181.682 220.469 180.292 219.828 178.828 219.828H33C30.2386 219.828 28 217.589 28 214.828V30.0557Z" fill="white"/>
<path d="M33 25.517H392C394.507 25.517 396.539 27.549 396.539 30.0557V214.828C396.539 217.335 394.507 219.367 392 219.367H244.811C243.198 219.367 241.667 220.08 240.63 221.315L215.485 251.238C213.68 253.386 210.378 253.398 208.557 251.263L182.983 221.284C181.945 220.067 180.427 219.367 178.828 219.367H33C30.4934 219.367 28.4613 217.335 28.4613 214.828V30.0557C28.4613 27.549 30.4933 25.517 33 25.517Z" stroke="#999999" stroke-width="0.922581"/>
</g>
<defs>
<filter id="filter0_d_2_920" x="0.194445" y="0.427886" width="424.611" height="283.873" filterUnits="userSpaceOnUse" color-interpolation-filters="sRGB">
<feFlood flood-opacity="0" result="BackgroundImageFix"/>
<feColorMatrix in="SourceAlpha" type="matrix" values="0 0 0 0 0 0 0 0 0 0 0 0 0 0 0 0 0 0 127 0" result="hardAlpha"/>
<feOffset dy="3.17778"/>
<feGaussianBlur stdDeviation="13.9028"/>
<feComposite in2="hardAlpha" operator="out"/>
<feColorMatrix type="matrix" values="0 0 0 0 0.0941176 0 0 0 0 0.352941 0 0 0 0 0.858824 0 0 0 0.2 0"/>
<feBlend mode="normal" in2="BackgroundImageFix" result="effect1_dropShadow_2_920"/>
<feBlend mode="normal" in="SourceGraphic" in2="effect1_dropShadow_2_920" result="shape"/>
</filter>
</defs>
</svg>
